<svg width="161" height="199" viewBox="0 0 161 199" fill="none" xmlns="http://www.w3.org/2000/svg">
    <path d="m99.571 139.855.25-15.364c-2.308-8.817-8.408-13.874-16.805-13.874-10.054 0-17.102 8.528-17.102 20.72v15.887c0 11.589 6.882 19.66 16.692 19.66h.337c7.396-.175 16.43-4.202 17.419-22.377l.113-1.861-3.722 1.149c-1.122.362-2.287.723-3.415 1.05l-.813.235-.116.869c-.954 8.155-4.085 12.143-9.505 12.143-6.327 0-9.267-5.285-9.267-16.628v-4.072c-.113-7.885 1.14-13.026 3.735-15.692 1.499-1.513 3.465-2.265 6.005-2.265 3.142 0 8.277 3.646 8.417 7.805l-7.274 7.452s10.24-3.217 15.051 5.163zm-16.966 25.721h.026l-.026.013v-.013zM22.128 98.984l-7.998-8.07-8.013 8.07 8.013 8.064 7.998-8.064zM19.276 79.95 14.13 74.79 9.013 79.95l5.117 5.168 5.146-5.168zM14.13 111.576l-5.117 5.152 5.117 5.18 5.146-5.18-5.146-5.152z" fill="#1D1D1B"/>
    <path d="M147.156 164.484c-2.255-1.884-4.095-6.121-1.552-10.762 0 0-4.366.163-5.355-7.061V54.298c0-4.029 2.782-8.407 6.789-9.283v-.875c-7.663-3.505-15.478-12.435-19.308-19.963h-.702c.532 7.355 1.407 14.715 1.407 22.064v41.034c0 3.22-2.182 6.465-5.851 6.465h-14.71c6.055-6.281 6.871-15.916 6.871-23.78V36.64c0-17.906-5.734-29.744-27.068-29.744H31.99v2.209c5.415 0 9.4 1.563 12.296 4.615 1.503 2.126 3.374 6.526-.924 10.978 0 0 6.184 2.031 6.804 10.394.004.53.055.989.055 1.538v57.11H43.91c-3.807 0-6.236-3.09-6.236-6.77V50.465c0-10.132 2.062-17.175 8.441-17.175v-.874H12.04v.874c2.59 0 4.906.588 6.911 1.736 2.255 1.886 4.102 6.124 1.548 10.762 0 0 4.363-.163 5.355 7.061v92.369c0 4.023-2.777 8.401-6.788 9.275v.877c7.663 3.511 15.481 12.44 19.308 19.963h.698c-.525-7.349-1.4-14.712-1.4-22.061V110.42c0-2.452 1.989-6.6 6.087-6.6h6.461v74.352c.562 3.036-.288 12.12-11.192 11.846l.275 2.751h53.575c14.486 0 24.872-12.666 24.872-25.33v-41.58c0-9.779-2.794-17.174-6.473-22.039h11.155c4.11 0 6.003 3.534 6.003 7.367v37.862c0 10.131-2.058 17.175-8.439 17.175v.873h34.07v-.873c-2.588 0-4.904-.584-6.91-1.74zM61.174 17.922h21.612c16.38-.286 21.031 6.044 20.747 18.164l.284 30.57c0 4.288-.486 9.9-2.081 14.948-2.951-.829-6.274-3.228-6.274-9.229 0-.483-6.884.505-8.317-6.749 5.922-2.9 9.437-9.5 9.437-16.275v-4.822c0-12.738-5.592-17.402-19.03-17.402l-16.36.017c-.015-5.818-.018-9.222-.018-9.222zm.021 11.115c3.923 1.384 8.88 5.392 8.88 14.146l.162 33.008c0 1.614-1.113 4.998-6.082 5.805l.156 1.299 19.047.15.17-1.768c-2.422.153-6.734-2.576-6.734-5.648V33.57h.904c9.447 0 12.333 3.705 12.333 12.573 0 6.441-1.769 14.657-9.762 14.657-.152 0-.428-.02-.766-.023l-.007 6.5 9.888 16.169h11.691c-1.885 4.841-4.95 8.925-9.986 10.277v.017H61.33c-.045-26.736-.103-51.157-.136-64.703zm44.53 130.96c0 15.984-6.01 21.765-17.492 21.488-1.088 0-10.949.277-26.794.277 0-21.141-.045-50.175-.085-77.942h32.865c4.423 1.971 10.622 8.399 11.506 19.289v36.888z" fill="#1D1D1B"/>
</svg>
