<svg width="800" height="800" viewBox="0 0 800 800" fill="none" xmlns="http://www.w3.org/2000/svg">
    <path d="m468.612 544.682.895-54.891c-8.245-31.504-30.032-49.571-60.02-49.571-35.91 0-61.079 30.469-61.079 74.031v56.759c0 41.407 24.577 70.245 59.612 70.245h1.204c26.417-.627 58.682-15.015 62.213-79.951l.403-6.648-13.295 4.104a429.247 429.247 0 0 1-12.197 3.751l-2.901.842-.415 3.102c-3.408 29.137-14.589 43.387-33.947 43.387-22.596 0-33.095-18.882-33.095-59.411v-14.547c-.404-28.173 4.073-46.542 13.339-56.067 5.351-5.406 12.376-8.093 21.447-8.093 11.221 0 29.561 13.028 30.059 27.886l-25.977 26.626s36.572-11.495 53.754 18.446zm-60.592 91.899h.09l-.09.044v-.044zM192.03 398.655l-28.565-28.832-28.619 28.832 28.619 28.812 28.565-28.812zM181.842 330.65l-18.377-18.43-18.276 18.43 18.276 18.464 18.377-18.464zM163.466 443.645l-18.277 18.41 18.277 18.506 18.377-18.506-18.377-18.41z" fill="#DF3A24"/>
    <path d="M638.556 632.68c-8.052-6.732-14.625-21.872-5.54-38.452 0 0-15.594.584-19.128-25.227V238.999c0-14.394 9.936-30.036 24.247-33.166v-3.127c-27.368-12.522-55.276-44.428-68.955-71.323h-2.509c1.901 26.277 5.026 52.571 5.026 78.828v146.612c0 11.503-7.794 23.099-20.897 23.099h-52.536c21.625-22.445 24.54-56.868 24.54-84.964V175.91c0-63.978-20.48-106.273-96.671-106.273H227.247v7.892c19.34 0 33.568 5.585 43.913 16.49 5.369 7.597 12.05 23.317-3.299 39.222 0 0 22.084 7.258 24.299 37.137.013 1.896.198 3.534.198 5.494v204.05h-22.54c-13.598 0-22.272-11.044-22.272-24.189v-130.43c0-36.197 7.365-61.363 30.148-61.363v-3.122H156v3.122c9.247 0 17.52 2.1 24.683 6.204 8.051 6.736 14.651 21.879 5.529 38.45 0 0 15.581-.584 19.125 25.229v330.02c0 14.374-9.92 30.018-24.246 33.139v3.134c27.369 12.543 55.291 44.445 68.959 71.325h2.492c-1.875-26.257-4.996-52.565-4.996-78.822V439.515c0-8.761 7.099-23.579 21.737-23.579h23.075v265.647c2.006 10.849-1.029 43.303-39.974 42.326l.985 9.828h191.339c51.736 0 88.829-45.252 88.829-90.502V494.676c0-34.938-9.979-61.358-23.118-78.74h39.84c14.677 0 21.438 12.624 21.438 26.319v135.277c0 36.197-7.349 61.365-30.139 61.365v3.118h121.678v-3.118c-9.242 0-17.515-2.089-24.68-6.217zM331.478 109.033h77.186c58.502-1.021 75.111 21.594 74.098 64.897l1.013 109.222c0 15.32-1.736 35.374-7.432 53.409-10.541-2.963-22.406-11.533-22.406-32.975 0-1.726-24.589 1.804-29.705-24.113 21.149-10.359 33.705-33.939 33.705-58.15v-17.227c0-45.513-19.974-62.176-67.968-62.176l-58.427.062c-.053-20.787-.064-32.949-.064-32.949zm.077 39.711c14.008 4.944 31.716 19.267 31.716 50.543l.575 117.933c0 5.766-3.974 17.856-21.722 20.738l.559 4.643 68.025.54.606-6.321c-8.651.548-24.049-9.204-24.049-20.177V164.942h3.228c33.739 0 44.045 13.237 44.045 44.92 0 23.015-6.315 52.368-34.864 52.368-.542 0-1.526-.075-2.735-.081l-.024 23.224 35.313 57.768h41.753c-6.729 17.297-17.678 31.888-35.665 36.717v.064H332.037c-.158-95.527-.364-182.778-.482-231.178zM490.59 616.648c0 57.107-21.463 77.764-62.474 76.774-3.884 0-39.101.99-95.693.99 0-75.536-.158-179.271-.302-278.476h117.377c15.795 7.041 37.936 30.005 41.092 68.915v131.797z" fill="#DF3A24"/>
</svg>
