<svg width="236" height="84" viewBox="0 0 236 84" fill="none" xmlns="http://www.w3.org/2000/svg">
    <g clip-path="url(#knu494y6na)" fill="#FAE4C1">
        <path d="M26.937 19.903s4.634-1.295 5.887 4.466l2.998 10.822-2.998 11.77c-1.252 5.76-5.887 4.465-5.887 4.465 0 1.431 1.452 1.531 1.452 1.531h178.599s1.452-.1 1.452-1.53c0 0-4.633 1.294-5.885-4.467l-2.999-11.769 2.999-10.822c1.252-5.761 5.885-4.466 5.885-4.466 0-1.431-1.452-1.53-1.452-1.53h-178.6s-1.45.099-1.45 1.53zM202.811 50.97v.502H33.369v-.502h169.442zM38.383 40.63c1.706-.094 2.41-2.298 2.653-3.375V28.59c0-1.69-3.142-3.58-3.142-3.58h10.752c6.595 0 10.197 4.672 10.197 10.378 0 5.648-3.05 10.049-10.197 10.049H37.923s3.113-1.27 3.113-3.34v-.952c-1.412.139-2.653-.516-2.653-.516zm23.473-5.392c0-6.102 4.067-10.623 9.89-10.623 5.918 0 9.892 4.642 9.892 10.653 0 5.586-3.76 10.562-9.863 10.562-6.036 0-9.92-4.854-9.92-10.592zm21.12 5.151c1.728-.093 2.428-2.354 2.661-3.416V28.53c0-1.855-3.082-3.52-3.082-3.52h7.795l7.92 12.445h.094v-9.017c0-1.763-3.267-3.428-3.267-3.428h10.045s-3.545 1.776-3.545 3.703v16.724h-3.666l-8.907-13.84h-.06V42.25c0 1.741 3.36 3.188 3.36 3.188h-9.8s3.113-1.181 3.113-3.127v-1.405c-1.415.145-2.662-.516-2.662-.516zm54.844-15.38h13.62s-3.183 1.558-2.929 2.913c.255 1.356 3.507 12.936 4.007 14.388.498 1.452 2.927 3.127 2.927 3.127h-10.907s2.761-1.613 2.401-2.946a120.57 120.57 0 0 0-.924-3.187h-5.33s-.492 1.97-.801 3.16c-.308 1.186 2.435 2.973 2.435 2.973h-9.276s2.405-1.01 3.205-3.095c.8-2.088 3.669-11.49 4.128-13.691.463-2.202-2.556-3.641-2.556-3.641zm-11.366 13.023h-4.158v4.126c0 1.492 2.742 3.279 2.742 3.279h-11.002s3.022-.81 3.022-3.28V41.14c-1.426.157-2.685-.51-2.685-.51 1.789-.098 2.475-2.517 2.685-3.523v-8.698c0-2.07-3.145-3.4-3.145-3.4h12.695c3.945 0 7.488 2.64 7.488 6.373 0 3.915-2.774 6.65-7.642 6.65zM180.58 25.01h13.62s-3.258 1.103-2.93 2.912c.333 1.81 3.549 12.821 4.008 14.388.461 1.567 2.927 3.127 2.927 3.127h-10.906s2.796-1.276 2.403-2.946c-.398-1.668-.925-3.187-.925-3.187h-5.332s-.455 1.743-.802 3.16c-.344 1.413 2.436 2.973 2.436 2.973h-9.275s2.444-1.01 3.204-3.095c.762-2.088 3.591-11.263 4.13-13.691.538-2.427-2.558-3.641-2.558-3.641zm-10.937 13.022h-4.161s-.049 2.18 0 4.126c.054 1.943 2.743 3.279 2.743 3.279h-11s2.9-1.716 3.021-3.28c.014-.197.028-.543.04-.992-1.318.054-2.431-.536-2.431-.536 1.397-.075 2.119-1.57 2.469-2.698.02-3.65-.01-8.404-.078-9.522-.109-1.734-3.143-3.4-3.143-3.4h12.694c3.943 0 7.488 2.64 7.488 6.373 0 3.915-2.771 6.65-7.642 6.65zM33.369 19.6h169.442v.5H33.369v-.5z"/>
        <path d="M186.248 28.65h-.06l-2.157 8.227h4.346l-2.129-8.226zM143.49 28.65h-.062l-2.156 8.227h4.344l-2.126-8.226zM124.638 27.982h-2.342v7.043h2.31c2.865 0 3.727-1.791 3.727-3.552 0-1.82-.983-3.49-3.695-3.49zM75.688 35.268c0-3.582-.953-8.286-3.942-8.286-2.96 0-3.944 4.615-3.944 8.286 0 3.734 1.111 8.194 3.944 8.194 2.773 0 3.942-4.309 3.942-8.194zM167.825 27.982h-2.343v7.043h2.314c2.866 0 3.726-1.791 3.726-3.552 0-1.82-.986-3.49-3.697-3.49zM52.899 35.633c0-5.8-2.096-7.592-4.962-7.592h-1.665v14.572h1.665c3.051 0 4.962-1.456 4.962-6.98zM90.716 74.743c-1.142-2.45-2.367-3.737-5.1-4.38 2-.24 5.915-.763 5.915-3.335-.08-1.406-1.753-2.573-2.978-2.975-1.794-.602-3.712-.722-5.587-.762H63.998l4.976 3.134v7.153l-4.976 3.134h16.969l-4.977-3.134v-2.05h3.305c2.405 0 2.57.24 3.71 2.29.49.925.98 1.889 1.388 2.894h9.627l-3.304-1.97zm-8.893-5.868-1.387.041H75.99v-3.093h4.854c.734 0 1.55 0 2.244.2.652.202.978.844.978 1.487 0 1.246-1.264 1.365-2.243 1.365zM125.78 72.171v-5.746l4.978-3.134h-13.38l4.527 3.134v5.103c0 .924-.203 1.81-1.06 2.33-.898.603-2.814.804-3.917.804-1.1 0-3.017-.2-3.916-.843-.733-.563-.938-1.407-.938-2.291v-5.103l4.528-3.134h-16.56l5.017 3.134v5.746c0 .804.162 1.447.733 2.05 2.245 2.45 6.568 3.174 9.79 3.174 2.53 0 6.935-.281 8.893-1.968.938-.803 1.305-2.05 1.305-3.256zM171.941 63.29h-15.215l-2.57 6.109-2.733-6.108h-13.951l4.977 3.134v7.153l-4.977 3.134h13.543l-4.691-3.134v-8.28l5.099 11.414h3.671l5.059-11.813v8.679l-4.692 3.134h16.48l-4.976-3.134v-7.153l4.976-3.134zM86.748 57.995c.118-.038.254-.058.408-.058.168 0 .34.021.513.064a3.136 3.136 0 0 1 1.034.49l.224.18.274.271.023.022h.164V57.7h-.162l-.108.078-.002.001c-.257.203-.45.296-.528.292l-.257-.092a2.655 2.655 0 0 0-1.164-.292c-.278 0-.536.054-.774.161a1.427 1.427 0 0 0-.568.438c-.14.187-.212.393-.212.613 0 .15.037.295.111.43l.004.007.3.335.008.009.323.179.003.002.005.002c.126.05.277.092.454.127.175.035.402.066.68.097l.106.01.1.01c.219.018.408.042.57.066.154.026.266.052.33.072l.26.152.115.267c-.005.137-.063.24-.202.332-.144.092-.34.142-.592.142-.181 0-.37-.022-.564-.07a3.158 3.158 0 0 1-1.14-.54l-.005-.005.004.003a3.804 3.804 0 0 1-.562-.52l-.022-.024h-.188v1.412h.172l.119-.082.002-.002.055-.04.035-.025c.155-.11.268-.183.335-.222l.16-.052c.044 0 .162.035.33.112.162.078.31.139.447.184a2.503 2.503 0 0 0 .818.133c.257 0 .487-.035.692-.103a1.32 1.32 0 0 0 .514-.308 1.178 1.178 0 0 0 .353-.836c0-.353-.16-.653-.465-.875-.152-.113-.33-.2-.532-.261-.2-.061-.482-.114-.846-.16l-.194-.026-.047-.007-.066-.008-.071-.007a7.595 7.595 0 0 1-.5-.068 1.864 1.864 0 0 1-.303-.068l-.233-.131-.097-.196.085-.195.274-.156zM97.488 57.98h.173V57.768H95.773l-1.254 2.253-1.355-2.253h-1.939V57.98h.219l.495.253v2.156l-.517.765h-.192V61.364H92.886V61.154h-.184l-.518-.765v-1.853l1.68 2.828h.177l1.668-3.003v2.492l-.494.3h-.179V61.365h2.625V61.154h-.177l-.493-.3V58.28l.497-.3zM101.689 61.154h-.076v.21h2.461v-.21h-.148l-.369-.294-2.032-3.136h-.179l-.022.037-1.484 2.536-.66.857h-.137v.21h1.532v-.21h-.143l-.342-.81.021-.036h1.6l.377.578-.312.267h-.087zm-.824-2.14.694 1.054h-1.305l.611-1.054zM105.616 61.154h-.173V61.364h4.322l.088-1.424.005-.08H109.652l-.012.164-1.33 1.1h-.908V58.29l.522-.31H108.086V57.768h-2.627V57.98h.179l.479.284v2.59l-.501.3zM111.552 61.154h-.174V61.364h4.324l.086-1.424.005-.08H115.587l-.013.164-1.329 1.1h-.91V58.29l.522-.31H114.02V57.768h-2.626V57.98h.181l.478.284v2.59l-.501.3zM124.238 59.456l.311-.123.009-.003.289-.213.017-.013.146-.341.012-.029-.153-.38-.005-.01-.007-.01a1.255 1.255 0 0 0-.421-.303 2.546 2.546 0 0 0-.612-.195 3.854 3.854 0 0 0-.74-.068h-2.781v.212h.174l.489.3v2.583l-.478.29h-.178v.211h3.059c.221 0 .45-.026.687-.08.233-.054.428-.124.582-.213h.002l-.001-.001c.314-.171.491-.415.49-.71a.575.575 0 0 0-.159-.41l-.004-.003-.275-.217-.009-.006-.344-.147-.007-.002-.337-.071.237-.045.007-.003zM123.562 61c-.082.082-.205.128-.391.13h-.916v-1.505h.792c.252 0 .419.062.518.167.101.106.166.301.178.591l.001.056-.04.304-.142.257zm-1.307-2.991h.687c.152 0 .274.015.369.041l.236.128.124.206.048.32c0 .25-.053.423-.14.527-.086.104-.222.16-.436.16h-.888V58.01zM129.141 61.154h-.076v.21h2.461v-.21h-.147l-.369-.294-2.034-3.136h-.178l-.022.037-1.484 2.537-.661.855h-.137v.212h1.534v-.212h-.144l-.342-.808.021-.037h1.599l.377.578-.309.267h-.089zm-.824-2.14.694 1.054h-1.305l.611-1.054zM133.869 61.154h-.196V61.364h2.694V61.154h-.217l-.485-.296v-2.854h.261l1.084 1.282V59.456H137.225v-1.688h-4.413v1.682H133.028v-.173l1.085-1.273h.266v2.844l-.51.306zM141.201 58.047l.353-.066c.241 0 .502.062.782.188.281.127.52.29.72.491.121.125.251.276.386.452l.023.03h.174l-.066-1.358-.004-.07h-.149l-.072.047-.003.002-.045.035c-.139.099-.25.17-.334.212l-.193.058-.253-.093v.001a2.49 2.49 0 0 0-.522-.206 2.36 2.36 0 0 0-.552-.06c-.619-.001-1.158.175-1.609.527-.501.386-.764.837-.764 1.341 0 .392.152.742.448 1.031.255.25.567.445.937.585.37.14.753.21 1.144.21.715 0 1.295-.222 1.717-.67l.001-.002.222-.286.003-.004.002-.004a2.64 2.64 0 0 0 .177-.375l.028-.073-.163-.054-.068-.023-.027.066a2.062 2.062 0 0 1-.163.336l-.207.257a1.84 1.84 0 0 1-.38.3 1.76 1.76 0 0 1-.462.2 1.784 1.784 0 0 1-.483.067c-.154 0-.295-.022-.425-.065a1.076 1.076 0 0 1-.347-.185l-.263-.302-.128-.293h.001a2.618 2.618 0 0 1-.124-.788c0-.584.137-1.001.397-1.269l.291-.19zM145.365 61.154h-.189V61.364h2.641V61.154h-.189l-.49-.3v-1.191h1.561v1.195l-.488.296h-.178V61.364h2.615V61.154h-.192l-.469-.291V58.28l.494-.3h.161V57.768h-2.605V57.98h.179l.483.294v1.143h-1.567V58.28l.5-.3h.178V57.768h-2.634V57.98h.162l.498.3v2.579l-.471.295zM91.54 79.48h-1.672l-.754 1.82-.032.149-.033-.149-.755-1.82h-1.638l.163.517v3.486l-.163.517h1.41l-.164-.517v-2.002l-.034-.257.099.257L89.017 84h.032l1.048-2.519.099-.257-.032.257v2.002l-.165.517h1.54l-.163-.517v-3.486l.163-.517zM94.423 79.48l-.438 1.291.68-.227h.513l.066.065v2.714l-.231.677h1.738l-.23-.677v-2.714l.066-.064h.511l.681.227-.438-1.292h-2.918zM99.928 82.58l-.327.323v.774l.327.323h.853l.329-.323v-.774l-.329-.324h-.853zM106.813 80.867l1.276-1.26-.13-.127h-1.409l-.131.386-.952.937-.098.13v-.936l.165-.517h-1.574l.164.517v3.486l-.164.517h1.574l-.165-.517v-1.195l.066-.13.328-.322h.099l.544 1.582.065.582h1.638l-.366-.614-.93-2.52zM113.237 79.899l.096-.419h-2.228l.098.419-.918 3.584-.261.517h1.508l-.066-.517.097-.388.067-.064h1.082l.065.064.098.388-.067.517h1.607l-.261-.517-.917-3.584zm-.776 2.164h-.588l-.067-.066.328-1.388.033-.226.033.226.328 1.388-.067.066zM119.431 79.997v1.389l.032.322-.132-.322-1.146-1.906h-1.41l.196.517v3.486l-.164.517h1.442l-.163-.517v-1.872l-.033-.324.132.324L119.627 84h.884v-4.003l.164-.517h-1.408l.164.517zM125.165 82.902l-.098-.097V80.06l.197-.58h-1.639l.164.517v3.486l-.164.517h2.689l.444-1.323-.676.225h-.917zM131.786 79.899l.097-.419h-2.228l.098.419-.917 3.584-.262.517h1.507l-.065-.517.097-.388.067-.064h1.082l.064.064.1.388-.067.517h1.607l-.262-.517-.918-3.584zm-.774 2.164h-.588l-.067-.066.327-1.388.033-.226.034.226.327 1.388-.066.066zM136.177 79.48l-.852.84v2.84l.852.84h2.033l.851-.84v-2.84l-.851-.84h-2.033zm1.573 3.066-.132.259-.26.129h-.328l-.264-.13-.13-.258v-1.68l.13-.257.264-.128h.328l.26.128.132.258v1.68zM144.6 79.997v1.389l.033.322-.132-.322-1.147-1.906h-1.41l.197.517v3.486l-.164.517h1.442l-.164-.517v-1.872l-.032-.324.131.324L144.797 84h.884v-4.003l.164-.517h-1.408l.163.517zM108.573 12.37c.158-.09.249-.022.252.129l.014.575c.152-.066.306-.131.46-.194l-.019-.665c-.006-.24-.073-.376-.169-.45-.102-.08-.252-.082-.445.04-.15.095-.297.192-.444.293a1.359 1.359 0 0 0-.419.482 1.102 1.102 0 0 0-.146.527v2.824c0 .2.073.338.186.443a.622.622 0 0 0 .443.165h.484a.549.549 0 0 0 .448-.205c.108-.131.171-.315.164-.56l-.019-.66-.473.076c.003.19.008.38.012.569.005.158-.091.274-.253.284l-.259.016c-.163.01-.258-.082-.258-.225l-.034-2.942a.454.454 0 0 1 .234-.382l.241-.14zM111.43 10.39c-.161.063-.319.13-.478.2-.202.088-.345.258-.442.458a1.353 1.353 0 0 0-.145.68c.047 1.32.093 2.639.138 3.959.01.272.082.462.191.606.116.147.264.246.47.246h.482c.217 0 .353-.105.451-.27.106-.163.163-.375.153-.691l-.152-4.466c-.011-.32-.083-.508-.199-.63-.111-.124-.261-.177-.469-.092zm.084 5.5-.263.011c-.161.007-.261-.123-.267-.314l-.142-3.982c-.007-.19.081-.36.241-.422l.26-.098c.167-.062.266.056.272.249l.147 4.2c.008.204-.081.348-.248.355zM115.741 16.519h.461l-.088-7.261c-.233.024-.466.051-.698.084a826.961 826.961 0 0 0-.447 3.824l-.081 1.08-.053.003-.122-1.06c-.2-1.223-.402-2.428-.608-3.61a18.21 18.21 0 0 0-.685.167l.193 6.774h.461l-.103-3.957-.077-1.559.037-.006.257 1.664c.163.955.323 1.923.483 2.904l.44-.012c.115-.999.232-2.007.353-3.023l.189-1.785.035-.004a901.86 901.86 0 0 0-.01 1.64l.063 4.137zM118.76 9.197c-.408-.022-.817-.03-1.225-.022l.016 7.343h.484l.005-3.347c.231.002.462.005.694.01.16.005.317-.104.427-.276.114-.195.184-.44.188-.793l.019-1.777c.003-.355-.062-.6-.169-.796-.115-.206-.275-.334-.439-.342zm.089 2.798c-.008.25-.11.413-.249.41-.186-.005-.372-.008-.559-.01l.003-2.433c.193.002.384.007.576.015.14.006.243.179.241.419l-.012 1.599zM120.004 16.519h.506c.046-.424.091-.846.138-1.268l.792.03.085 1.239h.502c-.18-2.262-.366-4.588-.56-6.962-.194-.043-.387-.081-.582-.115a541.765 541.765 0 0 0-.881 7.076zm1.128-5.83.037.006.035 1.02.189 2.819a70.756 70.756 0 0 0-.666-.039c.106-.94.213-1.874.323-2.8l.082-1.006zM124.682 15.225l-.041-.004-.12-.89a308.28 308.28 0 0 1-.671-4.078 19.158 19.158 0 0 0-.533-.188l-.215 6.457h.484l.072-2.092.022-2.822.035.01.125.963c.222 1.377.444 2.696.667 3.941l.531.001.199-5.682a15.889 15.889 0 0 0-.474-.217l-.076 2.157-.005 2.444zM127.262 16.526l.033-2.022c.256-.755.499-1.424.723-1.995a14.35 14.35 0 0 0-.412-.295c-.127.373-.258.776-.392 1.206-.036.124-.073.25-.109.38l-.032-.013-.103-.471a82.764 82.764 0 0 1-.328-1.723 18.08 18.08 0 0 0-.462-.267c.211 1.085.424 2.1.648 3.04l-.051 2.16h.485zM100.389 14.732a.589.589 0 0 0 .117-.417.565.565 0 0 0-.223-.392l-.751-.565c-.255-.19-.593-.133-.758.053l-.024-.017c.12-.221.055-.508-.172-.678l-.649-.487a.59.59 0 0 0-.82.112l-.703.91 3.245 2.435.738-.954zm-2.285-.806-1.058-.793.333-.43.322-.047.681.512c.139.105.114.25.03.36l-.308.398zm.342.257.269-.347c.117-.15.338-.238.524-.098l.69.519.039.318-.368.475-1.154-.867zM102.413 12.496l-.312-.294-.63.654-2.64-2.478-.332.344 2.951 2.77.963-.996zM104.082 11.07l-.28-.325-.697.585-.939-1.088.572-.48-.279-.323-.573.478-.86-.996.696-.583-.282-.328-1.065.893 2.641 3.059 1.066-.893zM106.003 9.722l-.243-.35-.756.51-.82-1.181.623-.419-.244-.35-.621.418-.75-1.08.756-.51-.247-.355-1.155.778 2.303 3.318 1.154-.779zM107.84 8.7a.572.572 0 0 0 .235-.802l-1.331-2.483a.58.58 0 0 0-.344-.3.605.605 0 0 0-.459.039l-1.025.531 1.902 3.546 1.022-.531zm-1.809-3.108.311.09 1.284 2.398-.099.304-.483.252-1.496-2.792.483-.252zM109.823 7.821l-1.529-3.727-.449.177 1.53 3.73.448-.18zM111.405 7.273l-.37-1.287-.568-1.701.034-.01.315.525 1.476 2.226.51-.142-1.114-3.866-.463.13.406 1.413.536 1.574-.038.01-.309-.527-1.481-2.223-.51.142 1.111 3.866.465-.13zM113.993 6.49c.119.081.267.13.469.099l.478-.07a.653.653 0 0 0 .421-.218.583.583 0 0 0 .116-.476l-.242-1.59-.899.133.064.42.421-.062.171 1.124c.02.13-.065.235-.227.26l-.259.037c-.162.024-.267-.053-.287-.183l-.409-2.701c-.02-.13.058-.236.22-.26l.258-.038c.167-.023.274.058.294.184l.073.476.477-.07-.079-.522a.575.575 0 0 0-.218-.392.639.639 0 0 0-.502-.117l-.477.07a.64.64 0 0 0-.429.242.574.574 0 0 0-.102.45l.422 2.794a.58.58 0 0 0 .246.41zM118.474 4.451l.782.027-.064 1.853.483.017.138-4.018-.483-.017-.06 1.74-.781-.027.06-1.74-.484-.016-.137 4.02.483.016.063-1.855zM122.278 6.26l-.904-.136.221-1.414.743.113.065-.42-.743-.112.2-1.294.906.136.065-.425-1.382-.21-.618 3.974 1.382.208.065-.42zM123.683 6.275l.76.204-.078.722.485.13.361-4.07-.54-.144-1.776 3.693.491.13.297-.665zm.851-1.885.21-.544.034.008-.098.574-.185 1.618-.636-.17.675-1.486zM126.776 6.077l.357.143-.207 1.895.476.19.197-2.01.282-.032a.595.595 0 0 0 .323-.342l.348-.846a.567.567 0 0 0 .007-.462.593.593 0 0 0-.325-.316l-1.074-.427-1.531 3.727.448.18.699-1.7zm.667-1.63.509.202.132.295-.336.814-.309.125-.503-.2.507-1.236zM128.412 8.822l.425.225 1.724-3.152.538.285.207-.379-1.495-.793-.207.378.532.282-1.724 3.154zM131.559 10.793l1.147-1.444.303.234-.73 1.767.404.311.754-1.878.28.047a.608.608 0 0 0 .407-.24l.572-.72a.566.566 0 0 0 .136-.441.587.587 0 0 0-.222-.392l-.914-.705-2.518 3.165.381.296zm2.248-2.828.431.334.044.317-.55.693-.333.036-.427-.33.835-1.05zM133.57 12.258c.003.15.057.3.201.444l.34.34c.152.15.299.2.45.202a.572.572 0 0 0 .437-.185l2.474-2.41-.342-.34-2.443 2.382-.343-.03-.185-.184-.018-.338 2.439-2.378-.34-.338-2.473 2.41a.575.575 0 0 0-.197.425zM135.587 14.666l1.891-1.372.726-.571.021.027-.683.753-1.141 1.33.26.346 1.622-.683.933-.42.021.028-.769.515-1.89 1.372.274.365 3.291-2.39-.396-.528-2.032.861-.557.283-.03-.04.439-.441 1.432-1.663-.394-.528-3.291 2.39.273.366z"/>
        <path d="M235.338 46.421c-.281.03-.594.193-.785.193l-.254-.061c0-2.438-.789-4.228.54-6.528.252-.425.471-.845.372-1.111-.086-.262-.531-.353-1.253-.127-.697.194-1.611.715-2.428 1.425-.069-1.169-1.113-1.983-2.178-1.788.189-1.004-.535-1.947-1.547-1.947-.912 0-1.61.78-1.579 1.725-1.089-1.168-2.149-1.953-3.217-2.469 1.068-.517 2.128-1.306 3.217-2.471-.031.943.666 1.728 1.576 1.728 1.01 0 1.733-.944 1.547-1.948 1.068.191 2.112-.622 2.173-1.786.821.707 1.735 1.23 2.431 1.422.726.229 1.168.135 1.255-.124.1-.266-.121-.686-.373-1.11-1.325-2.307-.536-4.093-.536-6.527l.254-.065c.19 0 .504.163.785.194.792.128.669-.456.631-1.011 0-.551 0-1.362-.03-1.918-.189-1.848-1.609-2.821-2.739-3.925-.601-.59.408-.817 1.033-1.529.824-.906 1.041-2.76.35-3.805-1.735-2.664-5.711-1.656-5.268 1.307-1.48-1.958-2.868-2.54-5.133-3.224.53-.425.876-.905 1.07-1.462.314-.844-.099-.844-.728-1.033-.188-.068-.255-.135-.188-.496.06-.352.219-.969.252-1.396.03-.745-.662-1.33-.536-2.013.06-.324.344-.588.441-.742.095-.2 0-.294-.224-.263-.189.036-.532.23-.849.263-.566.062-1.357-.294-1.859-.067-.222.099-.313.323-.254.58.195.718.254 1.366.195 1.953-1.739-.486-3.666-.456-5.367.193-.79-.552-1.447-1.3-1.796-2.21a.191.191 0 0 0-.354 0c-.368.91-1.001 1.658-1.793 2.21a8.452 8.452 0 0 0-5.927 0 5.055 5.055 0 0 1-1.799-2.21.184.184 0 0 0-.344 0 4.86 4.86 0 0 1-1.797 2.21 8.272 8.272 0 0 0-2.867-.513v-.011l-.091.002-.09-.002v.01c-.976.008-1.951.165-2.866.514-.789-.552-1.451-1.3-1.796-2.21a.187.187 0 0 0-.348 0 5.101 5.101 0 0 1-1.798 2.21 8.46 8.46 0 0 0-5.93 0 5.069 5.069 0 0 1-1.799-2.21c-.063-.159-.277-.159-.35 0-.342.91-1.004 1.658-1.796 2.21a8.366 8.366 0 0 0-5.896 0c-.819-.552-1.448-1.3-1.798-2.21l-.089-.095h-.036l-.059-.026-.064.026-.092.094a4.973 4.973 0 0 1-1.835 2.21 8.552 8.552 0 0 0-2.933-.515c-1.072 0-2.051.19-2.965.516-.785-.552-1.448-1.3-1.796-2.21-.061-.159-.311-.159-.342 0-.348.91-1.015 1.658-1.798 2.21-1.895-.716-4.04-.716-5.895 0a4.91 4.91 0 0 1-1.836-2.21c-.056-.193-.281-.159-.345 0-.343.91-.978 1.658-1.797 2.21a8.375 8.375 0 0 0-5.899 0c-.789-.552-1.453-1.3-1.8-2.21a.185.185 0 0 0-.345 0 4.99 4.99 0 0 1-1.797 2.21 8.446 8.446 0 0 0-5.925 0 5.057 5.057 0 0 1-1.8-2.21.188.188 0 0 0-.349 0 4.668 4.668 0 0 1-.476.873c-9.66-6.827-23.632-6.83-33.291 0a5.842 5.842 0 0 1-.479-.874c-.065-.158-.286-.158-.345 0a5.06 5.06 0 0 1-1.799 2.21 8.367 8.367 0 0 0-5.896 0 4.912 4.912 0 0 1-1.828-2.21c-.062-.158-.289-.158-.35 0-.342.911-.976 1.66-1.795 2.21a8.372 8.372 0 0 0-5.898 0c-.786-.55-1.45-1.299-1.794-2.21-.063-.158-.29-.192-.349 0a4.906 4.906 0 0 1-1.83 2.21c-1.852-.715-4.003-.715-5.897 0a5.055 5.055 0 0 1-1.796-2.21c-.035-.158-.282-.158-.346 0-.35.911-1.011 1.66-1.8 2.21a8.72 8.72 0 0 0-2.964-.515c-1.042 0-2.047.19-2.934.516a4.983 4.983 0 0 1-1.834-2.21l-.058-.095h-.034l-.057-.026-.065.026h-.029l-.065.094h-.034c-.344.911-.977 1.66-1.796 2.21a8.37 8.37 0 0 0-5.897 0c-.791-.55-1.45-1.299-1.8-2.21-.059-.158-.278-.158-.346 0a5.034 5.034 0 0 1-1.796 2.21 8.455 8.455 0 0 0-5.928 0 5.066 5.066 0 0 1-1.798-2.21c-.058-.158-.28-.158-.346 0-.343.911-1.008 1.66-1.8 2.21a8.285 8.285 0 0 0-2.83-.522v-.001h-.007l-.068-.01v.012a8.388 8.388 0 0 0-2.972.522 4.872 4.872 0 0 1-1.8-2.21.183.183 0 0 0-.343 0 5.077 5.077 0 0 1-1.797 2.21 8.469 8.469 0 0 0-5.933 0c-.787-.552-1.422-1.3-1.79-2.21a.19.19 0 0 0-.352 0c-.349.91-1.012 1.658-1.795 2.21-1.703-.649-3.633-.679-5.362-.193-.068-.587 0-1.235.188-1.953.062-.257-.03-.481-.256-.58-.498-.227-1.292.129-1.857.067-.314-.032-.66-.227-.852-.263-.222-.03-.315.063-.222.263.1.154.38.418.444.742.126.682-.569 1.268-.537 2.013.034.427.193 1.044.25 1.396.065.361 0 .428-.186.496-.63.19-1.045.19-.724 1.033.19.557.535 1.038 1.068 1.462-2.266.684-3.653 1.266-5.138 3.224.445-2.963-3.53-3.97-5.264-1.306-.695 1.043-.476 2.898.349 3.804.625.712 1.63.939 1.034 1.53C1.674 19.295.25 20.268.061 22.116c-.032.556-.032 1.367-.032 1.918-.036.555-.159 1.139.633 1.011.28-.031.598-.194.786-.194l.256.064c0 2.435.785 4.22-.54 6.527-.253.425-.473.845-.377 1.11.089.26.535.354 1.255.125.698-.193 1.612-.715 2.43-1.422.067 1.164 1.113 1.977 2.176 1.786-.186 1.004.535 1.948 1.549 1.948.913 0 1.609-.785 1.578-1.729 1.087 1.166 2.15 1.955 3.217 2.472-1.067.516-2.13 1.301-3.217 2.469.03-.944-.664-1.725-1.574-1.725-1.012 0-1.734.943-1.552 1.947-1.064-.194-2.109.62-2.172 1.788-.823-.71-1.735-1.23-2.433-1.425-.722-.226-1.165-.135-1.25.127-.1.266.117.686.371 1.111 1.327 2.3.539 4.09.539 6.528l-.256.06c-.187 0-.506-.161-.786-.192-.792-.135-.667.454-.627 1.008 0 .553 0 1.365.029 1.922.186 1.848 1.61 2.822 2.74 3.926.595.584-.412.815-1.036 1.526-.826.909-1.04 2.76-.35 3.804 1.736 2.663 5.711 1.656 5.27-1.304 1.48 1.954 2.866 2.54 5.134 3.22-.535.422-.879.91-1.07 1.464-.317.843.096.843.724 1.033.19.066.257.136.19.497-.06.353-.22.968-.254 1.395-.03.742.663 1.332.54 2.01-.063.327-.345.589-.444.743-.096.204 0 .296.225.263.187-.034.532-.227.846-.263.566-.058 1.36.296 1.862.071.22-.096.313-.328.252-.582-.191-.718-.252-1.369-.191-1.953 1.738.488 3.665.454 5.364-.193.791.553 1.448 1.298 1.797 2.21.066.16.282.16.351 0a5.018 5.018 0 0 1 1.794-2.21 8.465 8.465 0 0 0 5.928 0 5.047 5.047 0 0 1 1.798 2.21c.061.16.283.16.347 0a4.844 4.844 0 0 1 1.795-2.21 8.39 8.39 0 0 0 2.867.51v.016l.092-.007.089.007v-.015a8.345 8.345 0 0 0 2.866-.511c.79.553 1.452 1.298 1.797 2.21.065.16.286.16.345 0a5.123 5.123 0 0 1 1.801-2.21 8.46 8.46 0 0 0 5.926 0 5.1 5.1 0 0 1 1.8 2.21c.066.16.283.16.351 0 .343-.912 1.005-1.657 1.797-2.21a8.375 8.375 0 0 0 5.895 0s2.664-.93 3.752-3.348c.191-.456.31-.91.38-1.434H76.73s.785-1.14 2.193-1.44c-1.224-.243-2.17-1.51-2.17-1.51H22.484c-1.895-.07-3.979-.297-5.554-.944-4.288-1.82-7.947-6.694-7-11.703.285-1.587 1.106-3.34 2.402-4.541 1.322-1.205 3.154-1.822 4.758-1.79 7.98.2 5.647 11.053 1.164 8.61-.375-.227-.568-.487-.692-.622-.063-.082-.03-.102.098-.06 3.654 1.07 3.878-3.246 2.019-4.582-1.425-1.007-3.501-.841-4.64.551-.978 1.173-1.355 3.25-.876 4.749 1.255 3.898 6.682 4.578 9.489 1.654 2.204-2.312 1.795-4.875.533-7.51-.218-.484-.253-.84-.06-.81.982.066 1.83 2.083 4.473.782.335-.158 1.005-.546 1.204-.947a6.48 6.48 0 0 0 1.175-.963c.312.08.603.194.584.413-.216 1.625-3.246 2.99-4.82 2.57-.157-.032-.945-.456-1.134-.358-.065.033-.065.167 0 .39.376 1.007.569 1.492.503 2.629-.062 1.564-.695 3.188-1.797 4.456-2.458 2.82-6.4 3.085-9.302.743-4.32-3.413-1.898-11.47 3.686-9.745.098.03 1.296.29.697-.26-.218-.197-.817-.425-1.515-.518-3.627-.587-6.592 2.6-6.876 6.173-.601 7.05 5.803 10.103 11.7 10.363.184 0 2.174 0 2.3.038h185.989c.135-.038 2.118-.038 2.309-.038 5.892-.26 12.297-3.314 11.697-10.363-.286-3.574-3.249-6.76-6.874-6.173-.691.093-1.293.321-1.516.518-.599.55.599.29.698.26 5.582-1.725 8.008 6.332 3.691 9.745-2.902 2.342-6.85 2.077-9.305-.743-1.107-1.268-1.736-2.892-1.8-4.456-.062-1.136.128-1.622.506-2.63.061-.222.061-.356 0-.39-.193-.097-.978.327-1.137.36-1.576.42-4.605-.946-4.821-2.57-.02-.22.271-.334.584-.414.332.352.728.675 1.174.965.203.4.871.787 1.205.945 2.645 1.301 3.496-.717 4.475-.781.192-.03.159.325-.061.81-1.262 2.634-1.67 5.197.537 7.51 2.806 2.923 8.23 2.243 9.488-1.655.475-1.499.1-3.576-.884-4.749-1.132-1.392-3.211-1.558-4.63-.551-1.861 1.336-1.64 5.653 2.017 4.583.126-.043.158-.023.095.06-.126.134-.316.394-.693.62-4.478 2.444-6.815-8.41 1.165-8.61 1.612-.031 3.438.586 4.756 1.791 1.301 1.201 2.119 2.954 2.399 4.541.956 5.009-2.708 9.883-6.997 11.703-1.576.647-3.657.873-5.548.944h-54.7s-.751 1.147-1.998 1.388c1.308.362 1.998 1.52 1.998 1.52l13.783.017a6.37 6.37 0 0 0 .722 2.097s1.013 1.738 3.406 2.71a8.385 8.385 0 0 0 5.899 0c.791.553 1.452 1.298 1.8 2.21.061.16.279.16.346 0a5.075 5.075 0 0 1 1.798-2.21 8.465 8.465 0 0 0 5.928 0 5.087 5.087 0 0 1 1.797 2.21c.061.16.282.16.347 0 .343-.912 1.008-1.657 1.801-2.21a8.333 8.333 0 0 0 2.831.524v.002h.003l.07.008v-.014a8.278 8.278 0 0 0 2.973-.52 4.827 4.827 0 0 1 1.796 2.21c.067.16.282.16.346 0a5.094 5.094 0 0 1 1.797-2.21 8.479 8.479 0 0 0 5.933 0c.786.553 1.421 1.298 1.793 2.21.067.16.284.16.35 0 .347-.912 1.01-1.657 1.794-2.21 1.702.647 3.633.68 5.363.193.066.584 0 1.235-.191 1.953-.059.254.032.486.257.582.499.225 1.293-.129 1.856-.07.317.035.661.228.855.262.221.033.313-.06.221-.263-.096-.154-.382-.416-.444-.743-.126-.678.566-1.267.536-2.01-.033-.427-.188-1.042-.248-1.395-.065-.36 0-.43.184-.497.631-.19 1.045-.19.729-1.033-.193-.553-.541-1.042-1.071-1.465 2.266-.679 3.653-1.265 5.135-3.22-.443 2.96 3.533 3.968 5.27 1.305.69-1.044.47-2.895-.352-3.803-.627-.712-1.633-.943-1.035-1.527 1.129-1.105 2.552-2.078 2.742-3.926.03-.557.03-1.37.03-1.922.035-.554.158-1.143-.634-1.008zM9.21 38.067c0 .585-.444 1.044-1.01 1.044-.536 0-1.011-.459-1.011-1.044 0-1.365 2.021-1.365 2.021 0zm-.6 1.598c-.165.188-.284.423-.41.645a1.99 1.99 0 0 0-.098-.613c.224.027.286.027.508-.032zm-2.275-.59c.666 0 1.198.555 1.198 1.235 0 .685-.532 1.236-1.198 1.236-.657 0-1.2-.55-1.2-1.236 0-.68.543-1.235 1.2-1.235zm1.103 2.794c-.249.62-.437 1.235-.6 1.854a9.178 9.178 0 0 0-.72-1.495c.473.065.944-.095 1.32-.36zm7.13 22.944.03-.163a5.086 5.086 0 0 1 4.824.096c-1.58.518-3.278.518-4.853.067zm.157-.654a4.29 4.29 0 0 1 .537-1.14c.156-.058.312-.127.443-.221.886.163 1.698.133 2.583-.032.912.489 2.023.779 3.217.845l.033.033c-.474.388-1.044.68-1.64.942a5.551 5.551 0 0 0-5.173-.427zm4.133-1.524a6.658 6.658 0 0 0 1.386-.618c.222.426.503.813.854 1.169a6.984 6.984 0 0 1-2.24-.55zm2.997 4.092a5.434 5.434 0 0 0-1.58-1.89c.57-.25 1.105-.581 1.58-.934.437.353.976.683 1.546.934a4.95 4.95 0 0 0-1.546 1.89zm2.401-1.981a5.163 5.163 0 0 1 5.04 0 8.356 8.356 0 0 1-5.04 0zm-.479-.16c-.597-.261-1.169-.554-1.64-.942h.026a8.34 8.34 0 0 0 3.411-.846c.856.163 1.703.133 2.557-.032.94.489 2.047.779 3.242.845l.034.033c-.504.388-1.043.68-1.64.942a5.554 5.554 0 0 0-5.99 0zm-1.2-1.364c.35-.392.633-.78.858-1.205.47.262.97.488 1.506.654a7.924 7.924 0 0 1-2.364.551zm3.533-.749c.282-.16.537-.361.755-.554.253.193.47.393.757.554a5.649 5.649 0 0 1-1.512 0zm2.619.162c.47-.162.945-.356 1.385-.618.22.426.503.813.82 1.169a6.813 6.813 0 0 1-2.205-.55zm2.963 4.092a5.007 5.007 0 0 0-1.544-1.89c.567-.25 1.1-.581 1.544-.934a8.094 8.094 0 0 0 1.573.934 5.481 5.481 0 0 0-1.573 1.89zm4.953-1.605a8.05 8.05 0 0 1-2.528-.376 5.101 5.101 0 0 1 2.518-.64 5.056 5.056 0 0 1 2.511.64c-.796.259-1.649.376-2.5.376zm.079-1.4v-.01l-.089.005-.091-.005v.01a5.505 5.505 0 0 0-2.9.864c-.598-.261-1.161-.554-1.634-.942a8.13 8.13 0 0 0 3.404-.846c.388.071.757.09 1.13.09v.002l.027-.002.153.014v-.014c.425-.009.851-.04 1.288-.122.92.489 2.022.779 3.218.845l.029.033c-.47.388-1.033.68-1.64.942a5.48 5.48 0 0 0-2.895-.864zm-4.275-.5c.346-.392.632-.78.849-1.205.473.262.944.488 1.486.654a7.624 7.624 0 0 1-2.335.551zm4.307-1.303c.217.193.472.393.717.554-.31.04-.618.048-.93.039a7.559 7.559 0 0 1-.564-.039 3.9 3.9 0 0 0 .565-.419v.014l.212-.15zm1.823.716c.51-.162.946-.356 1.387-.618.226.426.506.813.852 1.169a7.013 7.013 0 0 1-2.24-.55zm3 4.092a5.384 5.384 0 0 0-1.58-1.89 8.28 8.28 0 0 0 1.58-.934c.44.353.978.683 1.542.934a4.964 4.964 0 0 0-1.541 1.89zm2.395-1.981a5.177 5.177 0 0 1 5.047 0 8.378 8.378 0 0 1-5.047 0zm-.474-.16c-.598-.261-1.168-.554-1.64-.942h.037a8.091 8.091 0 0 0 3.372-.846 6.848 6.848 0 0 0 2.586-.032c.946.489 2.051.778 3.248.845l.034.033a7.928 7.928 0 0 1-1.64.942 5.566 5.566 0 0 0-5.997 0zm-1.202-1.364c.351-.392.634-.78.855-1.205.47.262.979.488 1.517.654a8.02 8.02 0 0 1-2.372.551zm3.537-.749c.29-.161.54-.361.757-.554.256.193.475.393.723.554a5.412 5.412 0 0 1-1.48 0zm2.62.162c.468-.162.94-.356 1.385-.618.224.426.506.813.821 1.169a6.784 6.784 0 0 1-2.206-.55zm2.963 4.092a5.004 5.004 0 0 0-1.547-1.89 7.064 7.064 0 0 0 1.547-.934 8.326 8.326 0 0 0 1.579.934 5.4 5.4 0 0 0-1.58 1.89zm2.43-1.981a5.108 5.108 0 0 1 5.011 0 8.262 8.262 0 0 1-5.011 0zm5.483-.16a5.508 5.508 0 0 0-5.962 0c-.59-.261-1.16-.554-1.633-.942a8.069 8.069 0 0 0 3.4-.846c.885.163 1.703.133 2.588-.032.942.489 2.046.778 3.218.845l.03.033c-.474.388-1.011.68-1.64.942zm-7.158-1.364a5.89 5.89 0 0 0 .857-1.205c.47.262.943.488 1.477.654a7.533 7.533 0 0 1-2.334.551zm3.537-.749c.278-.161.533-.361.757-.554.217.193.469.393.721.554a5.399 5.399 0 0 1-1.478 0zm2.583.162c.502-.162.977-.356 1.384-.618.222.426.511.813.855 1.169a7.187 7.187 0 0 1-2.24-.55zm3.278-2.41h1.483c-.063.423-.156.85-.348 1.24a5.813 5.813 0 0 1-1.197-1.172l.062-.067zm.975 1.599a3.87 3.87 0 0 1-.521.808l-.627.623h-.015l-.28-.033c-.447-.424-.826-.877-1.108-1.398a4.873 4.873 0 0 0 1.289-1.176c.35.461.79.851 1.262 1.176zm-1.542-1.598.035.067a4.58 4.58 0 0 1-1.2 1.173 4.08 4.08 0 0 1-.316-1.24h1.481zm-1.864 0c.069.524.191.978.383 1.434a5.539 5.539 0 0 1-1.734.685c-.38-.2-.727-.426-1.045-.685.41-.423.761-.91 1.015-1.434h1.38zm-1.83 0a5.106 5.106 0 0 1-.843 1.178c-.35-.362-.67-.756-.885-1.178h1.728zm-2.14 0a5.467 5.467 0 0 0 1.009 1.434c-.318.259-.695.517-1.1.711-.663-.128-1.332-.354-1.893-.712.183-.455.346-.909.374-1.433h1.61zm-3.471 0h1.487c-.034.422-.156.85-.323 1.24a4.592 4.592 0 0 1-1.19-1.173l.026-.067zm1.013 1.598a6.01 6.01 0 0 1-1.102 1.43h-.068l-.313-.032c-.445-.424-.823-.877-1.075-1.398a5.33 5.33 0 0 0 1.264-1.176c.349.461.79.851 1.294 1.176zm-1.575-1.598.055.067c-.34.457-.718.852-1.195 1.173-.185-.39-.281-.818-.344-1.24h1.484zm-1.865 0c.065.524.187.978.413 1.434a5.692 5.692 0 0 1-1.773.685 6.467 6.467 0 0 1-1.036-.685c.44-.423.79-.91 1.01-1.434h1.386zm-1.8 0c-.215.422-.533.816-.88 1.178a4.983 4.983 0 0 1-.848-1.178h1.729zm-2.175 0a5.508 5.508 0 0 0 1.013 1.434c-.313.259-.694.517-1.074.711-.69-.128-1.359-.354-1.927-.712.224-.455.35-.909.412-1.433h1.576zm-3.468 0h1.514a5.5 5.5 0 0 1-.349 1.24c-.466-.322-.844-.716-1.192-1.173l.027-.067zm1.006 1.598a5.738 5.738 0 0 1-1.103 1.43h-.059l-.286-.032a5.208 5.208 0 0 1-1.102-1.398 5.53 5.53 0 0 0 1.295-1.176c.344.461.752.851 1.255 1.176zm-1.543-1.598.035.067a4.546 4.546 0 0 1-1.206 1.173 4.315 4.315 0 0 1-.311-1.24h1.482zm-1.856 0c.032.524.183.978.374 1.434a5.645 5.645 0 0 1-1.765.685 4.72 4.72 0 0 1-1.007-.685c.406-.423.75-.91 1.007-1.434h1.39zm-1.83 0a5.198 5.198 0 0 1-.85 1.178l-.212-.244v.024c-.263-.299-.51-.611-.686-.958h1.748zm-2.157 0c.25.524.585 1.01 1.008 1.434a5.6 5.6 0 0 1-1.107.711c-.663-.128-1.323-.354-1.893-.712.187-.455.352-.909.377-1.433h1.615zm-3.472 0h1.48c-.03.422-.159.85-.316 1.24a4.495 4.495 0 0 1-1.197-1.173l.033-.067zm.999 1.598a5.777 5.777 0 0 1-1.095 1.43h-.064l-.314-.032c-.44-.424-.82-.877-1.071-1.398a5.41 5.41 0 0 0 1.26-1.176c.378.461.79.851 1.284 1.176zm-1.569-1.598.065.067c-.348.457-.724.852-1.203 1.173a5.59 5.59 0 0 1-.343-1.24h1.482zm-1.86 0c.064.524.19.978.414 1.434a5.79 5.79 0 0 1-1.77.685 6.146 6.146 0 0 1-1.042-.685c.442-.423.794-.91 1.008-1.434h1.39zm-1.795 0c-.223.422-.538.816-.887 1.178a5.129 5.129 0 0 1-.848-1.178h1.735zm-2.178 0a5.618 5.618 0 0 0 1.01 1.434c-.313.259-.696.517-1.073.711a5.679 5.679 0 0 1-1.924-.712 4.4 4.4 0 0 0 .41-1.433h1.577zm-3.438 0h1.487c-.07.422-.188.85-.348 1.24-.474-.322-.854-.716-1.205-1.173l.066-.067zm.975 1.598a5.836 5.836 0 0 1-1.097 1.43h-.069l-.282-.032c-.44-.424-.818-.877-1.102-1.398a5.566 5.566 0 0 0 1.294-1.176c.343.461.783.851 1.256 1.176zm-1.544-1.598.036.067a4.7 4.7 0 0 1-1.198 1.173 4.323 4.323 0 0 1-.32-1.11c.504-.063.979-.093 1.482-.13zm-3.726.784a9.555 9.555 0 0 1 1.868-.585c.092.455.19.845.376 1.235a5.62 5.62 0 0 1-1.767.685c-.382-.2-.72-.426-1.007-.685.187-.227.375-.423.53-.65zm-.813.909c.224.193.47.393.724.554-.5.068-.977.068-1.48 0 .25-.161.503-.361.756-.554zm-1.23-3.572c.221.098 1.132.483.793.84-.793-.291-1.898-.648-2.845-1.038-4.411-1.754-6.587-4.71-8.068-9.164-.35-.972-.697-1.911-.853-2.405-.126-.325-.179-.39-.16-.193.16 1.4.598 3.74 1.168 5.33 1.006 2.795 2.966 4.845 5.58 6.173.822.424 1.859.852 2.397 1.14.567.288.631.387.442.453-.157.033-.598.033-1.294-.165-1.955-.55-3.815-1.393-5.015-3.151-.217-.326-.41-.58-.505-.58-.09.03-.15.32-.09.58.124.55.66.975.22.65a15.383 15.383 0 0 0-.919-.712c-1.224-.878-3.18-.131-3.058.97a.554.554 0 0 0 .412.46c.634.13.915-.46 1.103-.46.479-.06.6.88.572 1.239-.253 1.362-2.495 1.04-3.286-.097-.532-.784-.376-2.275.288-2.956.82-.85 1.896-.328 2.835-.394.692-.063 1.356-.715.692-1.294-.345-.261-.944-.526-1.667-.88-2.148-1.104-3.029-1.824-3.746-4.223-.198-.616-.288-1.3.59-.88 1.042.519 1.39 1.562 1.924 1.949.441.297.761-.063.633-.554-.253-.934-.943-.84-.915-2.11.063-2.857 1.26-3.413-.473-6.303-.188-.36-.253-.617-.16-.684 1.171-.878 3.91 4.613 4.226 5.82-.185 6.142 3.943 10.397 9.179 12.64zm210.995-24.952c0-.582.439-1.038 1.009-1.038.538 0 1.01.456 1.01 1.038 0 1.366-2.019 1.366-2.019 0zm.6-1.596c.163-.189.284-.418.409-.644 0 .194.033.421.1.615a.974.974 0 0 0-.509.03zm2.274.59c-.667 0-1.195-.555-1.195-1.234 0-.685.528-1.236 1.195-1.236.657 0 1.197.551 1.197 1.236 0 .68-.54 1.234-1.197 1.234zm-1.106-2.794c.251-.618.439-1.235.601-1.855.187.52.436 1.008.721 1.496-.471-.067-.944.096-1.322.359zm-6.304-16.275c4.408 1.75 6.586 4.707 8.067 9.158.35.975.696 1.918.853 2.408.126.327.178.392.159.195-.159-1.399-.597-3.74-1.169-5.335-1.005-2.794-2.965-4.837-5.579-6.172-.821-.422-1.862-.846-2.398-1.138-.569-.292-.629-.383-.442-.452.161-.037.601-.037 1.298.16 1.952.551 3.808 1.4 5.009 3.154.22.326.417.582.506.582.091-.029.153-.319.091-.582-.121-.553-.66-.975-.22-.649.189.161.603.483.917.713 1.231.88 3.187.13 3.06-.972a.55.55 0 0 0-.411-.457c-.632-.133-.915.457-1.102.457-.479.064-.599-.879-.572-1.238.256-1.365 2.49-1.042 3.284.093.534.786.374 2.28-.287 2.959-.819.85-1.894.326-2.836.396-.691.063-1.356.715-.691 1.294.346.262.945.522 1.667.881 2.147 1.102 3.032 1.822 3.747 4.22.195.617.289 1.302-.591.88-1.04-.518-1.391-1.562-1.926-1.948-.439-.293-.759.064-.631.551.254.938.944.84.916 2.112-.063 2.861-1.262 3.412.471 6.305.187.36.252.613.161.681-1.169.877-3.911-4.613-4.226-5.816.187-6.146-3.943-10.398-9.176-12.64-.224-.1-1.136-.483-.798-.841.798.29 1.899.648 2.849 1.04zM139.362 8.99a5.66 5.66 0 0 1 1.481 0 6.74 6.74 0 0 0-.72.555c-.255-.192-.477-.392-.761-.555zm.476.816-.096.095c-.125-.13-.224-.293-.349-.423.16.102.289.23.445.328zm.285.258c.346.361.625.75.849 1.176h-.25a28.162 28.162 0 0 0-.757-1.047l.158-.13zm.277-.258c.322-.261.666-.523 1.073-.713.7.127 1.328.352 1.898.713a5.136 5.136 0 0 0-.382 1.434h-1.576a5.397 5.397 0 0 0-1.013-1.434zm1.64-1.01a8.019 8.019 0 0 1 2.367-.552 6.11 6.11 0 0 0-.851 1.201 7.759 7.759 0 0 0-1.516-.648zM143.715 10c.471.323.852.713 1.196 1.173l-.063.069h-1.477c.061-.426.152-.85.344-1.242zm.156-.36a5.273 5.273 0 0 1 1.103-1.427h.06l.285.033c.444.424.824.877 1.107 1.395a5.054 5.054 0 0 0-1.289 1.175 5.622 5.622 0 0 0-1.266-1.175zm2.715.36c.157.392.287.816.314 1.242h-1.484l-.03-.069c.318-.46.728-.85 1.2-1.173zm.157-.553a5.03 5.03 0 0 0-.854-1.17 6.957 6.957 0 0 1 2.239.556c-.502.16-.977.353-1.385.614zm1.887-.324c.381.198.729.424 1.047.685a5.364 5.364 0 0 0-1.01 1.434h-1.388c-.035-.529-.196-.979-.379-1.434a5.44 5.44 0 0 1 1.73-.685zm.606-.13c.283-.031.564-.066.848-.066.22 0 .412.035.636.065-.293.163-.511.363-.763.555a6.654 6.654 0 0 0-.721-.555zm.721 1.072c.347.362.668.751.892 1.177h-1.739a4.93 4.93 0 0 1 .847-1.176zm.288-.257a4.935 4.935 0 0 1 1.105-.713c.693.127 1.322.352 1.889.713-.19.455-.316.905-.377 1.434h-1.609a5.471 5.471 0 0 0-1.008-1.434zm1.669-1.01a7.79 7.79 0 0 1 2.333-.552c-.315.39-.632.78-.853 1.201a6.876 6.876 0 0 0-1.48-.648zM153.552 10c.471.323.882.713 1.2 1.173l-.029.069h-1.484c.029-.426.155-.85.313-1.242zm.164-.36a5.734 5.734 0 0 1 1.099-1.427h.095l.284.033c.437.424.82.877 1.072 1.395-.473.331-.912.717-1.26 1.175-.346-.458-.793-.844-1.29-1.175zm2.707.36c.191.392.285.816.348 1.242h-1.481l-.067-.069c.347-.46.763-.85 1.2-1.173zm.157-.553a5.944 5.944 0 0 0-.819-1.17 6.736 6.736 0 0 1 2.203.556c-.471.16-.942.353-1.384.614zm1.927-.324c.373.197.722.424 1.034.685a5.577 5.577 0 0 0-1.004 1.434h-1.388a5.46 5.46 0 0 0-.378-1.434c.504-.328 1.102-.55 1.736-.685zm.597-.13a5.684 5.684 0 0 1 1.484 0 4.772 4.772 0 0 0-.76.554 6.41 6.41 0 0 0-.724-.555zm.724 1.072c.349.362.633.751.852 1.177h-1.731c.217-.426.531-.815.879-1.176zm.287-.257a5.865 5.865 0 0 1 1.069-.713c.695.127 1.356.352 1.926.713-.219.455-.35.905-.411 1.434h-1.574a5.55 5.55 0 0 0-1.01-1.434zm1.638-1.01a7.938 7.938 0 0 1 2.367-.552c-.348.39-.636.78-.857 1.201a7.705 7.705 0 0 0-1.51-.648zM163.427 10c.47.323.878.713 1.196 1.173l-.034.069h-1.479c.026-.426.153-.85.317-1.242zm.152-.36a6.054 6.054 0 0 1 1.11-1.427h.059l.283.033a5.34 5.34 0 0 1 1.11 1.395 4.992 4.992 0 0 0-1.268 1.175 5.612 5.612 0 0 0-1.294-1.175zm2.713.36c.157.392.287.816.316 1.242h-1.482l-.032-.069c.317-.46.725-.85 1.198-1.173zm.157-.553a4.955 4.955 0 0 0-.85-1.17 6.846 6.846 0 0 1 2.242.556c-.507.16-.945.353-1.392.614zm1.927-.324c.374.197.725.424 1.043.685a4.722 4.722 0 0 0-1.043 1.434h-1.355a4.439 4.439 0 0 0-.413-1.434 5.576 5.576 0 0 1 1.768-.685zm.562-.13c.287-.031.572-.066.854-.066.224 0 .444.035.631.065-.251.163-.504.363-.755.555-.218-.192-.443-.392-.73-.555zm.73 1.072c.378.362.664.751.883 1.177h-1.733a5.03 5.03 0 0 1 .85-1.177zm.285-.257c.343-.261.691-.523 1.101-.713.695.127 1.327.352 1.893.713-.19.455-.31.905-.381 1.434h-1.605a4.298 4.298 0 0 0-1.008-1.434zm1.667-1.01a8.023 8.023 0 0 1 2.371-.552c-.348.39-.634.78-.854 1.201a7.768 7.768 0 0 0-1.517-.648zM173.294 10c.439.323.848.713 1.197 1.173l-.059.069h-1.485c.062-.426.157-.85.347-1.242zm.16-.36a4.686 4.686 0 0 1 1.106-1.427h.059l.281.033c.443.424.822.877 1.106 1.395-.504.331-.948.717-1.29 1.175-.35-.458-.793-.844-1.262-1.175zm2.709.36c.161.392.284.816.317 1.242h-1.485l-.032-.069c.316-.46.723-.85 1.2-1.173zm.161-.553a5.214 5.214 0 0 0-.855-1.17 7.232 7.232 0 0 1 2.242.556c-.507.16-.98.353-1.387.614zm1.889-.324c.38.197.726.424 1.044.685-.411.422-.76.905-1.014 1.434h-1.383a5.204 5.204 0 0 0-.38-1.434 5.448 5.448 0 0 1 1.733-.685zm.597-.13a5.684 5.684 0 0 1 1.484 0c-.283.162-.54.362-.758.553a6.175 6.175 0 0 0-.726-.554zm.726 1.072c.353.362.669.751.88 1.177h-1.728a5.05 5.05 0 0 1 .848-1.177zm.286-.257a5.264 5.264 0 0 1 1.1-.713c.665.127 1.331.352 1.89.713-.18.455-.341.905-.37 1.434h-1.61a5.408 5.408 0 0 0-1.01-1.434zm1.671-1.01a7.534 7.534 0 0 1 2.335-.552c-.35.39-.631.78-.855 1.201a7.62 7.62 0 0 0-1.48-.648zM183.136 10c.469.323.882.713 1.193 1.173l-.028.069h-1.489c.036-.426.161-.85.324-1.242zm.153-.36a6.041 6.041 0 0 1 1.101-1.427h.073l.307.033c.446.424.825.877 1.079 1.395-.474.331-.918.717-1.262 1.175a5.233 5.233 0 0 0-1.298-1.175zm2.051-1.362a6.786 6.786 0 0 1 2.206.555c-.467.16-.938.353-1.385.614a6.173 6.173 0 0 0-.821-1.17zm.661 1.722c.19.392.285.816.35 1.242h-1.488l-.057-.069c.344-.46.722-.85 1.195-1.173zm.316-.192a5.636 5.636 0 0 1 1.772-.685 6.16 6.16 0 0 1 1.035.685 4.281 4.281 0 0 0-1.007 1.434h-1.388a4.364 4.364 0 0 0-.412-1.434zm2.369-.816a5.652 5.652 0 0 1 1.48 0 4.787 4.787 0 0 0-.757.555c-.257-.192-.474-.392-.723-.555zm.723 1.073c.348.362.63.751.851 1.177h-1.731c.215-.426.532-.815.88-1.177zm.283-.257a5.617 5.617 0 0 1 1.075-.713c.689.127 1.358.352 1.924.713a4.267 4.267 0 0 0-.409 1.434h-1.581a5.382 5.382 0 0 0-1.009-1.434zm1.638-1.01a7.986 7.986 0 0 1 2.371-.552c-.35.39-.633.78-.855 1.201a7.681 7.681 0 0 0-1.516-.648zM193.005 10c.469.323.846.713 1.195 1.173l-.03.069h-1.513c.066-.426.189-.85.348-1.242zm.159-.36a5.798 5.798 0 0 1 1.103-1.427h.062l.286.033c.466.424.817.877 1.101 1.395a5.79 5.79 0 0 0-1.296 1.175 4.873 4.873 0 0 0-1.256-1.175zm2.715.36c.156.392.282.816.312 1.242h-1.484l-.033-.069c.317-.46.73-.85 1.205-1.173zm.156-.553a5.2 5.2 0 0 0-.852-1.17 7.01 7.01 0 0 1 2.239.556c-.508.16-.943.353-1.387.614zm1.921-.324a4.6 4.6 0 0 1 1.007.685 5.515 5.515 0 0 0-1.007 1.434h-1.39c-.034-.529-.184-.98-.375-1.434a5.597 5.597 0 0 1 1.765-.685zm1.29.423a6.63 6.63 0 0 0-.719-.554c.313-.04.62-.049.931-.037.186.008.371.016.566.037-.215.126-.393.276-.566.417v-.013l-.212.15zm0 .52.212.238v-.018c.263.3.51.614.683.956H198.4c.221-.426.5-.815.846-1.177zm.299-.258a5.224 5.224 0 0 1 1.105-.713c.668.127 1.326.352 1.894.713-.185.455-.352.905-.375 1.434h-1.616a5.161 5.161 0 0 0-1.008-1.434zm1.671-1.01c.7-.29 1.488-.486 2.334-.552-.343.39-.631.78-.846 1.201a7.433 7.433 0 0 0-1.488-.648zM202.861 10c.472.323.886.713 1.196 1.173l-.034.069h-1.479c.029-.426.16-.85.317-1.242zm.162-.36a5.71 5.71 0 0 1 1.099-1.427h.065l.31.033c.44.424.822.877 1.071 1.395-.469.331-.914.717-1.26 1.175a5.892 5.892 0 0 0-1.285-1.175zm2.045-1.362a6.793 6.793 0 0 1 2.204.555 7.33 7.33 0 0 0-1.386.614 5.856 5.856 0 0 0-.818-1.17zm.664 1.722c.154.392.281.816.343 1.242h-1.48l-.066-.069c.344-.46.725-.85 1.203-1.173zm.31-.192a5.681 5.681 0 0 1 1.77-.685 6.07 6.07 0 0 1 1.043.685c-.445.421-.797.905-1.01 1.434h-1.391a4.293 4.293 0 0 0-.412-1.434zm2.333-.816a5.939 5.939 0 0 1 1.517 0c-.283.163-.54.363-.76.554-.249-.191-.468-.39-.757-.554zm.757 1.073c.35.362.633.751.856 1.177h-1.739c.229-.426.538-.815.883-1.177zm.286-.257a5.847 5.847 0 0 1 1.071-.713 5.582 5.582 0 0 1 1.925.713 4.411 4.411 0 0 0-.411 1.434h-1.575a5.598 5.598 0 0 0-1.01-1.434zm1.639-1.01a7.939 7.939 0 0 1 2.366-.552c-.35.39-.631.78-.858 1.201a7.585 7.585 0 0 0-1.508-.648zM212.723 10a5.06 5.06 0 0 1 1.206 1.173l-.062.069h-1.488c.067-.426.186-.85.344-1.242zm.166-.36a5.993 5.993 0 0 1 1.096-1.427h.07l.284.033c.439.424.819.877 1.1 1.395a5.864 5.864 0 0 0-1.293 1.175c-.341-.458-.786-.844-1.257-1.175zm2.708.36a4.4 4.4 0 0 1 .319 1.107c-.504.066-.978.095-1.486.135l-.032-.069c.32-.46.728-.85 1.199-1.173zm.159-.553a4.96 4.96 0 0 0-.851-1.17 6.99 6.99 0 0 1 2.24.556c-.508.16-.943.353-1.389.614zm1.928-.324c.381.197.722.423 1.009.685-.19.229-.379.421-.536.645-.6.26-1.231.46-1.865.586-.09-.45-.189-.844-.376-1.231a5.595 5.595 0 0 1 1.768-.685zm.565-.13c.5-.066.98-.066 1.479 0-.249.162-.499.362-.757.553a6.569 6.569 0 0 0-.722-.554zm3.182-2.339-.029.163a5.074 5.074 0 0 1-4.824-.097c1.579-.517 3.28-.517 4.853-.066zm-.155.653c-.126.423-.314.81-.532 1.14-.16.06-.318.127-.446.223-.89-.162-1.702-.135-2.585.032-.913-.49-2.023-.783-3.216-.844l-.032-.037c.473-.385 1.041-.677 1.638-.94a5.548 5.548 0 0 0 5.173.426zm-7.13-2.565a5.448 5.448 0 0 0 1.582 1.888c-.57.25-1.105.581-1.582.936a6.927 6.927 0 0 0-1.544-.937 4.967 4.967 0 0 0 1.544-1.887zm-2.402 1.978a5.144 5.144 0 0 1-5.038 0 8.377 8.377 0 0 1 5.038 0zm.48.16c.596.264 1.167.556 1.643.94h-.029a8.452 8.452 0 0 0-3.41.85c-.857-.162-1.705-.135-2.558.032-.941-.49-2.049-.783-3.244-.844l-.031-.037c.504-.385 1.043-.677 1.639-.94a5.54 5.54 0 0 0 5.99 0zm-7.916-2.138a5.03 5.03 0 0 0 1.547 1.888 7.089 7.089 0 0 0-1.547.936 8.035 8.035 0 0 0-1.574-.937 5.502 5.502 0 0 0 1.574-1.887zm-4.952 1.6a8.248 8.248 0 0 1 2.53.378 5.05 5.05 0 0 1-2.519.638 5.007 5.007 0 0 1-2.515-.638 8.2 8.2 0 0 1 2.504-.377zm-.079 1.4v.01h.181v-.01a5.483 5.483 0 0 0 2.901-.862c.598.264 1.158.556 1.637.94a8.207 8.207 0 0 0-3.407.85c-.39-.07-.76-.09-1.131-.09v-.003h-.028l-.153-.013v.015a7.605 7.605 0 0 0-1.288.123c-.919-.49-2.021-.783-3.215-.844l-.031-.037c.471-.385 1.036-.677 1.639-.94.883.568 1.889.848 2.895.861zm-4.857-3a5.4 5.4 0 0 0 1.584 1.888 8.205 8.205 0 0 0-1.584.936 6.974 6.974 0 0 0-1.541-.937 4.959 4.959 0 0 0 1.541-1.887zm-2.392 1.978a5.16 5.16 0 0 1-5.046 0 8.403 8.403 0 0 1 5.046 0zm.472.16c.6.264 1.169.556 1.64.94h-.031a8.194 8.194 0 0 0-3.376.85 6.833 6.833 0 0 0-2.587.032c-.946-.49-2.049-.783-3.248-.844l-.035-.037a8.34 8.34 0 0 1 1.64-.94 5.552 5.552 0 0 0 5.997 0zm-7.913-2.138c.344.743.88 1.391 1.542 1.888a6.823 6.823 0 0 0-1.542.936 8.342 8.342 0 0 0-1.582-.937 5.491 5.491 0 0 0 1.582-1.887zm-2.435 1.978a5.093 5.093 0 0 1-5.011 0 8.29 8.29 0 0 1 5.011 0zm.48.16c.589.264 1.162.556 1.634.94a8.193 8.193 0 0 0-3.403.85c-.883-.162-1.701-.135-2.585.032-.942-.49-2.049-.783-3.22-.844l-.026-.037c.47-.385 1.009-.677 1.64-.94a5.49 5.49 0 0 0 5.96 0zm-7.916-2.138a5.388 5.388 0 0 0 1.576 1.888c-.606.25-1.103.581-1.576.936-.475-.355-.983-.686-1.552-.937a5.015 5.015 0 0 0 1.552-1.887zm-4.924 1.592c.884 0 1.736.124 2.521.386a5.179 5.179 0 0 1-2.521.649 5.085 5.085 0 0 1-2.52-.649 8.02 8.02 0 0 1 2.52-.386zm0 1.425a5.63 5.63 0 0 0 2.997-.879 7.978 7.978 0 0 1 1.643.94h-.034a8.343 8.343 0 0 0-3.407.85c-.378-.064-.79-.135-1.199-.135-.473 0-.916.07-1.385.167-.919-.49-2.021-.783-3.216-.844l-.033-.037c.474-.385 1.041-.677 1.639-.94a5.572 5.572 0 0 0 2.995.878zm-4.947-3.017a5.428 5.428 0 0 0 1.575 1.888c-.57.25-1.102.581-1.547.936a8.11 8.11 0 0 0-1.576-.937 5.061 5.061 0 0 0 1.548-1.887zm-2.398 1.978c-1.58.879-3.434.879-5.048 0a8.41 8.41 0 0 1 5.048 0zm.475.16c.598.264 1.167.556 1.637.94h-.031a8.173 8.173 0 0 0-3.374.85c-.884-.162-1.705-.135-2.587.032-.947-.49-2.051-.783-3.25-.844l-.027-.037c.503-.385 1.042-.677 1.638-.94a5.547 5.547 0 0 0 5.994 0zm-7.916-2.138a5.039 5.039 0 0 0 1.543 1.888 7.847 7.847 0 0 0-1.543.936c-.473-.355-.983-.686-1.575-.937a5.46 5.46 0 0 0 1.575-1.887zm-2.43 1.978a5.1 5.1 0 0 1-5.015 0 8.302 8.302 0 0 1 5.015 0zm.473.16c.63.264 1.164.556 1.639.94a8.204 8.204 0 0 0-3.403.85c-.417-.064-.789-.135-1.201-.135-.472 0-.945.07-1.388.167-.947-.49-2.02-.783-3.215-.844l-.026-.037c.466-.385 1.036-.677 1.628-.94a5.5 5.5 0 0 0 5.966 0zm-7.912-2.138a5.38 5.38 0 0 0 1.577 1.888 8.118 8.118 0 0 0-1.577.936c-.477-.355-.983-.686-1.546-.937a5.085 5.085 0 0 0 1.546-1.887zm-2.398 1.978a5.154 5.154 0 0 1-5.043 0 8.393 8.393 0 0 1 5.043 0zm-5.52.16a5.543 5.543 0 0 0 5.992 0c.601.264 1.137.556 1.637.94h-.031a8.49 8.49 0 0 0-3.404.85c-.853-.162-1.701-.135-2.557.032l-.25-.096a18.87 18.87 0 0 0-1.611-1.624l.224-.102zm-1.918-2.138a4.975 4.975 0 0 0 1.54 1.888l-.156.09c-.57-.488-1.138-.94-1.736-1.397.127-.164.215-.357.352-.581zm-34.633 0c.124.224.22.417.35.581-.602.457-1.164.91-1.733 1.397l-.165-.09a4.954 4.954 0 0 0 1.548-1.888zm-2.397 1.978a5.154 5.154 0 0 1-5.043 0 8.394 8.394 0 0 1 5.043 0zm.475.16.219.102c-.566.522-1.102 1.035-1.605 1.624l-.251.096c-.852-.167-1.707-.194-2.557-.032a8.331 8.331 0 0 0-3.403-.85h-.034c.502-.384 1.04-.676 1.64-.94a5.542 5.542 0 0 0 5.991 0zm-2.901 2.666a7.012 7.012 0 0 0-.724-.554 5.688 5.688 0 0 1 1.484 0c-.287.163-.503.363-.76.554zm.726-.066c-.127.13-.221.294-.347.423l-.098-.095c.159-.097.29-.226.445-.328zm-78.256-.357c.63.135 1.233.357 1.77.685-.19.387-.285.78-.381 1.231a9.359 9.359 0 0 1-1.863-.586c-.155-.223-.344-.416-.532-.645a4.67 4.67 0 0 1 1.006-.685zm-1.289.423c-.255-.191-.505-.39-.757-.554a5.681 5.681 0 0 1 1.483 0c-.255.163-.5.363-.726.554zm1.828-.713a7.002 7.002 0 0 1 2.24-.555 4.964 4.964 0 0 0-.85 1.17 6.461 6.461 0 0 0-1.39-.615zm1.548 1.167c.473.323.88.713 1.2 1.173l-.035.069c-.503-.04-.98-.069-1.482-.135.064-.394.16-.749.317-1.107zm.155-.36c.284-.517.662-.97 1.104-1.394l.283-.033h.068c.44.423.82.91 1.099 1.428-.473.331-.916.717-1.258 1.175a5.775 5.775 0 0 0-1.296-1.175zm2.02-1.394a7.94 7.94 0 0 1 2.364.553 7.784 7.784 0 0 0-1.51.648 6.14 6.14 0 0 0-.854-1.2zM23.273 10a5.6 5.6 0 0 1 .345 1.242h-1.482l-.067-.069c.35-.46.732-.85 1.204-1.173zm.31-.192a5.629 5.629 0 0 1 1.921-.713c.383.19.761.451 1.078.713a5.51 5.51 0 0 0-1.01 1.434h-1.58a4.37 4.37 0 0 0-.408-1.434zm2.525-.816a5.918 5.918 0 0 1 1.514 0c-.287.163-.505.363-.76.554a4.815 4.815 0 0 0-.754-.554zm.754 1.073c.35.362.662.751.887 1.177h-1.738c.226-.426.508-.815.851-1.177zm.287-.257a5.74 5.74 0 0 1 1.042-.685 5.7 5.7 0 0 1 1.766.685c-.22.455-.348.905-.411 1.434h-1.392a4.226 4.226 0 0 0-1.006-1.434zm1.576-.975a6.85 6.85 0 0 1 2.208-.555 6.187 6.187 0 0 0-.823 1.17 7.185 7.185 0 0 0-1.385-.615zm1.544 1.167c.475.323.853.713 1.2 1.173l-.065.069h-1.478c.06-.426.184-.85.343-1.242zm.159-.36c.253-.517.631-.97 1.074-1.394l.309-.033h.065c.445.423.821.91 1.1 1.428-.495.331-.91.717-1.284 1.175-.347-.458-.791-.844-1.264-1.175zm2.713.36c.157.392.284.816.312 1.242h-1.479l-.033-.069c.313-.46.729-.85 1.2-1.173zm.157-.553a6.05 6.05 0 0 0-.852-1.2 7.588 7.588 0 0 1 2.336.552 7.374 7.374 0 0 0-1.484.648zm2.052-.352c.408.19.788.451 1.1.713a5.186 5.186 0 0 0-1.006 1.434H33.83c-.022-.529-.186-.98-.377-1.434.57-.36 1.232-.586 1.897-.713zm.629-.103a6.06 6.06 0 0 1 1.465 0c-.249.163-.495.36-.72.552a4.58 4.58 0 0 0-.745-.552zm.744 1.087v-.006c.345.358.629.748.847 1.169h-1.712c.216-.42.523-.81.865-1.163zm.281-.271c.28-.262.658-.488 1.006-.685.63.135 1.233.357 1.766.685-.193.455-.348.905-.38 1.434H38.01a5.494 5.494 0 0 0-1.006-1.434zm1.544-.975a6.998 6.998 0 0 1 2.237-.555 5.029 5.029 0 0 0-.846 1.17c-.418-.262-.89-.456-1.391-.615zm1.543 1.167c.473.323.882.713 1.198 1.173l-.03.069h-1.483c.032-.426.163-.85.315-1.242zm.158-.36a5.926 5.926 0 0 1 1.104-1.394l.288-.033h.058c.476.423.82.91 1.108 1.428-.475.331-.918.717-1.261 1.175a5.843 5.843 0 0 0-1.297-1.175zm2.02-1.394c.85.066 1.638.262 2.36.553a8.008 8.008 0 0 0-1.51.648 6.16 6.16 0 0 0-.85-1.2zM42.964 10c.154.392.278.816.344 1.242h-1.482l-.065-.069c.346-.46.727-.85 1.203-1.173zm.315-.192a5.536 5.536 0 0 1 1.921-.713c.376.19.755.451 1.072.713-.41.421-.758.905-1.01 1.434h-1.58a4.318 4.318 0 0 0-.403-1.434zm2.523-.816a5.849 5.849 0 0 1 1.505 0c-.276.163-.5.363-.755.554a5.18 5.18 0 0 0-.75-.554zm.75 1.073c.381.362.66.751.884 1.177h-1.733a5.27 5.27 0 0 1 .85-1.177zm.289-.257c.316-.262.659-.488 1.038-.685.631.135 1.23.357 1.76.685a4.467 4.467 0 0 0-.406 1.434H47.85a4.37 4.37 0 0 0-1.01-1.434zm1.576-.975c.66-.298 1.42-.49 2.207-.555-.32.358-.596.748-.823 1.17a7.152 7.152 0 0 0-1.384-.615zm1.545 1.167c.468.323.85.713 1.196 1.173l-.059.069h-1.488c.064-.426.19-.85.351-1.242zm.159-.36c.25-.517.627-.97 1.07-1.394l.317-.033h.059c.441.423.823.91 1.108 1.428a5.754 5.754 0 0 0-1.296 1.175c-.347-.458-.793-.844-1.258-1.175zm2.706.36c.162.392.287.816.324 1.242H51.67l-.037-.069c.31-.46.722-.85 1.195-1.173zm.162-.553a5.854 5.854 0 0 0-.853-1.2 7.56 7.56 0 0 1 2.337.552 7.684 7.684 0 0 0-1.484.648zm2.05-.352c.407.19.787.451 1.103.713-.41.421-.763.905-1.01 1.434h-1.615c-.026-.529-.183-.98-.366-1.434.566-.36 1.224-.586 1.888-.713zm.632-.103c.5-.065.975-.065 1.481 0a6.63 6.63 0 0 0-.725.554 5.02 5.02 0 0 0-.756-.554zm.756 1.073c.345.362.635.751.88 1.177h-1.767c.257-.426.539-.815.887-1.177zm.28-.257a6.216 6.216 0 0 1 1.041-.685 5.462 5.462 0 0 1 1.737.685 5.214 5.214 0 0 0-.38 1.434H57.72a5.376 5.376 0 0 0-1.012-1.434zm1.545-.975a7.257 7.257 0 0 1 2.237-.555 5.092 5.092 0 0 0-.847 1.17c-.413-.262-.883-.456-1.39-.615zM59.8 9.999c.477.323.883.713 1.231 1.173l-.066.069h-1.48c.065-.426.158-.85.315-1.242zm.189-.36c.252-.517.63-.97 1.071-1.394l.285-.033h.057c.48.423.86.91 1.11 1.428-.475.331-.915.717-1.26 1.175-.343-.458-.79-.844-1.263-1.175zm2.715.36c.154.392.25.816.31 1.242h-1.477l-.065-.069c.352-.46.756-.85 1.232-1.173zm.154-.553a7.531 7.531 0 0 0-.88-1.2 8.069 8.069 0 0 1 2.369.552 6.887 6.887 0 0 0-1.489.648zm2.048-.352c.412.19.761.451 1.105.713A4.355 4.355 0 0 0 65 11.24h-1.607a4.855 4.855 0 0 0-.38-1.434c.572-.36 1.204-.586 1.892-.713zm.633-.103c.195-.03.408-.065.631-.065.283 0 .57.035.856.065-.286.163-.507.363-.728.554-.256-.191-.507-.39-.76-.554zm.759 1.073c.347.362.63.751.85 1.177h-1.732c.222-.426.5-.815.882-1.177zm.281-.257a4.703 4.703 0 0 1 1.011-.685 5.686 5.686 0 0 1 1.767.685c-.193.455-.346.905-.38 1.434H67.59a5.286 5.286 0 0 0-1.01-1.434zm1.546-.975a6.804 6.804 0 0 1 2.24-.555c-.346.358-.63.748-.847 1.17a6.453 6.453 0 0 0-1.393-.615zm1.548 1.167c.474.323.884.713 1.2 1.173l-.03.069h-1.486c.034-.426.16-.85.316-1.242zm.155-.36a5.213 5.213 0 0 1 1.106-1.394l.278-.033h.068c.442.423.82.91 1.1 1.428-.5.331-.906.717-1.255 1.175a5.847 5.847 0 0 0-1.297-1.175zm2.015-1.394a8.02 8.02 0 0 1 2.371.553 7.918 7.918 0 0 0-1.518.648c-.22-.421-.5-.81-.853-1.2zM72.535 10c.161.392.29.816.355 1.242h-1.517l-.033-.069c.32-.46.725-.85 1.195-1.173zm.32-.192c.567-.36 1.23-.586 1.926-.713.38.19.754.451 1.073.713a5.302 5.302 0 0 0-1.01 1.434H73.27a4.446 4.446 0 0 0-.413-1.434zm2.525-.816a5.642 5.642 0 0 1 1.478 0 6.2 6.2 0 0 0-.72.554 5.002 5.002 0 0 0-.758-.554zm.758 1.073c.345.362.664.751.882 1.177h-1.738c.224-.426.506-.815.856-1.177zm.28-.257a5.827 5.827 0 0 1 1.045-.685c.627.136 1.228.357 1.733.685a5.137 5.137 0 0 0-.376 1.434h-1.385a4.904 4.904 0 0 0-1.017-1.434zm1.577-.975a6.805 6.805 0 0 1 2.207-.555 5.851 5.851 0 0 0-.817 1.17 7.375 7.375 0 0 0-1.39-.615zm1.547 1.167c.44.323.85.713 1.202 1.173l-.07.069h-1.478c.06-.426.16-.85.346-1.242zm.16-.36c.251-.517.63-.97 1.068-1.394l.32-.033h.062c.44.423.817.91 1.098 1.428-.496.331-.941.717-1.29 1.175-.347-.458-.79-.844-1.258-1.175zm2.71.36c.158.392.285.816.315 1.242h-1.48l-.035-.069c.316-.46.727-.85 1.2-1.173zm.158-.553c-.223-.421-.538-.81-.854-1.2.826.065 1.64.26 2.339.552a6.811 6.811 0 0 0-1.485.648zm2.047-.352c.41.19.793.451 1.104.713a5.574 5.574 0 0 0-1.008 1.434h-1.608c-.028-.529-.189-.979-.378-1.434.564-.36 1.198-.586 1.89-.713zm.632-.103c.22-.03.442-.065.662-.065.28 0 .54.035.82.065-.25.163-.503.363-.725.555-.251-.192-.473-.392-.757-.555zm.757 1.073c.346.362.633.751.849 1.177h-1.729c.218-.426.534-.815.88-1.177zm.285-.257c.317-.261.66-.488 1.039-.685.63.136 1.2.357 1.734.685a5.284 5.284 0 0 0-.377 1.434h-1.389a5.574 5.574 0 0 0-1.007-1.434zm1.547-.975a7.193 7.193 0 0 1 2.238-.555 5.136 5.136 0 0 0-.856 1.17c-.403-.262-.877-.456-1.382-.615zm1.54 1.167c.476.323.886.713 1.201 1.173l-.033.069h-1.482c.034-.426.156-.85.313-1.242zm.155-.36c.29-.517.666-.97 1.106-1.394l.288-.033h.062c.475.423.85.91 1.102 1.428a5.685 5.685 0 0 0-1.264 1.175 4.967 4.967 0 0 0-1.294-1.175zm2.721.36c.185.392.279.816.347 1.242h-1.486l-.06-.069c.345-.46.757-.85 1.2-1.173zm.152-.553a5.9 5.9 0 0 0-.849-1.2c.849.065 1.64.26 2.365.552a7.823 7.823 0 0 0-1.516.648zm2.084-.352c.408.19.755.452 1.102.713-.434.422-.788.905-1.007 1.434h-1.61a5.105 5.105 0 0 0-.374-1.434c.563-.36 1.197-.586 1.89-.713zm1.355.97.159.13c-.254.362-.507.683-.759 1.047h-.25c.224-.426.502-.815.85-1.177zm-5.018-5.323a5.075 5.075 0 0 0 1.55 1.888 8.034 8.034 0 0 0-1.55.936 8.035 8.035 0 0 0-1.574-.936 5.377 5.377 0 0 0 1.574-1.888zM88.4 6.719a5.099 5.099 0 0 1-5.014 0 8.3 8.3 0 0 1 5.014 0zm.475.16c.63.265 1.168.556 1.642.94l-.034.038c-1.166.061-2.272.355-3.22.844a6.488 6.488 0 0 0-1.353-.167c-.443 0-.82.07-1.23.135a8.174 8.174 0 0 0-3.402-.85c.475-.384 1.005-.675 1.637-.94a5.49 5.49 0 0 0 5.96 0zM80.96 4.741c.38.743.918 1.391 1.582 1.888a8.104 8.104 0 0 0-1.582.936c-.475-.355-.978-.686-1.543-.936A5.082 5.082 0 0 0 80.96 4.74zm-2.397 1.978a5.158 5.158 0 0 1-5.045 0 8.4 8.4 0 0 1 5.045 0zm.47.16a7.795 7.795 0 0 1 1.641.94l-.029.038c-1.198.061-2.302.355-3.245.844a6.847 6.847 0 0 0-2.59-.032 8.183 8.183 0 0 0-3.372-.85h-.029c.471-.384 1.038-.675 1.636-.94a5.537 5.537 0 0 0 5.988 0zm-7.908-2.138c.349.743.879 1.391 1.542 1.888a6.97 6.97 0 0 0-1.542.936 8.271 8.271 0 0 0-1.58-.936 5.44 5.44 0 0 0 1.58-1.888zM66.17 6.333c.882 0 1.736.125 2.528.386a5.136 5.136 0 0 1-2.528.649 5.168 5.168 0 0 1-2.52-.649 7.987 7.987 0 0 1 2.52-.386zm0 1.425a5.55 5.55 0 0 0 2.994-.879c.603.265 1.168.556 1.638.94l-.03.038c-1.196.061-2.303.355-3.214.844a6.567 6.567 0 0 0-1.388-.167c-.41 0-.817.07-1.197.135a8.344 8.344 0 0 0-3.41-.85h-.026c.5-.384 1.04-.675 1.638-.94a5.64 5.64 0 0 0 2.995.879zM61.253 4.74a5.673 5.673 0 0 0 1.541 1.888c-.566.25-1.07.581-1.541.936-.473-.355-.976-.686-1.577-.936a5.407 5.407 0 0 0 1.577-1.888zm-2.434 1.978a5.091 5.091 0 0 1-5.01 0 8.287 8.287 0 0 1 5.01 0zm.51.16c.594.265 1.133.556 1.61.94l-.03.038c-1.169.061-2.274.355-3.22.844-.885-.167-1.703-.194-2.589-.032a8.211 8.211 0 0 0-3.403-.85c.471-.384 1.038-.675 1.638-.94 1.828 1.173 4.134 1.173 5.994 0zm-7.95-2.138a5.525 5.525 0 0 0 1.576 1.888 8.232 8.232 0 0 0-1.575.936 7.075 7.075 0 0 0-1.541-.936 5.041 5.041 0 0 0 1.54-1.888zm-2.393 1.978a5.156 5.156 0 0 1-5.044 0 8.397 8.397 0 0 1 5.044 0zm.472.16c.598.265 1.167.556 1.642.94l-.031.038c-1.198.061-2.308.355-3.252.844-.85-.167-1.704-.194-2.554-.032a8.507 8.507 0 0 0-3.408-.85h-.028c.471-.384 1.043-.675 1.636-.94a5.549 5.549 0 0 0 5.995 0zm-7.912-2.138c.343.743.88 1.391 1.535 1.888a7.01 7.01 0 0 0-1.535.936 8.233 8.233 0 0 0-1.58-.936 5.47 5.47 0 0 0 1.58-1.888zm-4.839 1.6c.82.006 1.637.131 2.407.378a5.124 5.124 0 0 1-2.408.648 5.191 5.191 0 0 1-2.593-.648 8.195 8.195 0 0 1 2.594-.378zm-.059 1.41v.007l.056-.007h.02a5.5 5.5 0 0 0 2.86-.872c.602.265 1.168.556 1.642.94l-.033.038c-1.195.061-2.268.355-3.216.844a7.307 7.307 0 0 0-1.254-.13v-.008l-.043.006-.032-.006v.009a6.3 6.3 0 0 0-1.239.097 8.211 8.211 0 0 0-3.404-.85c.476-.384 1.04-.675 1.64-.94a5.52 5.52 0 0 0 3.003.872zm-4.956-3.01c.374.743.92 1.391 1.572 1.888a8.024 8.024 0 0 0-1.572.936 7.116 7.116 0 0 0-1.547-.936 5.017 5.017 0 0 0 1.547-1.888zm-2.395 1.978a5.156 5.156 0 0 1-5.045 0 8.397 8.397 0 0 1 5.045 0zm.468.16c.597.265 1.136.556 1.64.94l-.031.038c-1.199.061-2.305.355-3.243.844-.854-.167-1.705-.194-2.56-.032a8.454 8.454 0 0 0-3.41-.85h-.025c.471-.384 1.042-.675 1.64-.94a5.54 5.54 0 0 0 5.99 0zm-7.912-2.138a5.01 5.01 0 0 0 1.543 1.888 6.976 6.976 0 0 0-1.543.936 8.38 8.38 0 0 0-1.579-.936 5.5 5.5 0 0 0 1.579-1.888zm-1.959 2.138c.6.265 1.17.556 1.64.94l-.031.038c-1.194.061-2.303.355-3.217.844-.883-.167-1.7-.194-2.585-.032a1.765 1.765 0 0 0-.444-.223 4.46 4.46 0 0 1-.535-1.14c1.671.71 3.593.58 5.172-.427zm-.474-.16a5.074 5.074 0 0 1-4.824.097l-.028-.163c1.576-.451 3.273-.451 4.851.066zM6.334 32.389c-.663 0-1.201-.555-1.201-1.234 0-.685.538-1.236 1.201-1.236.662 0 1.194.551 1.194 1.236 0 .68-.532 1.234-1.194 1.234zm-.218-3.153c.282-.489.531-.976.72-1.496.16.62.346 1.237.6 1.855-.379-.263-.85-.426-1.32-.36zm1.066 4.16c0-.583.475-1.039 1.014-1.039.566 0 1.008.456 1.008 1.038 0 1.366-2.022 1.366-2.022 0zm.914-1.626c.07-.194.1-.421.1-.615.126.226.248.455.41.644a.981.981 0 0 0-.51-.03zm-1.48-6.01c-.314 1.203-3.058 6.693-4.225 5.816-.093-.068-.027-.32.159-.681 1.735-2.893.535-3.444.473-6.305-.026-1.271.664-1.174.917-2.112.12-.487-.194-.844-.633-.551-.538.386-.884 1.43-1.927 1.949-.877.421-.787-.264-.594-.88.724-2.399 1.605-3.12 3.752-4.221.721-.359 1.323-.62 1.667-.88.665-.58 0-1.232-.691-1.295-.946-.07-2.02.453-2.835-.396-.666-.678-.822-2.173-.288-2.96.79-1.134 3.03-1.457 3.28-.092.032.36-.087 1.302-.566 1.238-.188 0-.472-.59-1.11-.457a.56.56 0 0 0-.407.457c-.12 1.102 1.832 1.852 3.06.972.315-.23.73-.552.914-.713.445-.326-.09.097-.22.649-.06.263 0 .553.093.582.093 0 .287-.256.507-.582 1.2-1.755 3.06-2.603 5.015-3.154.69-.197 1.132-.197 1.294-.16.184.069.125.16-.445.452-.535.292-1.575.716-2.395 1.138-2.615 1.335-4.575 3.378-5.579 6.172-.572 1.595-1.011 3.936-1.168 5.335-.02.197.031.132.157-.195.156-.49.505-1.433.85-2.408 1.483-4.45 3.661-7.408 8.072-9.159.947-.392 2.052-.75 2.841-1.04.345.357-.568.74-.79.841-5.239 2.242-9.365 6.494-9.179 12.64zm15.49 10.066-.373-.093.368-.092c1.604-.423 3.638-.983 5.058.094-1.42 1.07-3.454.516-5.054.09zm8.196 2.798-.035.052a7.622 7.622 0 0 1-.882.697c-.307-.14-.703-.2-.877-.262-.223-.068-.16-.13.057-.324.146-.12.3-.247.453-.378.815-.494 1.45-1.26 1.614-2.194l.016-.063.01-.139.016-.277-.018-.296-.008-.127-.016-.057c-.16-.937-.797-1.704-1.612-2.198-.154-.13-.308-.26-.455-.38-.22-.193-.28-.258-.06-.32.177-.064.569-.127.878-.267.33.226.62.454.87.685l.047.067c.718 1.06 1.15 2.016 1.236 2.908-.095.879-.525 1.827-1.234 2.873zm177.196.487c-.179.065-.576.123-.884.263a8.103 8.103 0 0 1-.867-.684l-.046-.066c-.722-1.062-1.153-2.021-1.238-2.912.095-.88.525-1.825 1.233-2.87l.037-.054c.254-.234.548-.468.882-.697.307.142.703.203.876.266.224.063.167.128-.058.32-.145.12-.297.248-.451.378-.816.493-1.451 1.259-1.615 2.199l-.016.059-.009.136-.017.277.018.31.008.116.012.052c.163.944.804 1.715 1.628 2.212.151.129.301.254.443.37.224.195.281.257.064.325zm6.4-3.285c-1.604.425-3.638.981-5.057-.093 1.419-1.073 3.453-.513 5.054-.092l.371.092-.368.093zm3.847-11.265c.378.224.568.485.694.613.063.086.03.108-.098.066-3.654-1.072-3.877 3.247-2.019 4.584 1.423 1.001 3.499.84 4.639-.556.98-1.17 1.355-3.24.877-4.746-1.255-3.895-6.681-4.58-9.49-1.655-2.205 2.307-1.8 4.873-.533 7.51.221.483.254.842.062.81-.983-.067-1.832-2.08-4.475-.78-.338.162-1.015.549-1.21.953a6.47 6.47 0 0 0-1.168.957c-.311-.077-.605-.194-.585-.415.214-1.628 3.245-2.989 4.821-2.57.157.03.944.455 1.133.357.065-.03.065-.162 0-.385-.378-1.009-.568-1.496-.502-2.633.061-1.563.692-3.187 1.796-4.454 2.458-2.824 6.4-3.085 9.304-.748 4.32 3.417 1.896 11.47-3.688 9.75-.097-.031-1.295-.295-.698.257.22.198.819.426 1.518.523 3.624.582 6.588-2.6 6.874-6.177.6-7.047-5.805-10.1-11.702-10.361-.185 0-2.175 0-2.304-.035h-70.256c.097.31.181.626.256.945h69.592c6.525 0 14.668 1.56 13.468 10.527.159-6.798-6.874-9.878-11.86-6.206-2.366 1.72-3.655 5.003-2.931 7.924-2.055-.773-4.511.91-5.485 2.699-.32.619-.505 1.074-.505 1.299-.037.324.725.357 1.037.428l.104.045a4.541 4.541 0 0 0-.749 2.614 4.545 4.545 0 0 0 .748 2.68l-.103.043c-.312.074-1.068.1-1.036.427 0 .224.188.68.507 1.299.974 1.792 3.427 3.475 5.482 2.7-.72 2.92.569 6.204 2.937 7.924 4.982 3.673 12.013.588 11.854-6.204 1.201 8.965-6.942 10.523-13.467 10.523H25.415c-6.523 0-14.663-1.558-13.462-10.523-.16 6.792 6.872 9.877 11.855 6.204 2.368-1.72 3.657-5.005 2.932-7.924 2.056.775 4.509-.908 5.484-2.7.322-.618.506-1.075.506-1.3.035-.327-.72-.352-1.038-.426l-.103-.044c.514-.79.773-1.68.748-2.618l.001-.042v-.002a4.532 4.532 0 0 0-.748-2.633l.102-.043c.313-.071 1.072-.104 1.036-.428 0-.225-.185-.68-.505-1.3-.974-1.787-3.427-3.47-5.485-2.698.723-2.921-.567-6.205-2.935-7.924-4.98-3.672-12.015-.592-11.854 6.206-1.197-8.966 6.94-10.527 13.467-10.527h69.558c.092-.32.206-.635.343-.945H25.008c-.131.035-2.12.035-2.306.035-5.896.26-12.3 3.314-11.699 10.36.284 3.578 3.25 6.76 6.876 6.178.69-.097 1.297-.325 1.51-.523.602-.552-.598-.288-.693-.257-5.584 1.72-8.005-6.333-3.69-9.75 2.902-2.337 6.847-2.076 9.301.748 1.108 1.267 1.737 2.891 1.8 4.454.064 1.137-.128 1.624-.505 2.633-.06.223-.06.355 0 .385.194.098.98-.326 1.136-.357 1.577-.419 4.607.942 4.823 2.57.02.221-.271.336-.582.413a6.527 6.527 0 0 0-1.178-.961c-.201-.404-.87-.787-1.204-.948-2.644-1.299-3.497.714-4.473.782-.194.031-.16-.328.058-.81 1.265-2.638 1.674-5.204-.533-7.51-2.808-2.926-8.231-2.241-9.49 1.654-.475 1.505-.1 3.577.882 4.746 1.134 1.396 3.211 1.557 4.634.556 1.858-1.337 1.637-5.656-2.02-4.584-.125.042-.156.02-.093-.066.124-.128.317-.39.69-.613 4.485-2.445 6.817 8.41-1.162 8.607-1.61.035-3.442-.587-4.758-1.787-1.303-1.204-2.117-2.959-2.401-4.546-.95-5.007 2.711-9.883 7-11.703 1.575-.647 3.656-.871 5.55-.94h72.104c8.78-17.64 38.01-17.64 46.8 0h72.137c1.89.069 3.966.293 5.548.94 4.289 1.82 7.949 6.696 6.997 11.703-.28 1.587-1.103 3.341-2.399 4.546-1.319 1.2-3.149 1.822-4.756 1.787-7.98-.197-5.647-11.052-1.166-8.607zm11.921 14.514c.661 0 1.199.555 1.199 1.235 0 .685-.538 1.236-1.199 1.236-.662 0-1.195-.55-1.195-1.236 0-.68.533-1.235 1.195-1.235zm.218 3.152c-.282.49-.533.974-.72 1.496-.16-.619-.348-1.234-.601-1.854.377.264.848.424 1.321.358zm-1.068-4.16c0 .585-.475 1.044-1.012 1.044-.568 0-1.008-.459-1.008-1.044 0-1.365 2.02-1.365 2.02 0zm-.912 1.63c-.07.191-.1.421-.1.613-.127-.222-.249-.457-.407-.645.22.06.28.06.507.032zm-8.172 22.776a5.439 5.439 0 0 1-1.484 0c.254-.161.5-.361.724-.554.256.193.506.393.76.554zm-1.576-1.463c.157.227.346.423.538.65a4.95 4.95 0 0 1-1.01.685 5.734 5.734 0 0 1-1.769-.685c.187-.39.286-.78.382-1.235a9.39 9.39 0 0 1 1.859.585zm-1.011 1.625a6.973 6.973 0 0 1-2.24.55 4.79 4.79 0 0 0 .85-1.168c.446.262.881.456 1.39.618zm-2.71-2.41c.502.038.977.068 1.48.13-.062.395-.16.754-.318 1.11a4.7 4.7 0 0 1-1.2-1.172l.038-.067zm1.006 1.599c-.282.521-.658.974-1.101 1.398l-.283.032h-.067a5.903 5.903 0 0 1-1.102-1.43c.474-.325.917-.715 1.258-1.176.38.461.791.851 1.295 1.176zm-2.013 1.398a7.956 7.956 0 0 1-2.368-.551 7.867 7.867 0 0 0 1.509-.654c.223.426.507.813.859 1.205zm.439-2.996.061.067c-.346.457-.726.852-1.2 1.173a5.817 5.817 0 0 1-.35-1.24h1.489zm-1.861 0c.063.524.191.978.411 1.433a5.722 5.722 0 0 1-1.923.712 6.116 6.116 0 0 1-1.075-.712 5.6 5.6 0 0 0 1.008-1.433h1.579zm-2.115 2.247a5.668 5.668 0 0 1-1.515 0c.288-.161.506-.361.761-.554.217.193.474.393.754.554zm.097-2.247a5.074 5.074 0 0 1-.851 1.178 5.434 5.434 0 0 1-.888-1.178h1.739zm-2.144 0a4.238 4.238 0 0 0 1.01 1.433 6.02 6.02 0 0 1-1.042.686 5.68 5.68 0 0 1-1.768-.686c.22-.455.346-.909.409-1.433h1.391zm-.57 2.41a6.827 6.827 0 0 1-2.206.55c.316-.356.598-.743.821-1.169.442.262.912.456 1.385.618zm-2.678-2.41h1.481a5.64 5.64 0 0 1-.346 1.24c-.475-.322-.855-.716-1.201-1.173l.066-.067zm.977 1.598c-.254.521-.636.974-1.074 1.398l-.311.032h-.067a5.792 5.792 0 0 1-1.099-1.43 5.516 5.516 0 0 0 1.285-1.176c.348.461.792.851 1.266 1.176zm-2.02 1.398a7.614 7.614 0 0 1-2.334-.551 7.64 7.64 0 0 0 1.484-.654c.223.426.503.813.85 1.205zm.472-2.996.035.067a4.514 4.514 0 0 1-1.2 1.173c-.157-.39-.283-.818-.311-1.24h1.476zm-1.852 0c.025.524.185.978.376 1.433-.572.358-1.232.584-1.9.712a5.306 5.306 0 0 1-1.099-.712 5.24 5.24 0 0 0 1.004-1.433h1.619zm-2.148 2.247c-.23.032-.456.044-.684.044a5.244 5.244 0 0 1-.786-.044c.249-.161.503-.356.724-.551.215.195.464.392.746.551zm.12-2.247c-.217.42-.526.806-.866 1.163v.003a4.959 4.959 0 0 1-.849-1.166h1.715zm-2.153 0a5.422 5.422 0 0 0 1.005 1.433c-.28.26-.659.487-1.005.686a5.673 5.673 0 0 1-1.77-.686c.188-.455.351-.909.381-1.433h1.389zm-.54 2.41a6.994 6.994 0 0 1-2.236.55 4.94 4.94 0 0 0 .847-1.169c.416.262.89.456 1.389.618zm-2.71-2.41h1.48c-.027.422-.159.85-.314 1.24a4.465 4.465 0 0 1-1.195-1.173l.029-.067zm1.009 1.598c-.285.521-.664.974-1.104 1.398l-.286.032h-.061c-.479-.424-.819-.909-1.106-1.43a5.23 5.23 0 0 0 1.26-1.176c.384.461.791.851 1.297 1.176zm-2.019 1.398a7.953 7.953 0 0 1-2.362-.551 8.11 8.11 0 0 0 1.508-.654c.227.426.508.813.854 1.205zm.441-2.996.066.067c-.348.457-.726.852-1.203 1.173a5.751 5.751 0 0 1-.346-1.24h1.483zm-1.855 0c.06.524.185.978.405 1.433a5.646 5.646 0 0 1-1.925.712 6.295 6.295 0 0 1-1.069-.712 5.448 5.448 0 0 0 1.006-1.433h1.583zm-2.119 2.247a5.608 5.608 0 0 1-1.507 0c.276-.161.498-.361.753-.554.222.193.471.393.754.554zm.096-2.247c-.22.422-.505.816-.85 1.178a4.483 4.483 0 0 1-.883-1.178h1.733zm-2.143 0a4.387 4.387 0 0 0 1.007 1.433 5.87 5.87 0 0 1-1.042.686 5.596 5.596 0 0 1-1.758-.686 4.46 4.46 0 0 0 .408-1.433h1.385zm-.568 2.41a6.82 6.82 0 0 1-2.209.55c.32-.356.599-.743.824-1.169.438.262.911.456 1.385.618zm-2.683-2.41h1.487a5.34 5.34 0 0 1-.352 1.24c-.466-.322-.846-.716-1.196-1.173l.061-.067zm.977 1.598c-.248.521-.628.974-1.073 1.398l-.313.032h-.061a5.866 5.866 0 0 1-1.105-1.43 5.563 5.563 0 0 0 1.295-1.176c.345.461.789.851 1.257 1.176zm-2.017 1.398a7.553 7.553 0 0 1-2.333-.551 7.74 7.74 0 0 0 1.48-.654c.223.426.506.813.853 1.205zm.469-2.996.04.067a4.574 4.574 0 0 1-1.2 1.173 4.255 4.255 0 0 1-.318-1.24h1.478zm-1.853 0c.03.524.185.978.375 1.433-.571.358-1.228.584-1.893.712a5.546 5.546 0 0 1-1.105-.712 5.308 5.308 0 0 0 1.011-1.433h1.612zm-2.149 2.247c-.5.068-.973.068-1.481 0 .254-.161.508-.361.725-.554.223.193.478.393.756.554zm.131-2.247a6.6 6.6 0 0 1-.887 1.178 6.203 6.203 0 0 1-.88-1.178h1.767zm-2.178 0c.25.524.601 1.01 1.009 1.433-.318.26-.664.487-1.037.686a5.518 5.518 0 0 1-1.739-.686c.193-.455.313-.909.38-1.433h1.387zm-.536 2.41a7.196 7.196 0 0 1-2.237.55 5.01 5.01 0 0 0 .85-1.169c.409.262.882.456 1.387.618zm-2.714-2.41h1.483a5.32 5.32 0 0 1-.316 1.24 5.142 5.142 0 0 1-1.227-1.173l.06-.067zm-1.734 1.24a5.572 5.572 0 0 1-.311-1.24h1.477l.063.067a5.208 5.208 0 0 1-1.229 1.173zm1.359 1.788h-.061a4.576 4.576 0 0 1-1.107-1.43 5.249 5.249 0 0 0 1.26-1.176c.345.461.792.851 1.263 1.176-.252.521-.631.974-1.073 1.398l-.282.032zm2.521 1.492a5.117 5.117 0 0 1 5.016 0 8.277 8.277 0 0 1-5.016 0zm-.505-.16c-.594-.261-1.132-.554-1.61-.942l.031-.033c1.168-.067 2.273-.356 3.221-.845.884.165 1.701.195 2.586.032a8.1 8.1 0 0 0 3.402.846c-.47.388-1.036.68-1.64.942-1.826-1.168-4.131-1.168-5.99 0zm7.949 2.14a5.45 5.45 0 0 0-1.577-1.89 8.424 8.424 0 0 0 1.577-.933c.438.353.977.683 1.541.934a5.011 5.011 0 0 0-1.541 1.89zm2.393-1.98a5.17 5.17 0 0 1 5.044 0 8.368 8.368 0 0 1-5.044 0zm-.476-.16c-.592-.261-1.163-.554-1.637-.942l.031-.033c1.196-.067 2.308-.356 3.25-.845.852.165 1.704.195 2.553.032a8.402 8.402 0 0 0 3.408.846h.03c-.473.388-1.042.68-1.638.942a5.568 5.568 0 0 0-5.997 0zm7.916 2.14a5.008 5.008 0 0 0-1.536-1.89 7.05 7.05 0 0 0 1.536-.933 8.449 8.449 0 0 0 1.58.934 5.47 5.47 0 0 0-1.58 1.89zm4.838-1.598a8.248 8.248 0 0 1-2.408-.382 5.118 5.118 0 0 1 2.408-.643 5.139 5.139 0 0 1 2.594.643 8.205 8.205 0 0 1-2.594.382zm.06-1.41v-.008l-.056.005-.017-.003v.003a5.563 5.563 0 0 0-2.869.871c-.594-.261-1.165-.554-1.636-.942l.034-.033c1.196-.067 2.27-.356 3.214-.845.426.082.845.122 1.257.13v.006l.041-.006.032.006v-.006c.409.004.814-.022 1.239-.099.976.49 2.142.814 3.404.847-.477.388-1.039.68-1.637.942a5.516 5.516 0 0 0-3.006-.869zm4.955 3.009a5.357 5.357 0 0 0-1.574-1.89 8.12 8.12 0 0 0 1.574-.934c.445.353.984.683 1.547.934a5.036 5.036 0 0 0-1.547 1.89zm2.398-1.981a5.17 5.17 0 0 1 5.044 0 8.368 8.368 0 0 1-5.044 0zm-.472-.16c-.594-.261-1.134-.554-1.637-.942l.029-.033c1.199-.067 2.307-.356 3.245-.845.855.165 1.702.195 2.557.032a8.36 8.36 0 0 0 3.414.846h.026c-.475.388-1.044.68-1.642.942a5.56 5.56 0 0 0-5.992 0zm7.913 2.14a4.92 4.92 0 0 0-1.541-1.89 6.947 6.947 0 0 0 1.541-.933 8.49 8.49 0 0 0 1.581.934 5.418 5.418 0 0 0-1.581 1.89zm1.956-2.14c-.594-.261-1.165-.554-1.636-.942l.034-.033c1.191-.067 2.301-.356 3.215-.845.88.165 1.7.195 2.582.032.129.094.286.163.446.222.214.33.406.718.534 1.139a5.556 5.556 0 0 0-5.175.427zm.477.16c1.516-.843 3.309-.876 4.823-.096l.03.163c-1.575.451-3.276.451-4.853-.067zm18.631-16.276c-.718 2.4-1.603 3.119-3.75 4.222-.722.355-1.321.62-1.667.88-.663.58 0 1.231.691 1.295.946.066 2.02-.457 2.844.394.658.68.813 2.172.279 2.956-.789 1.137-3.027 1.46-3.28.097-.03-.36.089-1.3.568-1.24.187 0 .472.591 1.105.46a.56.56 0 0 0 .412-.46c.123-1.1-1.832-1.847-3.061-.97-.314.228-.731.55-.916.713-.444.325.095-.1.22-.65.06-.26 0-.55-.092-.58-.092 0-.285.254-.506.58-1.198 1.758-3.06 2.6-5.012 3.15-.695.199-1.134.199-1.297.166-.185-.066-.127-.166.447-.453.53-.288 1.572-.716 2.392-1.14 2.614-1.328 4.577-3.379 5.582-6.173.569-1.59 1.008-3.93 1.166-5.33.021-.197-.031-.132-.158.193-.156.494-.504 1.433-.85 2.405-1.484 4.454-3.662 7.41-8.069 9.164-.952.39-2.051.747-2.843 1.039-.346-.358.566-.743.792-.84 5.236-2.243 9.363-6.498 9.178-12.64.314-1.207 3.058-6.698 4.222-5.82.097.067.031.324-.159.684-1.735 2.89-.535 3.446-.473 6.303.028 1.27-.662 1.176-.915 2.11-.123.49.196.851.63.554.54-.387.886-1.43 1.929-1.948.88-.42.787.263.591.88z"/>
        <path d="m101.118 16.143.639.345c.048-.086 4.879-8.543 15.947-8.543h.483c11.051 0 15.899 8.457 15.947 8.543l.639-.345c-.05-.089-5.092-8.915-16.586-8.915h-.483c-11.494 0-16.536 8.826-16.586 8.915zM163.727 35.057l-1.643 1.618-.002.477 1.707-1.68a1.673 1.673 0 0 1-.062-.415zM163.727 33.86v-.476L162.086 35v.476l1.641-1.618zM163.718 41.752l-1.985 1.956h.481l1.513-1.506-.009-.45zM162.47 26.737h-.481l-.317.31.135.346.663-.656zM163.727 28.369l-1.681 1.654.008.468 1.673-1.648v-.474zM162.02 28.852l2.147-2.115h-.481l-1.685 1.658c.007.124.013.28.019.457zM163.727 30.515v-.475l-1.659 1.636.005.47 1.654-1.631zM163.719 38.407l-1.918 1.89.148.329 1.764-1.737.006-.482zM163.727 32.187v-.475l-1.647 1.623.002.472 1.645-1.62zM173.349 27.723l-.303-.176-.754.743.197.28.86-.847zM170.867 26.824a7.659 7.659 0 0 0-.425-.055l-.009.01.327.152.107-.107zM171.61 36.125l3.838-3.754c.03-.181.051-.371.065-.566l-4.467 4.402c.216-.03.408-.059.564-.082zM173.01 29.729l1.282-1.261-.248-.232-1.154 1.137.12.356zM174.618 34.36l-.817.804c.313-.233.586-.503.817-.803zM162.002 38.435a8.087 8.087 0 0 1-.262.726l2.763-2.724-.263-.215-2.238 2.213zM163.43 43.708h.482l.113-.111-.125-.352-.47.463zM163.706 40.568a12.465 12.465 0 0 1 0-.474l-1.684 1.656c-.007.204-.016.375-.024.5l1.708-1.682zM173.264 31.152l1.759-1.734-.181-.296-1.617 1.593c.019.146.031.291.039.437zM173.09 32.995l2.372-2.337a3.929 3.929 0 0 0-.092-.387l-2.154 2.096a4.878 4.878 0 0 1-.126.628zM172.215 27.17l-.36-.12-.368.362.247.231.481-.474zM66.723 40.332l-1.02 1.007.22.257.911-.898-.111-.366zM66.23 32.458l-2.612 2.575-.007.204.005.273 2.546-2.474c.018-.196.043-.387.069-.578zM66.637 30.384l-2.837 2.77c-.035.195-.066.392-.091.592l2.768-2.704c.05-.224.102-.444.16-.658zM66.064 35.967l-2.072 2.04.11.366 1.978-1.947a11.668 11.668 0 0 1-.016-.46zM66.393 38.987l-1.39 1.368.186.293 1.29-1.272-.086-.39zM66.176 37.528l-1.745 1.72.149.327 1.649-1.625c-.02-.14-.037-.28-.053-.422zM67.814 27.554l-3.21 3.157c-.131.265-.25.544-.359.835l3.014-2.96c.17-.375.356-.72.555-1.032zM66.07 34.288l-2.364 2.33c.017.138.039.275.063.413l2.29-2.256.011-.487zM76.945 30.737l1.23-1.21-.208-.271-1.117 1.102.095.379zM76.569 29.436l.835-.822-.244-.234-.725.714.134.342zM75.627 27.165a8.503 8.503 0 0 0-.522-.25l-.018.019c.118.135.22.29.326.44l.214-.21zM77.215 32.142l1.597-1.572-.167-.31-1.49 1.469c.023.137.042.275.06.413zM78.392 40.541l-2.5 2.463a7.709 7.709 0 0 0 2.5-2.462zM77.382 33.653l1.934-1.907-.128-.348-1.844 1.815c.014.145.026.292.038.44zM76.5 27.833l-.284-.196-.316.312.17.308.43-.424zM95.15 37.884l.812-.802-.185-.292-.816.805.188.29zM94.49 36.862l.819-.808-.186-.29-.82.808.187.29zM95.807 38.907l.81-.798-.187-.29-.81.798.187.29zM96.465 39.931l.979-.964-.295-.185-.87.858.186.291zM93.173 34.814l.829-.814-.188-.292-.827.816.186.29zM93.831 35.839l.823-.812-.185-.292-.824.812.186.292zM97.782 41.977l2.06-2.03v-.474l-2.248 2.214.188.29zM99.42 43.708l.422-.417v-.473l-.905.89h.482zM68.423 43.53l.033.017-.022-.03-.011.012zM67.49 42.922l.3.178.123-.12-.187-.292-.236.234zM66.528 42.196l.257.222.518-.51-.14-.336-.635.624zM97.124 40.954l1.95-1.921a1.813 1.813 0 0 1-.63.145l-1.508 1.486.188.29zM98.44 43l1.402-1.38v-.475l-1.589 1.566.188.288zM92.515 33.79l.831-.819-.185-.29-.833.82.187.29zM44.627 43.708h.294l-.121-.169-.173.17zM77.436 34.934l.007.329 2.23-2.196a11.276 11.276 0 0 0-.085-.392l-2.156 2.126.004.133zM42.79 30.946l1.727-1.702v-.475L42.79 30.47v.475zM42.79 32.618l1.727-1.703v-.475l-1.727 1.702v.476zM54.654 35.632l-.01.356 2.32-2.287a6.165 6.165 0 0 0-.071-.404l-2.241 2.21.002.125zM54.616 34.345l2.041-2.01-.118-.362-1.958 1.935c.012.143.025.288.035.437zM54.531 37.771l2.553-2.515a14.142 14.142 0 0 0-.012-.464L54.593 37.2c-.015.198-.038.387-.062.571zM42.742 42.699l1.776-1.752v-.475l-1.731 1.706a3.998 3.998 0 0 1-.045.52zM42.78 40.987l1.737-1.71V38.8l-1.824 1.798c.045.132.075.262.088.389zM43.412 43.708l1.105-1.095v-.469l-1.587 1.564h.482zM42.79 37.255l-.04.374-.015.059 1.782-1.757v-.475l-1.728 1.703v.096zM42.79 35.96l1.727-1.7v-.475l-1.727 1.702v.474zM42.79 34.29l1.727-1.703v-.474l-1.727 1.701v.476zM54.11 39.86l2.871-2.8c.024-.191.045-.379.06-.566l-2.753 2.692c-.053.231-.112.457-.178.673zM42.219 39.868l2.298-2.263v-.478l-2.396 2.352-.098.237.19.147.006.005zM76.457 41.252l2.952-2.894c.07-.215.13-.442.187-.675l-2.883 2.824c-.081.265-.167.512-.256.745zM43.667 26.737h-.48l-.646.635.12.357 1.006-.992zM77.366 37.01l2.494-2.457a12.67 12.67 0 0 0-.034-.44l-2.418 2.382c-.011.17-.026.344-.042.514zM42.79 29.275l1.834-1.794c.103-.29.278-.547.503-.744h-.243L42.79 28.8v.475zM77.098 38.95l2.731-2.66c.017-.183.029-.365.039-.548l-2.662 2.595c-.032.208-.068.41-.108.613zM51.924 43.208l-.11.108c.257-.069.493-.142.696-.21l3.938-3.867c.088-.228.166-.467.239-.721l-3.748 3.69c-.331.419-.669.75-1.015 1zM53.757 30.175l1.062-1.047-.24-.238-.966.953.144.332zM53.922 28.338l-.276-.201-.646.637.188.287.734-.723zM54.175 31.436l1.407-1.386-.206-.274-1.305 1.285.104.375zM52.885 27.69l-.326-.153-.34.334.237.24.429-.422zM51.685 27.2l-.37-.112-.06.06.293.188.137-.136zM54.457 32.828l1.733-1.709-.155-.32-1.645 1.62c.023.135.046.27.067.41zM89.6 29.974l1.132-1.112-.186-.292-1.33 1.31c.122.015.25.047.384.095zM128.31 26.952a7.154 7.154 0 0 0-.395-.086l-.167.165.288.19.274-.269zM129.566 29.06l1.04-1.027-.279-.2-.926.91.165.316zM129.56 27.393l-.334-.146-.544.535.227.25.651-.64zM129.795 33.357a4.854 4.854 0 0 1-.372.858l2.919-2.877a3.726 3.726 0 0 0-.035-.442l-2.512 2.461zM129.971 30.331l1.488-1.467-.221-.256-1.354 1.334c.034.13.063.26.087.39zM129.534 35.775l2.451-2.402c.087-.218.159-.452.215-.695l-3.389 3.338c.26-.072.508-.156.723-.241zM118.696 43.11l1.846-1.818v-.478l-1.763 1.703c-.015.2-.043.399-.083.592zM194.018 43.525l-.288.285h.44l-.152-.285zM120.542 39.62v-.474l-1.755 1.726.026.269v.182l1.729-1.703zM119.301 43.708h.485l.847-.835a3.026 3.026 0 0 1-.07-.404l-1.262 1.24zM91.856 32.768l.836-.824-.185-.29-.838.822.187.292zM120.751 43.81h.364l-.118-.24-.246.24zM130.068 31.906l2.004-1.973-.143-.332-1.84 1.872c0 .149-.009.292-.021.433zM189.793 37.895l.208.176 1.733-1.707-.106-.37-1.683 1.65-.152.25zM189.017 32.35l1.249-1.23-.1-.375-1.248 1.228.099.378zM189.361 33.685l1.266-1.247-.104-.373-1.26 1.241.098.38zM188.671 31.021l1.245-1.224-.098-.38-1.244 1.226.097.378zM189.516 28.042l-1.286 1.267.097.38 1.261-1.244-.044-.216-.028-.187zM187.948 28.224l.033.132 1.621-1.619h-.459l-1.275 1.255.08.232zM189.705 35.017l1.288-1.269-.104-.37-1.281 1.26.097.38zM190.579 39.172l1.526-1.504-.105-.369-1.538 1.516c.022.068.063.188.117.357zM191.33 41.775l1.529-1.503-.109-.37-1.516 1.494.096.379zM190.974 40.456l1.507-1.485-.107-.37-1.509 1.487.109.368zM191.452 43.328l1.782-1.756-.106-.37-1.637 1.613c.001.17-.011.342-.039.513zM118.593 26.635h-.325l.1.223.225-.223zM190.048 36.353l1.314-1.296-.105-.37-1.305 1.284.096.382zM192.764 43.708l.856-.838-.03-.08-.082-.289-1.227 1.207h.483zM118.227 39.853l.186.192 2.137-2.107c.013-.22.067-.433.158-.629l-2.536 2.498.055.046zM147.317 36.451l.032.165 1.321-1.299-.105-.373-1.305 1.286.057.221zM150.333 43.708l.62-.61-.003-.006-.096-.228-.034-.11-.968.954h.481zM148.56 43.708h.076l1.9-1.871-.109-.369-1.735 1.684a3.586 3.586 0 0 1-.132.556zM148.634 42.04l1.521-1.496-.108-.371-1.515 1.492.102.374zM147.394 38.245l1.644-1.619-.104-.37L147.161 38l.233.244zM147.885 39.434l1.521-1.499-.105-.372-1.526 1.504.11.367zM148.266 40.73l1.514-1.49-.107-.37-1.515 1.49.108.37zM90.508 30.671l.032.05.845-.832-.187-.292-.865.853.175.221zM187.928 26.737h-.482l-.39.385.29.188.582-.573zM91.198 31.743l.842-.828-.187-.291-.842.829.188.29zM87.381 28.376l.011.154v.276l2.032-2-.044-.069h-.37l-1.63 1.607.001.032zM87.392 30.478l2.685-2.645-.185-.292-2.5 2.463v.474zM87.794 26.737h-.481l-.272.27.138.336.615-.606zM120.041 26.737h-.482l-.841.83c.027.13.049.266.065.41l1.258-1.24zM120.542 30.784l-1.729 1.703v.476l1.729-1.703v-.476zM120.542 29.113l-1.729 1.703v.476l1.729-1.704v-.475zM120.542 32.456l-1.729 1.703v.476l1.729-1.703v-.476zM147.013 35.277l1.292-1.273-.102-.373-1.288 1.267.098.379zM120.689 27.298l-1.876 1.846v.477l1.733-1.708c.008-.214.057-.421.143-.615zM120.673 35.67l-1.914 1.863c-.051.227-.105.447-.163.66l2.246-2.215-.169-.308zM118.813 36.308l1.729-1.704v-.475l-1.729 1.704v.475zM146.325 32.611l1.259-1.242-.101-.374-1.256 1.238.098.378zM145.5 26.737h-.483l-.514.507.257.22.74-.727zM146.668 33.944l1.272-1.265-.099-.364-1.27 1.25.097.379zM145.981 31.279l1.251-1.234-.099-.377-1.25 1.232.098.379zM146.803 28.321l-1.264 1.247.097.379 1.255-1.238a23.408 23.408 0 0 1-.088-.388zM145.292 28.613l1.539-1.495c.034-.137.072-.264.12-.38h-.237l-1.524 1.487.102.388z"/>
    </g>
    <defs>
        <clipPath id="knu494y6na">
            <path fill="#fff" d="M0 0h236v84H0z"/>
        </clipPath>
    </defs>
</svg>
