<svg width="132" height="46" viewBox="0 0 132 46" fill="none" xmlns="http://www.w3.org/2000/svg">
    <g clip-path="url(#vnbxizs3ja)" fill="#DF3A24">
        <path d="M15.067 10.9s2.592-.71 3.292 2.445l1.677 5.926-1.677 6.445c-.7 3.155-3.292 2.446-3.292 2.446 0 .784.812.838.812.838h99.894s.812-.055.812-.838c0 0-2.591.709-3.291-2.446l-1.678-6.445 1.678-5.926c.7-3.155 3.291-2.446 3.291-2.446 0-.783-.812-.838-.812-.838H15.879s-.812.055-.812.838zm98.369 17.012v.275H18.664v-.275h94.772zM21.469 22.25c.953-.05 1.347-1.258 1.484-1.847v-4.746c0-.925-1.758-1.96-1.758-1.96h6.014c3.689 0 5.703 2.558 5.703 5.683 0 3.093-1.706 5.503-5.703 5.503H21.21s1.742-.696 1.742-1.83v-.52c-.79.076-1.484-.283-1.484-.283zm13.128-2.952c0-3.341 2.275-5.818 5.532-5.818 3.31 0 5.533 2.543 5.533 5.834 0 3.06-2.103 5.784-5.516 5.784-3.377 0-5.549-2.658-5.549-5.8zm11.813 2.82c.967-.05 1.358-1.289 1.489-1.87v-4.623c0-1.016-1.724-1.928-1.724-1.928h4.36l4.43 6.815h.052v-4.938c0-.965-1.827-1.877-1.827-1.877h5.618s-1.983.973-1.983 2.028v9.158h-2.05l-4.982-7.579h-.033v5.833c0 .954 1.879 1.746 1.879 1.746h-5.481s1.74-.647 1.74-1.712v-.77c-.791.08-1.488-.282-1.488-.282zm30.676-8.421h7.618s-1.78.853-1.638 1.594c.142.743 1.961 7.085 2.24 7.88.28.795 1.638 1.712 1.638 1.712h-6.1s1.544-.883 1.342-1.613c-.2-.729-.516-1.745-.516-1.745h-2.982s-.275 1.079-.448 1.73c-.172.65 1.362 1.628 1.362 1.628h-5.188s1.345-.553 1.793-1.695c.447-1.143 2.052-6.292 2.309-7.497.259-1.206-1.43-1.994-1.43-1.994zm-6.358 7.13h-2.325v2.26c0 .818 1.534 1.796 1.534 1.796h-6.154s1.69-.443 1.69-1.796v-.557c-.797.086-1.502-.28-1.502-.28 1-.053 1.385-1.378 1.502-1.929v-4.763c0-1.134-1.759-1.861-1.759-1.861h7.101c2.206 0 4.188 1.445 4.188 3.49 0 2.143-1.551 3.64-4.275 3.64zm30.275-7.13h7.617s-1.822.604-1.638 1.594c.186.992 1.985 7.022 2.241 7.88.258.858 1.638 1.712 1.638 1.712h-6.101s1.564-.699 1.345-1.613c-.223-.914-.518-1.745-.518-1.745h-2.982s-.255.954-.449 1.73c-.192.774 1.363 1.628 1.363 1.628h-5.188s1.367-.553 1.792-1.695c.427-1.143 2.009-6.168 2.31-7.497.301-1.33-1.43-1.994-1.43-1.994zm-6.118 7.13h-2.327s-.028 1.195 0 2.26c.03 1.065 1.534 1.796 1.534 1.796H87.94s1.623-.94 1.69-1.796c.008-.108.016-.297.022-.543-.737.03-1.36-.294-1.36-.294.782-.041 1.186-.86 1.382-1.477.01-2-.006-4.603-.044-5.215-.06-.95-1.758-1.861-1.758-1.861h7.1c2.206 0 4.188 1.445 4.188 3.49 0 2.143-1.55 3.64-4.274 3.64zm-76.22-10.093h94.771v.274H18.664v-.274z"/>
        <path d="M104.173 15.69h-.034l-1.206 4.504h2.431l-1.191-4.504zM80.257 15.69h-.034l-1.206 4.504h2.43l-1.19-4.504zM69.713 15.324h-1.31v3.856h1.292c1.602 0 2.085-.98 2.085-1.945 0-.997-.55-1.911-2.067-1.911zM42.334 19.314c0-1.962-.533-4.538-2.205-4.538-1.655 0-2.206 2.527-2.206 4.538 0 2.044.622 4.486 2.206 4.486 1.551 0 2.205-2.359 2.205-4.486zM93.868 15.324h-1.31v3.856h1.294c1.603 0 2.084-.98 2.084-1.945 0-.997-.551-1.911-2.068-1.911zM29.587 19.513c0-3.176-1.172-4.157-2.775-4.157h-.931v7.98h.931c1.707 0 2.775-.798 2.775-3.823zM50.74 40.93c-.64-1.341-1.324-2.046-2.853-2.398 1.118-.132 3.308-.418 3.308-1.826-.044-.77-.98-1.409-1.665-1.63-1.004-.329-2.076-.395-3.125-.417h-10.61l2.783 1.717v3.917l-2.782 1.716h9.49l-2.783-1.716V39.17h1.848c1.346 0 1.438.132 2.076 1.255.274.505.547 1.033.776 1.584h5.384L50.74 40.93zm-4.975-3.213-.775.023h-2.487v-1.694h2.715c.41 0 .867 0 1.255.11.365.11.547.462.547.814 0 .682-.707.747-1.255.747zM70.352 39.523v-3.147l2.784-1.717h-7.484l2.532 1.717v2.794c0 .506-.113.99-.593 1.277-.502.33-1.574.44-2.19.44-.616 0-1.688-.11-2.19-.462-.41-.308-.525-.77-.525-1.255v-2.794l2.532-1.717h-9.263l2.807 1.717v3.147c0 .44.09.792.41 1.122 1.255 1.342 3.673 1.738 5.476 1.738 1.415 0 3.879-.154 4.974-1.078.524-.44.73-1.123.73-1.782zM96.17 34.66h-8.51l-1.437 3.344-1.529-3.345h-7.803l2.784 1.717v3.917l-2.784 1.716h7.575l-2.624-1.716v-4.534l2.852 6.25h2.053l2.83-6.47v4.754l-2.624 1.716h9.218l-2.784-1.716v-3.917l2.784-1.717zM48.52 31.759a.775.775 0 0 1 .228-.032c.095 0 .19.012.287.036a1.76 1.76 0 0 1 .578.268l.126.098.153.149.013.012h.091v-.693h-.09l-.06.043-.001.001c-.144.11-.252.162-.296.16l-.143-.05a1.51 1.51 0 0 0-.652-.16c-.155 0-.3.029-.433.088a.797.797 0 0 0-.317.24.544.544 0 0 0-.118.335c0 .082.02.162.061.235l.003.005.168.183.004.005.18.098.002.001.003.001c.07.028.155.05.254.07.098.019.225.036.38.053l.06.005.056.006c.122.01.227.023.318.036.086.014.15.028.185.04l.145.082.065.147c-.003.075-.036.131-.113.182a.617.617 0 0 1-.331.078c-.102 0-.207-.013-.316-.04a1.748 1.748 0 0 1-.637-.295l-.003-.002.002.001a2.112 2.112 0 0 1-.315-.284l-.012-.014h-.105v.774h.096l.067-.045v-.001l.032-.022.02-.014c.086-.06.15-.1.187-.122l.09-.028c.024 0 .09.02.184.061.09.043.173.076.25.101a1.418 1.418 0 0 0 .844.016.742.742 0 0 0 .288-.168.645.645 0 0 0 .197-.458.57.57 0 0 0-.26-.48.96.96 0 0 0-.297-.142 3.076 3.076 0 0 0-.474-.088l-.108-.014-.026-.004-.037-.004-.04-.004a4.316 4.316 0 0 1-.28-.037 1.064 1.064 0 0 1-.17-.038l-.13-.071-.054-.107.048-.108.153-.085zM54.527 31.751h.097V31.635H53.568l-.701 1.233-.758-1.233h-1.085V31.75h.122l.278.139v1.18l-.29.419h-.107V33.604h.926V33.49h-.103l-.29-.419v-1.015l.94 1.55H52.6l.932-1.645v1.364l-.276.165h-.1V33.604h1.468V33.49h-.099l-.276-.165v-1.409l.278-.164zM56.877 33.489h-.043v.116h1.377v-.116h-.083l-.206-.161-1.137-1.718h-.1l-.012.02-.83 1.39-.37.469h-.076v.116h.857v-.116h-.08l-.191-.443.011-.02h.895l.21.316-.173.147h-.05zm-.46-1.172.387.578h-.73l.342-.578zM59.073 33.489h-.096V33.604h2.417l.05-.78.002-.043H61.33l-.006.09-.744.601h-.508v-1.551l.292-.17h.091V31.635h-1.47V31.75h.1l.268.156v1.417l-.28.165zM62.393 33.489h-.097V33.604h2.419l.048-.78.002-.043H64.65l-.007.09-.743.601h-.509v-1.551l.292-.17h.091V31.635h-1.469V31.75h.101l.267.156v1.417l-.28.165zM69.49 32.56l.173-.068.005-.002.162-.117.01-.007.08-.186.007-.016-.085-.208-.003-.006-.004-.005a.703.703 0 0 0-.235-.166 1.442 1.442 0 0 0-.342-.107 2.212 2.212 0 0 0-.414-.037h-1.556v.116h.097l.274.164v1.415l-.267.159h-.1v.115h1.711c.123 0 .252-.014.384-.044.13-.03.24-.068.326-.116.176-.095.275-.228.275-.39a.31.31 0 0 0-.09-.224l-.002-.002-.153-.119-.005-.003-.193-.08-.004-.002-.189-.038.133-.025.004-.002zm-.38.845c-.045.044-.114.07-.218.07h-.512v-.823h.443c.14 0 .234.033.29.091.056.058.092.165.099.324v.03l-.022.167-.08.14zm-.73-1.638h.384a.79.79 0 0 1 .207.023l.132.07.069.112.027.175c0 .137-.03.232-.079.29-.048.056-.124.087-.244.087h-.496v-.757zM72.231 33.489h-.042v.116h1.376v-.116h-.082l-.206-.161-1.138-1.718h-.1l-.012.02-.83 1.39-.37.469h-.076v.116h.858v-.116h-.08l-.192-.443.012-.02h.894l.211.316-.173.147h-.05zm-.46-1.172.388.578h-.73l.341-.578zM74.876 33.489h-.11V33.604h1.507V33.49h-.121l-.271-.162v-1.563h.145l.607.702v.093h.12v-.924h-2.468v.92h.121v-.094l.606-.697h.15v1.558l-.286.167zM78.977 31.788l.197-.037c.135.001.28.034.438.103.157.07.29.16.402.27.068.068.14.15.216.247l.013.016h.097l-.037-.743-.002-.039h-.083l-.04.026-.002.001-.025.019c-.078.054-.14.093-.187.117l-.108.03-.141-.05v.001a1.402 1.402 0 0 0-.293-.113 1.35 1.35 0 0 0-.308-.033 1.44 1.44 0 0 0-.9.288c-.28.212-.428.46-.428.735 0 .215.086.407.251.565.143.137.317.243.524.32.207.076.421.115.64.115.4 0 .724-.121.96-.367v-.001l.125-.157.002-.002.001-.002c.032-.053.065-.121.099-.206l.015-.04-.09-.029-.038-.012-.016.036c-.032.079-.063.14-.09.183l-.117.141a1.03 1.03 0 0 1-.47.274c-.09.025-.181.037-.27.037a.762.762 0 0 1-.238-.036.608.608 0 0 1-.195-.1l-.147-.166-.071-.161a1.407 1.407 0 0 1-.07-.432c.001-.32.077-.548.223-.694l.163-.104zM81.306 33.489H81.2V33.604h1.477V33.49h-.105l-.274-.165v-.651h.872v.654l-.272.162h-.1V33.604h1.463V33.49h-.108l-.262-.16v-1.414l.276-.164h.09V31.635H82.8V31.75h.1l.27.161v.626h-.876v-.623l.28-.164h.099V31.635H81.2V31.75h.09l.28.164v1.413l-.264.161zM51.2 43.525h-.935l-.422.997-.017.08-.019-.08-.422-.997h-.916l.091.283v1.909l-.092.283h.79l-.093-.283V44.62l-.018-.142.055.142.587 1.379h.018l.586-1.38.055-.14-.017.14v1.097l-.093.283h.862l-.092-.283v-1.91l.092-.282zM52.813 43.525l-.245.707.38-.124h.287l.037.035v1.486l-.13.371h.973l-.129-.37v-1.487l.037-.035h.286l.381.124-.245-.707h-1.632zM55.892 45.222l-.183.177v.424l.183.177h.477l.184-.177V45.4l-.184-.177h-.477zM59.743 44.284l.713-.69-.072-.07h-.788l-.074.212-.532.513-.055.071v-.512l.092-.283h-.88l.092.283v1.909l-.092.283h.88l-.092-.283v-.655l.037-.07.184-.177h.055l.304.866.036.319h.917l-.205-.336-.52-1.38zM63.336 43.754l.054-.23h-1.246l.054.23-.513 1.963-.146.283h.843l-.037-.283.055-.213.037-.035h.605l.036.035.056.213-.038.283h.899l-.146-.283-.513-1.963zm-.434 1.185h-.33l-.037-.036.184-.76.018-.124.019.124.183.76-.037.036zM66.8 43.808v.76l.018.177-.073-.177-.642-1.043h-.788l.11.283v1.909l-.092.283h.806l-.09-.283v-1.025l-.02-.178.075.178L66.91 46h.494v-2.192l.092-.283h-.788l.093.283zM70.008 45.399l-.055-.053v-1.504l.11-.317h-.917l.092.283v1.909l-.092.283h1.504l.248-.724-.377.123h-.513zM73.711 43.754l.054-.23H72.52l.055.23-.513 1.963-.147.283h.843l-.036-.283.054-.213.038-.035h.605l.036.035.056.213-.038.283h.899l-.147-.283-.513-1.963zm-.433 1.185h-.33l-.037-.036.183-.76.019-.124.019.124.183.76-.037.036zM76.167 43.525l-.477.46v1.555l.477.46h1.137l.476-.46v-1.556l-.476-.46h-1.137zm.88 1.679-.074.142-.146.07h-.183l-.148-.07-.073-.142v-.92l.073-.14.148-.071h.183l.146.07.074.141v.92zM80.878 43.808v.76l.018.177-.073-.177-.642-1.043h-.788l.11.283v1.909L79.41 46h.806l-.091-.283v-1.025l-.018-.178.073.178.807 1.308h.494v-2.192l.092-.283h-.787l.091.283zM60.727 6.774c.089-.05.14-.012.141.07l.008.316c.085-.037.171-.072.257-.107l-.01-.364c-.004-.131-.041-.206-.095-.247-.057-.043-.141-.044-.249.023a8.14 8.14 0 0 0-.248.16.745.745 0 0 0-.234.264.595.595 0 0 0-.082.289v1.546c0 .11.04.185.104.243.058.053.137.09.248.09h.27a.309.309 0 0 0 .25-.112.443.443 0 0 0 .093-.307l-.01-.36a39.54 39.54 0 0 0-.266.04l.007.312c.003.086-.05.15-.141.155l-.145.01c-.091.005-.144-.046-.144-.124l-.02-1.611a.248.248 0 0 1 .131-.209l.135-.077zM62.325 5.69c-.09.034-.178.071-.267.11a.506.506 0 0 0-.247.25.73.73 0 0 0-.081.373l.077 2.167c.005.15.046.253.106.332.066.08.148.135.263.135h.27c.121 0 .197-.058.253-.148.059-.09.09-.205.085-.378a3326.8 3326.8 0 0 1-.085-2.446c-.006-.175-.047-.278-.111-.345-.063-.068-.146-.097-.263-.05zm.047 3.011-.147.007c-.09.003-.146-.068-.15-.172l-.079-2.18c-.003-.105.046-.198.135-.232l.146-.053c.093-.034.149.03.152.136l.082 2.3c.005.111-.045.19-.139.194zM64.737 9.046h.258l-.05-3.976c-.13.013-.26.028-.39.046-.086.705-.17 1.403-.25 2.094l-.045.591-.03.002a866.19 866.19 0 0 0-.069-.58c-.111-.67-.224-1.33-.34-1.977-.128.028-.256.058-.383.091l.108 3.71h.258l-.057-2.167-.044-.854.02-.004.145.912c.09.523.18 1.053.27 1.59l.246-.006c.064-.547.13-1.1.198-1.656l.105-.977.02-.002-.006.898.036 2.265zM66.425 5.036c-.228-.012-.457-.016-.685-.012l.009 4.022h.27l.003-1.833c.13 0 .259.002.388.006.09.002.178-.058.24-.152a.83.83 0 0 0 .105-.435l.01-.973a.841.841 0 0 0-.095-.436c-.064-.112-.153-.182-.245-.187zm.05 1.532c-.004.138-.062.227-.14.225l-.312-.005.002-1.333c.107.002.215.004.322.008.078.004.136.098.135.23l-.007.875zM67.121 9.046h.283c.026-.232.05-.463.077-.694l.443.016.047.679h.281c-.1-1.239-.204-2.513-.313-3.813a8.422 8.422 0 0 0-.325-.063c-.17 1.267-.335 2.562-.493 3.875zm.63-3.193.021.004.02.559.106 1.543a41.912 41.912 0 0 0-.373-.021l.18-1.533.046-.552zM69.737 8.338l-.023-.003-.067-.487a165.32 165.32 0 0 1-.375-2.233c-.099-.036-.199-.07-.298-.104l-.12 3.536h.27l.04-1.145.013-1.546.02.006.07.528c.124.754.248 1.476.373 2.158h.296l.112-3.111a9.555 9.555 0 0 0-.265-.12L69.74 7c0 .449-.002.895-.003 1.339zM71.18 9.05l.019-1.107c.143-.414.28-.78.404-1.093a8.077 8.077 0 0 0-.23-.161c-.071.204-.144.425-.22.66l-.06.208-.018-.007-.058-.258a41.166 41.166 0 0 1-.183-.944c-.086-.05-.172-.098-.259-.145.118.593.237 1.15.362 1.664L70.91 9.05h.271zM56.15 8.068a.308.308 0 0 0-.06-.444l-.42-.309a.326.326 0 0 0-.423.029l-.014-.01c.067-.12.031-.277-.096-.37l-.363-.267a.335.335 0 0 0-.46.061l-.392.498 1.815 1.334.413-.522zm-1.278-.442-.592-.434.186-.236.18-.025.381.28c.078.058.064.137.017.197l-.172.218zm.191.14.15-.189c.066-.082.19-.13.294-.054l.385.284.022.175-.205.26-.646-.475zM57.282 6.843l-.174-.16-.353.357-1.476-1.357-.187.189 1.651 1.517.54-.546zM58.215 6.062l-.157-.178-.389.32-.525-.595.32-.264-.157-.176-.32.262-.48-.546.389-.319-.158-.18-.596.49 1.477 1.674.596-.488zM59.29 5.324l-.136-.192-.423.28-.459-.647.349-.23-.137-.192-.347.23-.42-.592.423-.28-.138-.193-.646.425 1.288 1.817.646-.426zM60.318 4.764a.315.315 0 0 0 .157-.176.3.3 0 0 0-.026-.263l-.745-1.36a.323.323 0 0 0-.192-.164.345.345 0 0 0-.257.021l-.573.291 1.064 1.942.572-.29zm-1.013-1.702.174.05.719 1.313-.056.166-.27.138-.837-1.529.27-.138zM61.426 4.283l-.855-2.041-.251.097.856 2.043.25-.099zM62.311 3.983l-.207-.705-.317-.932.019-.005.176.288.825 1.218.286-.077-.623-2.117-.26.07.227.775.3.862-.02.006-.173-.29-.83-1.217-.284.078.621 2.117.26-.071zM63.759 3.554c.066.044.149.07.262.054l.267-.038a.366.366 0 0 0 .236-.12.315.315 0 0 0 .065-.26l-.135-.871-.503.073.036.23.235-.034.096.615c.01.072-.037.129-.127.143l-.145.02c-.09.013-.15-.029-.161-.1l-.229-1.48c-.01-.07.033-.128.124-.141l.144-.021c.093-.013.153.031.164.1l.04.26.268-.037-.044-.286a.313.313 0 0 0-.122-.215.363.363 0 0 0-.28-.064l-.268.038a.361.361 0 0 0-.24.133.31.31 0 0 0-.057.247l.236 1.53a.317.317 0 0 0 .138.224zM66.265 2.437l.437.015-.035 1.015.27.01.077-2.201-.27-.01-.034.953-.436-.014.033-.953-.27-.009-.077 2.201.27.01.035-1.017zM68.393 3.428l-.506-.074.124-.775.415.062.037-.23-.416-.061.112-.709.507.075.036-.233-.773-.115-.346 2.176.773.114.037-.23zM69.178 3.436l.425.112-.043.395.271.071.202-2.228-.302-.079-.993 2.022.275.072.165-.365zm.476-1.032.118-.298.019.004-.055.315-.103.886-.356-.093.377-.814zM70.908 3.328l.2.078-.115 1.038.266.104.11-1.101.158-.017a.33.33 0 0 0 .18-.188l.195-.463c.04-.1.037-.18.004-.253a.331.331 0 0 0-.182-.173l-.6-.234-.857 2.041.25.099.391-.931zm.374-.893.284.11.074.162-.188.446-.172.069-.282-.11.284-.677zM71.824 4.831l.238.124.964-1.727.3.156.116-.207-.836-.434-.116.207.298.154-.964 1.727zM73.584 5.91l.641-.79.17.128-.408.967.226.17.421-1.028.157.026a.34.34 0 0 0 .227-.132l.32-.393a.306.306 0 0 0 .077-.242.319.319 0 0 0-.125-.215l-.511-.386-1.408 1.734.213.162zm1.257-1.548.242.183.024.173-.308.38-.186.02-.239-.182.467-.574zM74.709 6.713a.34.34 0 0 0 .112.243l.19.186a.35.35 0 0 0 .252.11.323.323 0 0 0 .244-.1l1.384-1.32-.191-.187-1.367 1.305-.191-.017-.104-.1-.01-.186 1.364-1.302-.19-.185-1.383 1.32a.313.313 0 0 0-.11.233zM75.837 8.031l1.057-.751.407-.313.011.015-.382.413-.638.728.145.19.908-.375.521-.23.012.015-.43.283-1.057.75.153.201 1.841-1.309-.221-.289-1.137.472-.311.155-.018-.022.246-.242.801-.91-.22-.29-1.841 1.309.153.2z"/>
        <path d="M131.63 25.421c-.158.017-.333.106-.439.106l-.143-.034c0-1.334-.44-2.315.303-3.574.14-.233.263-.463.208-.61-.049-.142-.297-.192-.701-.069-.39.107-.901.392-1.358.78a1.05 1.05 0 0 0-1.218-.978.887.887 0 0 0-.866-1.066c-.51 0-.9.427-.883.944-.609-.64-1.202-1.07-1.799-1.352.597-.283 1.19-.715 1.799-1.353-.017.516.373.946.882.946a.889.889 0 0 0 .865-1.066 1.046 1.046 0 0 0 1.215-.979c.46.388.971.673 1.36.779.406.125.653.074.702-.068.056-.145-.068-.376-.208-.608-.741-1.263-.301-2.241-.301-3.574l.143-.036c.106 0 .281.09.439.107.443.07.374-.25.353-.554 0-.302 0-.746-.017-1.05-.106-1.012-.9-1.545-1.532-2.15-.336-.323.228-.447.578-.837.46-.496.582-1.512.195-2.083-.97-1.46-3.194-.908-2.946.715-.828-1.072-1.604-1.39-2.871-1.765a1.75 1.75 0 0 0 .598-.801c.176-.462-.055-.462-.407-.566-.105-.037-.142-.074-.105-.271.034-.193.123-.53.141-.765.017-.408-.37-.729-.3-1.102.034-.178.193-.322.247-.407.053-.11 0-.16-.125-.144-.106.02-.298.127-.475.144-.317.034-.759-.16-1.04-.036-.124.054-.175.176-.142.317.109.393.142.749.109 1.07-.973-.266-2.05-.25-3.002.105-.442-.302-.809-.711-1.004-1.21a.108.108 0 0 0-.198 0 2.73 2.73 0 0 1-1.003 1.21 4.822 4.822 0 0 0-3.315 0 2.777 2.777 0 0 1-1.006-1.21.104.104 0 0 0-.193 0c-.21.499-.549.908-1.005 1.21a4.718 4.718 0 0 0-1.604-.28v-.007l-.051.002-.05-.002v.006a4.687 4.687 0 0 0-1.603.281c-.441-.302-.811-.711-1.004-1.21-.037-.087-.161-.087-.195 0a2.804 2.804 0 0 1-1.006 1.21 4.827 4.827 0 0 0-3.317 0 2.797 2.797 0 0 1-1.006-1.21c-.035-.087-.155-.087-.195 0-.192.499-.562.908-1.005 1.21a4.773 4.773 0 0 0-3.298 0 2.578 2.578 0 0 1-1.005-1.21l-.05-.052h-.02l-.034-.014-.035.014-.052.052a2.74 2.74 0 0 1-1.026 1.21 4.879 4.879 0 0 0-1.64-.282c-.6 0-1.148.104-1.659.282-.439-.302-.81-.711-1.004-1.21-.035-.087-.174-.087-.192 0-.194.499-.568.908-1.005 1.21a4.772 4.772 0 0 0-3.298 0 2.7 2.7 0 0 1-1.026-1.21c-.032-.106-.158-.087-.193 0-.192.499-.548.908-1.005 1.21a4.778 4.778 0 0 0-3.3 0c-.441-.302-.813-.711-1.007-1.21-.034-.087-.16-.087-.193 0a2.749 2.749 0 0 1-1.005 1.21 4.82 4.82 0 0 0-3.314 0 2.778 2.778 0 0 1-1.006-1.21c-.036-.087-.162-.087-.196 0-.067.16-.156.32-.266.478-5.403-3.738-13.218-3.74-18.62 0a3.142 3.142 0 0 1-.268-.478c-.037-.087-.16-.087-.193 0a2.785 2.785 0 0 1-1.007 1.21 4.773 4.773 0 0 0-3.297 0 2.704 2.704 0 0 1-1.023-1.21c-.034-.087-.162-.087-.196 0-.191.499-.545.908-1.003 1.21a4.777 4.777 0 0 0-3.3 0c-.44-.302-.81-.711-1.003-1.21-.035-.087-.162-.106-.195 0a2.7 2.7 0 0 1-1.024 1.21 4.773 4.773 0 0 0-3.298 0 2.781 2.781 0 0 1-1.004-1.21c-.02-.087-.158-.087-.194 0-.195.499-.566.908-1.007 1.21a4.97 4.97 0 0 0-3.299 0 2.743 2.743 0 0 1-1.025-1.21l-.033-.052h-.02l-.031-.014-.036.014h-.016l-.037.052h-.019a2.56 2.56 0 0 1-1.004 1.21 4.775 4.775 0 0 0-3.299 0c-.442-.302-.81-.711-1.006-1.21-.033-.087-.156-.087-.194 0a2.77 2.77 0 0 1-1.004 1.21 4.824 4.824 0 0 0-3.316 0 2.787 2.787 0 0 1-1.006-1.21c-.032-.087-.157-.087-.193 0-.192.499-.564.908-1.008 1.21a4.721 4.721 0 0 0-1.582-.286h-.004l-.038-.005v.006c-.567-.001-1.13.089-1.662.285a2.68 2.68 0 0 1-1.007-1.21.103.103 0 0 0-.192 0 2.794 2.794 0 0 1-1.005 1.21 4.832 4.832 0 0 0-3.318 0 2.75 2.75 0 0 1-1.002-1.21c-.038-.087-.16-.087-.196 0-.196.499-.566.908-1.004 1.21-.953-.355-2.033-.371-3-.105-.038-.321 0-.677.105-1.07.035-.14-.016-.263-.143-.317-.278-.124-.722.07-1.038.036-.176-.017-.369-.124-.477-.144-.124-.016-.176.035-.124.144.056.085.213.23.248.407.07.373-.318.694-.3 1.102.02.234.108.572.14.765.036.197 0 .234-.104.271-.353.104-.584.104-.405.566.106.305.3.568.597.8-1.268.375-2.043.694-2.873 1.766.248-1.623-1.975-2.174-2.945-.715-.389.571-.266 1.587.195 2.083.35.39.913.514.579.837-.63.605-1.428 1.138-1.533 2.15-.018.304-.018.748-.018 1.05-.02.304-.089.624.354.554.157-.017.335-.107.44-.107l.143.036c0 1.333.44 2.31-.302 3.574-.142.232-.264.463-.21.608.049.142.298.193.701.068.39-.106.902-.391 1.36-.779a1.05 1.05 0 0 0 1.217.979.888.888 0 0 0 .866 1.066c.51 0 .9-.43.882-.946.609.638 1.203 1.07 1.8 1.353-.597.283-1.191.713-1.8 1.352.018-.517-.371-.944-.88-.944a.89.89 0 0 0-.868 1.066 1.045 1.045 0 0 0-1.215.979c-.46-.389-.97-.674-1.36-.78-.405-.124-.652-.074-.7.069-.056.146.065.376.208.609.742 1.259.301 2.24.301 3.574l-.143.034c-.105 0-.283-.09-.44-.106-.443-.074-.373.249-.35.552 0 .303 0 .747.016 1.053.104 1.011.9 1.545 1.532 2.15.333.32-.23.446-.58.835-.461.498-.581 1.512-.195 2.083.971 1.459 3.194.907 2.947-.714.828 1.07 1.604 1.391 2.872 1.763-.299.232-.491.5-.598.802-.177.462.054.462.405.566.106.036.144.075.106.272-.033.193-.123.53-.142.764-.017.407.37.73.303 1.1-.036.18-.194.323-.25.408-.053.111 0 .162.127.144.104-.019.297-.125.473-.144.316-.032.76.162 1.041.039.124-.053.175-.18.141-.319-.107-.393-.14-.75-.107-1.07.972.267 2.05.249 3-.105.443.303.81.71 1.006 1.21a.106.106 0 0 0 .196 0c.21-.5.56-.907 1.003-1.21a4.83 4.83 0 0 0 3.316 0c.442.303.795.71 1.006 1.21.034.087.158.087.194 0a2.665 2.665 0 0 1 1.004-1.21c.516.187 1.06.276 1.604.28v.008l.05-.004.05.004v-.009a4.756 4.756 0 0 0 1.604-.28c.441.304.812.712 1.005 1.21.036.088.16.088.193 0a2.82 2.82 0 0 1 1.007-1.21 4.827 4.827 0 0 0 3.315 0c.44.304.794.712 1.006 1.21a.106.106 0 0 0 .197 0c.192-.498.562-.906 1.005-1.21a4.778 4.778 0 0 0 3.297 0s1.49-.51 2.098-1.833a2.93 2.93 0 0 0 .213-.785h7.436s.44-.624 1.227-.789c-.685-.133-1.214-.826-1.214-.826H12.576c-1.06-.04-2.225-.163-3.107-.518-2.398-.996-4.445-3.665-3.915-6.408.16-.87.619-1.83 1.344-2.487.739-.66 1.763-.998 2.66-.98 4.464.11 3.16 6.053.652 4.715-.21-.125-.318-.267-.387-.34-.036-.046-.017-.057.054-.033 2.044.586 2.17-1.778 1.13-2.51-.797-.551-1.958-.46-2.595.302-.547.642-.758 1.78-.49 2.6.702 2.135 3.737 2.507 5.307.906 1.233-1.266 1.004-2.67.298-4.112-.122-.266-.141-.46-.034-.444.55.036 1.024 1.14 2.502.428.188-.086.562-.299.674-.519.251-.158.47-.335.657-.527.174.044.337.107.327.227-.121.89-1.816 1.637-2.696 1.407-.088-.018-.529-.25-.634-.197-.037.019-.037.092 0 .214.21.552.318.818.28 1.44a3.98 3.98 0 0 1-1.004 2.44c-1.375 1.545-3.58 1.69-5.203.407-2.416-1.869-1.062-6.28 2.062-5.336.054.016.725.158.39-.143-.123-.108-.457-.232-.848-.284-2.028-.32-3.687 1.424-3.846 3.38-.336 3.861 3.246 5.534 6.545 5.676.102 0 1.215 0 1.286.02h104.028c.075-.02 1.184-.02 1.291-.02 3.295-.142 6.878-1.815 6.543-5.675-.161-1.957-1.818-3.702-3.845-3.38-.387.05-.723.175-.848.283-.335.301.334.16.39.143 3.122-.945 4.479 3.467 2.064 5.336-1.622 1.283-3.831 1.138-5.204-.407a3.977 3.977 0 0 1-1.007-2.44c-.035-.622.072-.888.283-1.44.035-.122.035-.195 0-.213-.108-.054-.547.178-.636.196-.881.23-2.575-.518-2.696-1.407-.011-.12.151-.183.326-.227.186.193.408.37.657.529.113.22.487.43.674.517 1.48.713 1.956-.392 2.503-.428.107-.016.089.178-.034.444-.706 1.443-.934 2.846.3 4.112 1.57 1.601 4.603 1.229 5.307-.906.266-.82.056-1.958-.494-2.6-.633-.763-1.796-.853-2.59-.302-1.041.732-.917 3.096 1.128 2.51.071-.024.088-.013.053.032-.07.074-.176.216-.387.34-2.505 1.338-3.812-4.605.651-4.715.902-.017 1.924.321 2.661.981.727.658 1.185 1.618 1.341 2.487.535 2.743-1.514 5.412-3.913 6.408-.882.355-2.046.479-3.103.518H88.833s-.42.628-1.118.76c.731.198 1.118.832 1.118.832l7.709.01c.077.447.204.789.404 1.148 0 0 .566.951 1.905 1.483a4.783 4.783 0 0 0 3.299 0c.443.304.812.712 1.007 1.21.034.088.156.088.194 0a2.786 2.786 0 0 1 1.005-1.21 4.83 4.83 0 0 0 3.316 0 2.8 2.8 0 0 1 1.005 1.21c.034.088.158.088.194 0 .192-.498.564-.906 1.007-1.21.508.188 1.044.28 1.584.287v.002h.002l.039.004v-.008a4.724 4.724 0 0 0 1.663-.285c.458.304.796.712 1.004 1.21a.104.104 0 0 0 .194 0 2.8 2.8 0 0 1 1.005-1.21 4.836 4.836 0 0 0 3.318 0c.44.304.795.712 1.003 1.21a.106.106 0 0 0 .196 0c.194-.498.564-.906 1.003-1.21.952.355 2.032.373 3 .106.037.32 0 .677-.107 1.07-.033.139.018.266.144.319.279.123.723-.07 1.038-.04.177.02.37.126.478.145.124.018.175-.033.124-.144-.054-.085-.214-.228-.249-.407-.07-.371.317-.694.3-1.1-.018-.235-.105-.572-.139-.765-.036-.197 0-.236.103-.272.353-.104.585-.104.408-.566a1.76 1.76 0 0 0-.599-.802c1.267-.372 2.043-.693 2.872-1.763-.248 1.621 1.976 2.173 2.948.714.386-.571.262-1.585-.197-2.083-.351-.39-.914-.516-.579-.835.632-.605 1.427-1.139 1.533-2.15.017-.306.017-.75.017-1.053.02-.303.089-.626-.354-.552zM5.151 20.846c0 .32-.248.572-.564.572a.574.574 0 0 1-.566-.572c0-.747 1.13-.747 1.13 0zm-.335.875c-.092.103-.159.232-.23.354 0-.105-.018-.231-.054-.336a.58.58 0 0 0 .284-.018zm-1.273-.323c.373 0 .67.304.67.677a.671.671 0 1 1-1.341 0c0-.373.304-.677.671-.677zm.617 1.53c-.14.34-.244.677-.335 1.016a4.977 4.977 0 0 0-.403-.82c.265.037.528-.051.738-.196zM8.15 35.493l.016-.09a2.898 2.898 0 0 1 2.698.053 4.727 4.727 0 0 1-2.714.037zm.087-.358c.072-.23.176-.443.3-.624.088-.033.175-.07.248-.122.496.09.95.073 1.445-.017.51.267 1.132.426 1.799.463l.018.017c-.265.213-.583.373-.916.517a3.162 3.162 0 0 0-2.894-.234zm2.312-.835a3.76 3.76 0 0 0 .775-.338c.124.233.281.445.477.64a3.975 3.975 0 0 1-1.252-.302zm1.676 2.24a2.991 2.991 0 0 0-.884-1.034c.32-.137.618-.318.884-.511.244.193.546.374.865.51a2.723 2.723 0 0 0-.865 1.036zm1.343-1.084c.88-.48 1.937-.48 2.82 0a4.769 4.769 0 0 1-2.82 0zm-.268-.087c-.334-.144-.654-.304-.918-.517h.015a4.742 4.742 0 0 0 1.908-.463c.479.09.953.073 1.43-.017a4.552 4.552 0 0 0 1.814.463l.019.017a4.314 4.314 0 0 1-.918.517 3.163 3.163 0 0 0-3.35 0zm-.671-.747c.196-.215.354-.427.48-.66.263.143.542.267.842.358a4.509 4.509 0 0 1-1.322.302zm1.976-.41c.158-.089.3-.199.422-.304.141.105.264.215.424.303a3.22 3.22 0 0 1-.846 0zm1.465.088c.262-.088.528-.195.775-.338.122.233.28.445.458.64a3.878 3.878 0 0 1-1.233-.302zm1.657 2.24a2.754 2.754 0 0 0-.863-1.034c.317-.137.615-.318.863-.511.262.193.562.374.88.51a3.017 3.017 0 0 0-.88 1.036zm2.77-.878a4.591 4.591 0 0 1-1.413-.206 2.902 2.902 0 0 1 1.408-.35c.483-.002.966.108 1.404.35a4.622 4.622 0 0 1-1.398.206zm.045-.766v-.006l-.05.003-.051-.003v.006a3.126 3.126 0 0 0-1.622.473c-.335-.144-.65-.304-.914-.517a4.623 4.623 0 0 0 1.904-.463c.217.04.423.05.632.05h.015l.086.007v-.007a4.48 4.48 0 0 0 .72-.067c.515.267 1.131.426 1.8.463l.016.017c-.263.213-.578.373-.917.517a3.113 3.113 0 0 0-1.62-.473zm-2.392-.274c.194-.215.354-.427.475-.66.265.143.528.267.831.358-.39.158-.83.266-1.306.302zm2.41-.714c.121.105.263.215.4.303a3.288 3.288 0 0 1-.52.022 4.29 4.29 0 0 1-.315-.021c.12-.07.22-.149.316-.23v.008l.118-.082zm1.019.392c.286-.088.529-.195.776-.338.126.233.283.445.477.64a3.991 3.991 0 0 1-1.253-.302zm1.678 2.24a2.963 2.963 0 0 0-.884-1.034c.32-.137.618-.318.884-.511.246.193.547.374.863.51-.37.273-.67.626-.863 1.036zm1.34-1.084a2.95 2.95 0 0 1 2.823 0 4.782 4.782 0 0 1-2.823 0zm-.265-.087c-.335-.144-.654-.304-.918-.517h.02a4.6 4.6 0 0 0 1.887-.463c.493.09.968.073 1.446-.017a4.58 4.58 0 0 0 1.817.463l.02.017a4.455 4.455 0 0 1-.919.517 3.17 3.17 0 0 0-3.353 0zm-.673-.747c.197-.215.355-.427.478-.66.264.143.548.267.85.358a4.564 4.564 0 0 1-1.328.302zm1.978-.41a2.4 2.4 0 0 0 .424-.304c.143.105.266.215.405.303a3.093 3.093 0 0 1-.829 0zm1.466.088a4.36 4.36 0 0 0 .775-.338c.125.233.283.445.46.64a3.86 3.86 0 0 1-1.235-.302zm1.657 2.24a2.754 2.754 0 0 0-.865-1.034c.318-.137.62-.318.865-.511.267.193.564.374.883.51a2.972 2.972 0 0 0-.883 1.036zm1.36-1.084a2.91 2.91 0 0 1 2.802 0c-.9.284-1.903.284-2.803 0zm3.066-.087a3.136 3.136 0 0 0-3.335 0c-.33-.144-.648-.304-.913-.517a4.588 4.588 0 0 0 1.902-.463c.495.09.952.073 1.447-.017a4.55 4.55 0 0 0 1.8.463l.017.017a3.583 3.583 0 0 1-.918.517zm-4.004-.747c.197-.215.355-.427.48-.66.263.143.527.267.826.358a4.286 4.286 0 0 1-1.305.302zm1.979-.41c.155-.089.298-.199.423-.304.122.105.263.215.404.303a3.086 3.086 0 0 1-.827 0zm1.444.088c.282-.088.547-.195.775-.338.124.233.286.445.478.64a4.089 4.089 0 0 1-1.253-.302zm1.834-1.32h.83a2.256 2.256 0 0 1-.195.68 3.22 3.22 0 0 1-.67-.642l.035-.037zm.545.876a2.12 2.12 0 0 1-.291.443l-.35.34h-.009l-.157-.017a3.111 3.111 0 0 1-.62-.766c.282-.178.53-.392.721-.644.196.252.442.466.706.644zm-.862-.875.02.037c-.179.25-.405.466-.672.642a2.198 2.198 0 0 1-.177-.68h.83zm-1.043 0c.039.287.107.536.214.785-.3.18-.618.3-.97.376a3.482 3.482 0 0 1-.584-.376c.23-.231.426-.498.568-.785h.772zm-1.023 0a2.8 2.8 0 0 1-.472.645 2.77 2.77 0 0 1-.495-.645h.967zm-1.197 0c.14.287.334.553.564.785a3.108 3.108 0 0 1-.616.39 3.105 3.105 0 0 1-1.058-.39c.102-.25.194-.498.21-.785h.9zm-1.942 0h.832a2.173 2.173 0 0 1-.18.679 2.544 2.544 0 0 1-.667-.642l.015-.037zm.567.875c-.16.286-.37.55-.616.783h-.038l-.175-.017c-.25-.233-.46-.48-.602-.766.266-.178.513-.392.707-.644.195.252.443.466.724.644zm-.88-.875.03.037c-.19.25-.402.466-.669.642a2.362 2.362 0 0 1-.192-.68h.83zm-1.044 0c.036.287.105.536.23.785-.3.18-.636.3-.99.376a3.623 3.623 0 0 1-.58-.376 2.38 2.38 0 0 0 .565-.785h.775zm-1.006 0c-.12.231-.299.447-.493.645a2.733 2.733 0 0 1-.474-.645h.967zm-1.217 0c.141.287.336.553.566.785a3.363 3.363 0 0 1-.6.39 3.118 3.118 0 0 1-1.078-.39c.125-.25.196-.498.23-.785h.882zm-1.94 0h.846a2.966 2.966 0 0 1-.194.679 2.885 2.885 0 0 1-.667-.642l.015-.037zm.562.875a3.152 3.152 0 0 1-.616.783h-.033l-.16-.017a2.863 2.863 0 0 1-.617-.766c.282-.178.513-.392.724-.644.193.252.421.466.702.644zm-.862-.875.02.037c-.178.25-.408.466-.675.642a2.326 2.326 0 0 1-.174-.68h.829zm-1.039 0c.018.287.103.536.21.785-.299.18-.634.3-.988.376a2.646 2.646 0 0 1-.563-.376c.227-.231.42-.498.563-.785h.778zm-1.023 0c-.126.231-.28.447-.476.645l-.118-.133v.012a2.58 2.58 0 0 1-.384-.524h.978zm-1.207 0c.14.287.327.553.564.785a3.137 3.137 0 0 1-.619.39 3.142 3.142 0 0 1-1.059-.39c.105-.25.197-.498.211-.785h.903zm-1.942 0h.828a2.263 2.263 0 0 1-.176.679 2.49 2.49 0 0 1-.67-.642l.018-.037zm.56.875a3.173 3.173 0 0 1-.613.783h-.036l-.176-.017c-.246-.233-.459-.48-.599-.766.264-.178.51-.392.705-.644.211.252.442.466.718.644zm-.878-.875.036.037c-.195.25-.405.466-.673.642a3.017 3.017 0 0 1-.192-.68h.829zm-1.04 0c.035.287.105.536.23.785-.302.18-.639.3-.99.376a3.45 3.45 0 0 1-.582-.376c.247-.231.444-.498.564-.785h.778zm-1.005 0c-.124.231-.3.447-.496.645a2.813 2.813 0 0 1-.474-.645h.97zm-1.218 0c.143.287.337.553.565.785a3.416 3.416 0 0 1-.6.39 3.217 3.217 0 0 1-1.076-.39 2.37 2.37 0 0 0 .229-.785h.882zm-1.923 0h.832a3.107 3.107 0 0 1-.194.679 2.863 2.863 0 0 1-.675-.642l.037-.037zm.545.875a3.206 3.206 0 0 1-.613.783h-.038l-.158-.017a3.19 3.19 0 0 1-.617-.766c.281-.178.512-.392.724-.644.192.252.438.466.702.644zm-.863-.875.02.037c-.18.25-.407.466-.67.642a2.332 2.332 0 0 1-.18-.608c.283-.034.548-.05.83-.071zm-2.084.43c.338-.143.69-.25 1.045-.321.05.25.106.463.21.676-.297.18-.635.3-.988.376a2.685 2.685 0 0 1-.563-.376c.104-.124.21-.231.296-.356zm-.455.497c.125.105.263.215.405.303a3.09 3.09 0 0 1-.827 0c.139-.088.28-.197.422-.303zm-.688-1.956c.124.053.633.264.444.46-.444-.16-1.062-.355-1.592-.569-2.467-.96-3.684-2.579-4.512-5.018-.196-.532-.39-1.046-.478-1.317-.07-.178-.1-.213-.089-.106.09.767.335 2.048.654 2.92.562 1.53 1.659 2.652 3.12 3.38.46.232 1.04.466 1.342.624.316.157.352.212.247.248-.088.018-.335.018-.725-.09-1.093-.302-2.133-.763-2.804-1.726-.122-.178-.23-.318-.283-.318-.05.016-.084.175-.05.318.07.301.37.534.122.356a8.543 8.543 0 0 0-.513-.39c-.685-.48-1.779-.072-1.71.531a.306.306 0 0 0 .23.252c.355.072.512-.252.617-.252.268-.033.335.482.32.679-.142.746-1.395.57-1.838-.053-.297-.43-.21-1.246.16-1.62.46-.465 1.062-.178 1.587-.215.387-.035.758-.391.387-.708-.193-.144-.528-.288-.933-.483-1.201-.604-1.694-.998-2.095-2.312-.11-.337-.161-.712.33-.481.583.283.778.855 1.076 1.066.247.163.426-.034.354-.303-.141-.511-.527-.46-.512-1.155.036-1.565.705-1.87-.264-3.452-.105-.197-.141-.338-.09-.374.656-.482 2.187 2.525 2.364 3.186-.103 3.364 2.206 5.694 5.134 6.922zM126.85 18.288a.56.56 0 0 1 .565-.569c.3 0 .565.25.565.569 0 .748-1.13.748-1.13 0zm.336-.874c.091-.104.159-.229.229-.353 0 .106.018.23.055.337a.553.553 0 0 0-.284.016zm1.272.323a.67.67 0 0 1-.668-.676.67.67 0 0 1 .668-.677c.367 0 .669.302.669.677a.675.675 0 0 1-.669.676zm-.619-1.53c.141-.338.246-.676.336-1.016.105.285.244.552.404.82-.264-.037-.528.052-.74.196zm-3.526-8.913c2.466.959 3.684 2.578 4.512 5.016.196.533.39 1.05.477 1.318.071.18.1.215.089.107-.089-.766-.334-2.048-.653-2.922-.563-1.53-1.659-2.649-3.121-3.38-.459-.23-1.042-.463-1.341-.623-.318-.16-.352-.21-.247-.247.089-.02.335-.02.726.087 1.092.302 2.129.767 2.801 1.727.123.18.234.319.283.319.051-.016.086-.174.051-.319-.068-.302-.369-.533-.123-.355.106.088.337.264.513.39.689.483 1.782.072 1.712-.532a.306.306 0 0 0-.23-.25c-.354-.073-.512.25-.617.25-.268.035-.335-.481-.32-.677.144-.748 1.393-.572 1.837.05.299.43.21 1.25-.16 1.62-.459.466-1.06.18-1.587.218-.386.034-.758.39-.386.708.194.143.528.286.932.483 1.201.603 1.696.997 2.096 2.31.109.339.162.714-.331.483-.581-.284-.777-.856-1.077-1.067-.245-.16-.424.035-.353.302.142.513.528.46.512 1.156-.035 1.567-.705 1.868.264 3.453.105.197.141.335.09.373-.654.48-2.187-2.527-2.363-3.186.104-3.365-2.206-5.694-5.133-6.921-.125-.055-.635-.265-.446-.46.446.158 1.062.354 1.593.569zm-46.365-2.37a3.23 3.23 0 0 1 .829 0c-.138.09-.282.198-.403.303-.143-.105-.267-.214-.425-.303zm.267.446-.054.053c-.07-.071-.126-.16-.195-.232.089.056.161.126.249.18zm.159.141c.193.199.35.412.475.645h-.14c-.142-.2-.269-.375-.424-.573l.089-.072zm.155-.14c.18-.144.373-.287.6-.39.391.069.743.192 1.062.39-.109.249-.178.495-.214.785h-.882a2.948 2.948 0 0 0-.566-.786zm.917-.553c.408-.16.848-.267 1.324-.303a3.376 3.376 0 0 0-.476.658 4.39 4.39 0 0 0-.848-.355zm.937.657c.264.177.477.391.67.643l-.037.038h-.825a2.21 2.21 0 0 1 .192-.68zm.087-.196c.159-.284.353-.55.617-.782h.034l.16.018c.248.232.46.48.618.764a2.81 2.81 0 0 0-.72.644 3.123 3.123 0 0 0-.709-.644zm1.519.196c.088.215.16.448.175.68h-.83l-.016-.037c.177-.252.407-.466.67-.643zm.088-.302a2.765 2.765 0 0 0-.478-.64c.462.036.864.14 1.252.304-.28.087-.546.193-.774.336zm1.055-.178c.213.109.408.232.586.375-.23.231-.424.496-.566.786h-.776c-.02-.29-.11-.536-.212-.786.3-.18.617-.3.968-.375zm.34-.071c.157-.017.314-.036.474-.036.122 0 .23.02.355.036-.164.09-.286.198-.427.303a3.71 3.71 0 0 0-.403-.303zm.402.587c.194.199.374.412.499.645H83.4c.12-.233.281-.446.474-.645zm.161-.14c.175-.144.385-.287.619-.39.387.069.739.192 1.056.39-.106.249-.177.495-.211.785h-.9a2.987 2.987 0 0 0-.564-.786zm.934-.553c.388-.16.848-.267 1.305-.303-.176.214-.354.427-.478.658a3.887 3.887 0 0 0-.827-.355zm.916.657c.263.177.493.391.671.643l-.016.038h-.83c.016-.233.086-.466.175-.68zm.092-.196c.155-.284.366-.55.615-.782h.053l.159.018c.244.232.458.48.599.764-.265.181-.51.393-.705.644a2.91 2.91 0 0 0-.721-.644zm1.514.196c.107.215.16.448.194.68h-.828l-.037-.037c.194-.252.426-.466.67-.643zm.088-.302a3.26 3.26 0 0 0-.458-.64c.44.036.865.14 1.232.304a4.118 4.118 0 0 0-.774.336zm1.077-.178c.209.109.404.232.579.375-.227.231-.42.496-.562.786h-.776a2.926 2.926 0 0 0-.212-.786c.283-.18.617-.3.971-.375zm.334-.071c.283-.036.546-.036.83 0-.161.09-.3.198-.425.303a3.584 3.584 0 0 0-.404-.303zm.405.587c.195.199.354.412.477.645h-.969c.122-.233.298-.446.492-.645zm.16-.14c.176-.144.39-.287.599-.39.388.069.758.192 1.077.39-.122.249-.196.495-.23.785h-.88a3.032 3.032 0 0 0-.565-.786zm.917-.553c.405-.16.844-.267 1.324-.303a3.303 3.303 0 0 0-.48.658 4.36 4.36 0 0 0-.844-.355zm.936.657c.263.177.492.391.67.643l-.02.038h-.827c.015-.233.085-.466.177-.68zm.085-.196c.162-.284.372-.55.621-.782h.033l.159.018c.264.232.457.48.62.764a2.776 2.776 0 0 0-.709.644 3.12 3.12 0 0 0-.724-.644zm1.518.196c.088.215.16.448.176.68h-.828l-.018-.037c.177-.252.405-.466.67-.643zm.088-.302a2.718 2.718 0 0 0-.476-.64c.46.036.88.14 1.254.304a3.72 3.72 0 0 0-.778.336zm1.077-.178c.21.109.406.232.584.375-.25.231-.444.496-.584.786h-.758a2.384 2.384 0 0 0-.23-.786c.298-.18.633-.3.988-.375zm.315-.071c.16-.017.32-.036.478-.036.125 0 .248.02.352.036-.14.09-.281.198-.422.303-.122-.105-.248-.214-.408-.303zm.408.587c.211.199.371.412.494.645h-.97c.125-.233.281-.446.476-.645zm.16-.14c.191-.144.386-.287.615-.39.389.069.743.192 1.059.39-.106.249-.174.495-.213.785h-.898a2.35 2.35 0 0 0-.564-.786zm.932-.553a4.57 4.57 0 0 1 1.326-.303 3.23 3.23 0 0 0-.477.658 4.414 4.414 0 0 0-.85-.355zm.936.657c.246.177.474.391.67.643l-.033.038h-.831a2.26 2.26 0 0 1 .194-.68zm.09-.196a2.58 2.58 0 0 1 .618-.782h.033l.158.018c.247.232.46.48.618.764-.282.181-.53.393-.722.644a3.185 3.185 0 0 0-.706-.644zm1.515.196c.09.215.159.448.177.68h-.83l-.018-.037c.177-.252.404-.466.671-.643zm.09-.302a2.861 2.861 0 0 0-.478-.64c.44.036.865.14 1.254.304a3.251 3.251 0 0 0-.776.336zm1.056-.178c.213.109.406.232.585.375a2.99 2.99 0 0 0-.568.786h-.773a2.79 2.79 0 0 0-.213-.786c.3-.18.617-.3.97-.375zm.335-.071c.284-.036.549-.036.829 0-.158.09-.302.198-.423.303a3.505 3.505 0 0 0-.406-.303zm.406.587c.197.199.374.412.492.645h-.967c.122-.233.282-.446.475-.645zm.159-.14c.177-.144.389-.287.616-.39.371.069.744.192 1.057.39-.101.249-.191.495-.207.785h-.9a2.975 2.975 0 0 0-.566-.786zm.935-.553c.388-.16.828-.267 1.306-.303a3.271 3.271 0 0 0-.478.658 4.314 4.314 0 0 0-.828-.355zm.919.657c.262.177.493.391.667.643l-.015.038h-.833c.02-.233.09-.466.181-.68zm.085-.196c.16-.284.37-.55.617-.782h.04l.172.018c.25.232.462.48.603.764a3.067 3.067 0 0 0-.706.644 2.898 2.898 0 0 0-.726-.644zm1.148-.747c.441.037.864.141 1.234.305a4.25 4.25 0 0 0-.775.336 3.375 3.375 0 0 0-.459-.64zm.37.943c.106.215.159.448.195.68h-.832l-.032-.037c.193-.252.404-.466.669-.643zm.176-.105c.3-.18.637-.3.991-.375.209.109.401.232.579.375-.245.231-.441.496-.563.786h-.776a2.372 2.372 0 0 0-.231-.786zm1.325-.446a3.23 3.23 0 0 1 .828 0c-.16.09-.299.198-.423.303-.144-.105-.266-.214-.405-.303zm.405.587c.194.199.352.412.476.645h-.969c.121-.233.298-.446.493-.645zm.158-.14c.174-.144.387-.287.601-.39.385.069.76.192 1.076.39a2.3 2.3 0 0 0-.229.785h-.883a2.971 2.971 0 0 0-.565-.786zm.916-.553a4.55 4.55 0 0 1 1.326-.303 3.271 3.271 0 0 0-.478.658 4.338 4.338 0 0 0-.848-.355zm.937.657c.262.177.473.391.668.643l-.016.038h-.847c.037-.233.106-.466.195-.68zm.089-.196c.157-.284.368-.55.617-.782h.034l.161.018c.26.232.457.48.615.764a3.224 3.224 0 0 0-.725.644 2.704 2.704 0 0 0-.702-.644zm1.519.196c.087.215.157.448.174.68h-.83l-.018-.037c.177-.252.408-.466.674-.643zm.087-.302a2.874 2.874 0 0 0-.477-.64c.459.036.862.14 1.252.304a3.634 3.634 0 0 0-.775.336zm1.074-.178a2.6 2.6 0 0 1 .564.375c-.228.231-.422.496-.564.786h-.777a2.325 2.325 0 0 0-.21-.786c.298-.18.634-.3.987-.375zm.721.232a3.719 3.719 0 0 0-.401-.303c.175-.022.346-.027.52-.02.104.004.208.008.317.02-.12.069-.22.151-.317.228v-.007l-.119.082zm0 .284.119.131v-.01c.148.164.285.336.383.524h-.975c.124-.233.28-.446.473-.645zm.168-.14a2.93 2.93 0 0 1 .618-.39c.373.069.742.192 1.059.39-.103.249-.197.495-.21.785h-.903a2.839 2.839 0 0 0-.564-.786zm.935-.553c.391-.16.832-.267 1.305-.303a3.203 3.203 0 0 0-.473.658 4.219 4.219 0 0 0-.832-.355zm.92.657c.264.177.495.391.669.643l-.019.038h-.828c.016-.233.09-.466.178-.68zm.09-.196a3.16 3.16 0 0 1 .615-.782h.036l.174.018c.246.232.46.48.599.764a3.103 3.103 0 0 0-.705.644 3.282 3.282 0 0 0-.719-.644zm1.144-.747c.44.037.862.141 1.233.305a4.133 4.133 0 0 0-.775.336 3.242 3.242 0 0 0-.458-.64zm.372.943c.086.215.156.448.191.68h-.827l-.037-.037c.192-.252.405-.466.673-.643zm.173-.105c.301-.18.637-.3.99-.375.21.109.405.232.583.375-.249.231-.446.496-.564.786h-.779a2.302 2.302 0 0 0-.23-.786zm1.305-.446c.284-.036.566-.036.848 0-.158.09-.302.198-.425.303-.139-.105-.262-.214-.423-.303zm.423.587c.196.199.354.412.479.645h-.973c.128-.233.301-.446.494-.645zm.16-.14c.175-.144.389-.287.599-.39.39.069.742.192 1.077.39a2.37 2.37 0 0 0-.23.785h-.881a3.064 3.064 0 0 0-.565-.786zm.917-.553c.406-.16.844-.267 1.323-.303a3.357 3.357 0 0 0-.479.658 4.328 4.328 0 0 0-.844-.355zm.932.657c.266.177.48.391.674.643l-.034.038h-.833a3.15 3.15 0 0 1 .193-.68zm.092-.196c.158-.284.369-.55.614-.782h.039l.159.018c.245.232.458.48.615.764-.281.181-.51.393-.724.644a3.012 3.012 0 0 0-.703-.644zm1.515.196c.089.197.143.391.178.607-.281.036-.547.052-.831.074l-.017-.038c.179-.252.407-.466.67-.643zm.089-.302a2.696 2.696 0 0 0-.476-.64c.46.036.864.14 1.253.304a3.696 3.696 0 0 0-.777.336zm1.079-.178c.212.109.403.232.564.375-.107.126-.212.231-.3.353a5.234 5.234 0 0 1-1.043.322 2.655 2.655 0 0 0-.211-.675c.299-.18.635-.3.99-.375zm.316-.071c.279-.036.548-.036.827 0-.139.09-.279.198-.423.303a3.86 3.86 0 0 0-.404-.303zm1.779-1.28-.016.089a2.89 2.89 0 0 1-2.698-.054 4.733 4.733 0 0 1 2.714-.036zm-.086.357a2.355 2.355 0 0 1-.298.624 1 1 0 0 0-.249.122 3.9 3.9 0 0 0-1.446.018c-.511-.268-1.132-.429-1.799-.462l-.018-.02c.264-.211.582-.371.916-.516a3.162 3.162 0 0 0 2.894.234zm-3.989-1.405c.214.407.513.762.885 1.034a4.669 4.669 0 0 0-.885.513 3.86 3.86 0 0 0-.863-.513c.371-.272.673-.627.863-1.034zm-1.343 1.083a2.931 2.931 0 0 1-2.818 0 4.781 4.781 0 0 1 2.818 0zm.269.088c.333.145.653.305.919.515h-.016a4.808 4.808 0 0 0-1.908.465 3.815 3.815 0 0 0-1.43.018 4.505 4.505 0 0 0-1.815-.462l-.017-.02c.281-.211.583-.371.916-.516a3.156 3.156 0 0 0 3.351 0zm-4.428-1.171c.193.407.495.762.865 1.034a3.991 3.991 0 0 0-.865.513 4.507 4.507 0 0 0-.88-.513c.365-.272.669-.627.88-1.034zm-2.77.877c.479 0 .961.063 1.416.206a2.876 2.876 0 0 1-1.41.35 2.845 2.845 0 0 1-1.406-.35 4.676 4.676 0 0 1 1.4-.206zm-.044.766v.006h.101V4.24a3.116 3.116 0 0 0 1.623-.472c.334.145.647.305.916.515-.706.02-1.36.198-1.906.465a3.558 3.558 0 0 0-.633-.05h-.015l-.086-.008v.009c-.239.006-.476.02-.72.067a4.378 4.378 0 0 0-1.799-.462l-.017-.02c.263-.211.579-.371.917-.516a3.099 3.099 0 0 0 1.619.472zm-2.717-1.643c.212.407.513.762.886 1.034a4.646 4.646 0 0 0-.886.513 3.914 3.914 0 0 0-.861-.513c.371-.272.67-.627.861-1.034zm-1.337 1.083a2.941 2.941 0 0 1-2.823 0 4.798 4.798 0 0 1 2.823 0zm.264.088c.335.145.653.305.917.515h-.017a4.667 4.667 0 0 0-1.889.465 3.902 3.902 0 0 0-1.447.018 4.51 4.51 0 0 0-1.816-.462l-.02-.02c.286-.211.586-.371.917-.516a3.163 3.163 0 0 0 3.355 0zm-4.427-1.171c.193.407.493.762.863 1.034a3.86 3.86 0 0 0-.863.513 4.66 4.66 0 0 0-.884-.513c.37-.272.671-.627.884-1.034zm-1.361 1.083c-.88.482-1.92.482-2.803 0a4.732 4.732 0 0 1 2.803 0zm.268.088c.33.145.65.305.914.515a4.66 4.66 0 0 0-1.903.465 3.9 3.9 0 0 0-1.446.018 4.496 4.496 0 0 0-1.801-.462l-.015-.02c.263-.211.564-.371.918-.516a3.125 3.125 0 0 0 3.333 0zm-4.428-1.171c.21.407.51.762.882 1.034-.34.137-.617.319-.882.513a4.48 4.48 0 0 0-.867-.513c.374-.272.672-.627.867-1.034zm-2.753.872c.494 0 .97.068 1.41.211a2.946 2.946 0 0 1-1.41.356c-.513 0-.987-.123-1.41-.356a4.576 4.576 0 0 1 1.41-.211zm0 .78a3.2 3.2 0 0 0 1.676-.48c.336.144.634.304.919.514h-.02c-.704.02-1.34.198-1.905.465-.211-.035-.442-.074-.67-.074-.265 0-.513.04-.775.092a4.37 4.37 0 0 0-1.799-.462l-.018-.02c.265-.211.582-.371.916-.516.495.305 1.06.481 1.676.481zM92.2 2.596c.212.407.511.762.882 1.034-.32.137-.617.319-.866.513a4.557 4.557 0 0 0-.881-.513c.37-.272.67-.627.865-1.034zM90.86 3.679a2.94 2.94 0 0 1-2.823 0 4.798 4.798 0 0 1 2.823 0zm.266.088c.334.145.652.305.915.515h-.017a4.648 4.648 0 0 0-1.887.465 3.908 3.908 0 0 0-1.447.018 4.516 4.516 0 0 0-1.818-.462l-.015-.02c.281-.211.583-.371.916-.516a3.158 3.158 0 0 0 3.353 0zm-4.428-1.171c.195.407.493.762.864 1.034a4.395 4.395 0 0 0-.864.513 4.19 4.19 0 0 0-.88-.513c.369-.272.668-.627.88-1.034zm-1.36 1.083a2.905 2.905 0 0 1-2.804 0 4.737 4.737 0 0 1 2.805 0zm.266.088c.352.145.65.305.916.515a4.669 4.669 0 0 0-1.903.465c-.233-.035-.441-.074-.672-.074-.263 0-.528.04-.776.092a4.432 4.432 0 0 0-1.798-.462l-.015-.02c.26-.211.58-.371.911-.516a3.131 3.131 0 0 0 3.337 0zm-4.426-1.171c.21.407.51.762.883 1.034-.32.137-.617.319-.883.513a4.593 4.593 0 0 0-.864-.513 2.8 2.8 0 0 0 .864-1.034zm-1.34 1.083a2.936 2.936 0 0 1-2.821 0 4.79 4.79 0 0 1 2.82 0zm-3.088.088a3.156 3.156 0 0 0 3.351 0c.336.145.636.305.915.515H81a4.834 4.834 0 0 0-1.904.465 3.817 3.817 0 0 0-1.43.018l-.14-.053c-.284-.322-.58-.603-.9-.889l.125-.056zm-1.073-1.171c.191.407.49.762.861 1.034l-.087.05a21.991 21.991 0 0 0-.971-.765c.071-.09.12-.196.197-.319zm-19.371 0c.07.123.123.229.196.319-.337.25-.652.497-.97.764l-.092-.05c.375-.27.673-.626.866-1.033zm-1.34 1.083a2.937 2.937 0 0 1-2.821 0 4.79 4.79 0 0 1 2.82 0zm.265.088.122.056c-.316.286-.616.567-.897.89l-.14.052a3.817 3.817 0 0 0-1.431-.018 4.74 4.74 0 0 0-1.903-.465h-.02c.281-.21.582-.37.918-.515a3.156 3.156 0 0 0 3.351 0zm-1.623 1.46a3.917 3.917 0 0 0-.405-.303c.282-.036.55-.036.83 0-.16.09-.28.198-.425.303zm.406-.036c-.071.071-.123.16-.194.232l-.054-.053c.088-.053.162-.123.248-.18zm-43.77-.196c.352.075.69.196.99.375a2.74 2.74 0 0 0-.213.675 5.314 5.314 0 0 1-1.042-.322c-.087-.122-.193-.227-.297-.353.16-.143.35-.266.562-.375zm-.72.232c-.144-.105-.283-.214-.424-.303.28-.036.55-.036.83 0-.144.09-.28.198-.407.303zm1.021-.39a3.985 3.985 0 0 1 1.254-.305c-.194.197-.354.41-.476.64a3.651 3.651 0 0 0-.778-.335zm.866.638c.265.177.493.391.671.643l-.02.038c-.28-.022-.547-.038-.828-.074a2.4 2.4 0 0 1 .177-.607zm.087-.196a3.2 3.2 0 0 1 .618-.764l.158-.018h.038c.246.232.458.498.614.782a3.03 3.03 0 0 0-.703.644 3.208 3.208 0 0 0-.725-.644zm1.13-.764a4.52 4.52 0 0 1 1.322.303c-.3.089-.581.212-.845.355a3.365 3.365 0 0 0-.477-.658zm.39.96c.087.215.156.448.192.68h-.829l-.037-.037c.195-.252.409-.466.673-.643zm.173-.105c.335-.197.69-.32 1.074-.39.214.104.426.247.603.39-.23.231-.421.496-.566.786h-.882a2.353 2.353 0 0 0-.23-.786zm1.412-.446c.283-.036.564-.036.847 0-.16.09-.283.198-.425.303a2.692 2.692 0 0 0-.422-.303zm.422.587c.195.199.37.412.496.645h-.972c.126-.233.284-.446.476-.645zm.16-.14c.174-.144.37-.268.583-.376.35.075.686.196.988.375a2.34 2.34 0 0 0-.23.786h-.779a2.315 2.315 0 0 0-.562-.786zm.881-.534a3.898 3.898 0 0 1 1.235-.305c-.176.197-.334.41-.46.64a4.059 4.059 0 0 0-.775-.335zm.864.638c.266.177.477.391.671.643l-.036.038h-.827c.034-.233.103-.466.192-.68zm.089-.196c.142-.284.353-.532.6-.764l.173-.018h.037c.25.232.46.498.615.782a3.22 3.22 0 0 0-.718.644 3.107 3.107 0 0 0-.707-.644zm1.518.196c.087.215.158.448.174.68h-.827l-.018-.037c.174-.252.407-.466.67-.643zm.087-.302a3.314 3.314 0 0 0-.476-.658 4.32 4.32 0 0 1 1.306.303c-.303.089-.567.212-.83.355zm1.148-.193c.228.104.441.247.616.39-.234.231-.424.496-.563.786h-.903c-.012-.29-.104-.536-.211-.786.319-.197.689-.32 1.061-.39zm.352-.056a3.46 3.46 0 0 1 .82 0c-.14.09-.278.197-.404.302a2.558 2.558 0 0 0-.416-.302zm.416.595v-.003c.193.196.352.41.474.64h-.958c.12-.23.293-.443.484-.637zm.157-.149c.157-.143.368-.266.563-.375.352.075.69.196.988.375-.108.25-.195.496-.213.786h-.775a3.01 3.01 0 0 0-.563-.786zm.864-.533a3.982 3.982 0 0 1 1.25-.305c-.192.197-.35.41-.473.64a3.442 3.442 0 0 0-.777-.335zm.863.638c.264.177.493.391.67.643l-.017.038h-.83c.018-.233.091-.466.177-.68zm.088-.196c.161-.284.37-.532.618-.764l.16-.018h.033c.267.232.46.498.62.782a3.029 3.029 0 0 0-.706.644 3.248 3.248 0 0 0-.725-.644zm1.13-.764c.476.036.916.143 1.32.303a4.53 4.53 0 0 0-.845.355 3.376 3.376 0 0 0-.476-.658zm.389.96c.087.215.156.448.193.68h-.83l-.035-.037c.193-.252.406-.466.672-.643zm.176-.105c.33-.197.687-.32 1.075-.39.21.104.422.247.6.39-.23.231-.425.496-.565.786h-.884a2.326 2.326 0 0 0-.226-.786zm1.412-.446a3.34 3.34 0 0 1 .842 0c-.155.09-.28.198-.423.303a2.894 2.894 0 0 0-.42-.303zm.42.587c.212.199.369.412.494.645h-.97c.125-.233.284-.446.475-.645zm.16-.14c.177-.144.37-.268.581-.376.354.075.688.196.985.375-.12.25-.192.496-.227.786h-.774a2.395 2.395 0 0 0-.564-.786zm.882-.534c.37-.164.795-.268 1.235-.305-.18.197-.334.41-.46.64a4.04 4.04 0 0 0-.775-.335zm.864.638c.262.177.475.391.67.643l-.033.038h-.833a2.91 2.91 0 0 1 .197-.68zm.09-.196c.139-.284.35-.532.598-.764l.177-.018h.033c.247.232.46.498.62.782a3.195 3.195 0 0 0-.725.644 3.185 3.185 0 0 0-.704-.644zm1.513.196c.09.215.16.448.18.68H28.9l-.02-.037c.173-.252.403-.466.668-.643zm.09-.302a3.205 3.205 0 0 0-.477-.658c.477.036.919.143 1.307.303-.3.089-.563.212-.83.355zm1.147-.193c.228.104.44.247.617.39-.23.231-.427.496-.565.786h-.903c-.015-.29-.102-.536-.205-.786.317-.197.685-.32 1.056-.39zm.354-.056c.28-.036.545-.036.828 0-.14.09-.283.198-.405.303a2.81 2.81 0 0 0-.424-.303zm.422.587c.194.199.355.412.493.645h-.989c.144-.233.302-.446.496-.645zm.157-.14c.178-.144.374-.267.582-.376.354.075.672.196.972.375-.108.25-.176.496-.213.786h-.775a2.945 2.945 0 0 0-.566-.786zm.864-.534a4.13 4.13 0 0 1 1.251-.305c-.192.197-.35.41-.474.64a3.314 3.314 0 0 0-.777-.335zm.866.638c.266.177.493.391.688.643l-.037.038h-.827a2.98 2.98 0 0 1 .176-.68zm.105-.196c.141-.284.352-.532.6-.764l.158-.018h.033c.268.232.48.498.62.782a3.028 3.028 0 0 0-.704.644 3.071 3.071 0 0 0-.707-.644zm1.519.196c.086.215.14.448.173.68h-.826l-.036-.037c.197-.252.422-.466.689-.643zm.086-.302a4.128 4.128 0 0 0-.492-.658c.475.036.915.143 1.324.303-.303.089-.582.212-.832.355zm1.145-.193c.231.104.426.247.618.39-.245.231-.44.496-.565.786h-.898a2.614 2.614 0 0 0-.212-.786c.32-.197.672-.32 1.057-.39zm.354-.056c.11-.017.229-.036.354-.036.157 0 .318.019.478.036-.16.09-.284.198-.407.303-.144-.105-.284-.214-.425-.303zm.425.587c.194.199.352.412.475.645h-.968c.123-.233.28-.446.493-.645zm.157-.14c.159-.144.354-.267.566-.376.353.075.685.196.988.375-.108.25-.194.496-.213.786h-.775a2.896 2.896 0 0 0-.566-.786zm.865-.534a3.87 3.87 0 0 1 1.252-.305 2.73 2.73 0 0 0-.473.64 3.65 3.65 0 0 0-.78-.335zm.866.638c.265.177.494.391.671.643l-.017.038h-.831c.019-.233.09-.466.177-.68zm.086-.196c.16-.284.355-.532.62-.764l.154-.018h.039c.247.232.458.498.615.782-.28.181-.507.393-.702.644a3.245 3.245 0 0 0-.726-.644zm1.127-.764c.477.036.92.143 1.327.303a4.48 4.48 0 0 0-.85.355 3.164 3.164 0 0 0-.477-.658zm.388.96c.09.215.162.448.198.68h-.848l-.019-.037a2.57 2.57 0 0 1 .669-.643zm.179-.105c.317-.197.688-.32 1.077-.39.212.104.422.247.6.39-.232.231-.425.496-.565.786h-.881a2.398 2.398 0 0 0-.231-.786zm1.412-.446c.283-.036.546-.036.827 0-.143.09-.281.198-.403.303a2.796 2.796 0 0 0-.424-.303zm.424.587c.193.199.371.412.493.645h-.972c.125-.233.283-.446.479-.645zm.157-.14c.175-.144.371-.267.584-.376.35.075.687.196.969.375-.105.25-.177.496-.21.786h-.775a2.686 2.686 0 0 0-.569-.786zm.881-.534a3.873 3.873 0 0 1 1.234-.305c-.176.197-.334.41-.456.64a4.17 4.17 0 0 0-.778-.335zm.866.638c.246.177.475.391.672.643l-.039.038h-.827a2.31 2.31 0 0 1 .194-.68zm.089-.196c.14-.284.352-.532.598-.764l.178-.018h.035c.246.232.457.498.614.782a2.948 2.948 0 0 0-.721.644 3.137 3.137 0 0 0-.704-.644zm1.515.196c.09.215.16.448.177.68h-.828l-.02-.037c.177-.252.407-.466.671-.643zm.09-.302c-.126-.231-.302-.444-.478-.658a4.44 4.44 0 0 1 1.308.303c-.302.089-.583.212-.83.355zm1.144-.193c.23.104.444.247.617.39-.227.231-.42.496-.563.786h-.9c-.015-.29-.105-.536-.211-.786.316-.197.67-.32 1.057-.39zm.353-.056c.123-.017.248-.036.371-.036.156 0 .302.019.458.036-.14.09-.281.198-.405.303-.14-.105-.264-.214-.423-.303zm.424.587c.194.199.354.412.475.645h-.967c.121-.233.298-.446.492-.645zm.16-.14a3.32 3.32 0 0 1 .58-.376c.353.075.672.196.97.375-.104.25-.175.496-.21.786h-.777a3.052 3.052 0 0 0-.563-.786zm.865-.534a4.093 4.093 0 0 1 1.251-.305 2.82 2.82 0 0 0-.479.64 3.202 3.202 0 0 0-.772-.335zm.86.638c.267.177.497.391.673.643l-.018.038h-.83c.02-.233.087-.466.176-.68zm.088-.196c.161-.284.372-.532.618-.764l.162-.018h.034c.266.232.476.498.616.782-.265.181-.51.393-.707.644a2.758 2.758 0 0 0-.723-.644zm1.522.196c.103.215.156.448.194.68h-.831l-.034-.037c.193-.252.424-.466.67-.643zm.085-.302a3.237 3.237 0 0 0-.475-.658c.475.036.917.143 1.323.303-.3.09-.585.212-.848.355zm1.165-.193c.229.104.423.247.617.39-.243.231-.44.496-.563.786h-.901a2.75 2.75 0 0 0-.21-.786c.316-.197.67-.32 1.057-.39zm.758.531.089.071c-.142.199-.284.375-.424.574h-.14c.125-.233.28-.446.475-.645zm-2.807-2.915c.197.407.496.762.868 1.034a4.51 4.51 0 0 0-.868.513 4.516 4.516 0 0 0-.88-.513 2.96 2.96 0 0 0 .88-1.034zm-1.356 1.083a2.905 2.905 0 0 1-2.805 0 4.737 4.737 0 0 1 2.805 0zm.266.088c.352.145.652.305.918.515l-.02.02a4.52 4.52 0 0 0-1.8.463 3.702 3.702 0 0 0-.757-.092c-.248 0-.46.04-.688.074a4.65 4.65 0 0 0-1.903-.465c.266-.21.562-.37.916-.515a3.125 3.125 0 0 0 3.334 0zm-4.428-1.171c.212.407.513.762.885 1.034-.32.137-.62.319-.885.513a4.51 4.51 0 0 0-.863-.513c.367-.272.668-.627.863-1.034zm-1.34 1.083a2.939 2.939 0 0 1-2.823 0 4.794 4.794 0 0 1 2.822 0zm.262.088c.338.145.636.305.918.515l-.016.02a4.497 4.497 0 0 0-1.815.463 3.91 3.91 0 0 0-1.449-.018 4.655 4.655 0 0 0-1.886-.465h-.016c.263-.21.58-.37.915-.515a3.153 3.153 0 0 0 3.35 0zm-4.423-1.171c.195.407.491.762.862 1.034a3.915 3.915 0 0 0-.862.513 4.647 4.647 0 0 0-.884-.513c.372-.272.67-.627.884-1.034zm-2.771.872c.493 0 .97.068 1.413.211a2.92 2.92 0 0 1-1.413.356c-.494 0-.99-.123-1.41-.356.44-.143.916-.211 1.41-.211zm0 .78c.619 0 1.18-.176 1.674-.48.337.144.653.304.916.514l-.016.02c-.67.034-1.289.195-1.798.463a3.747 3.747 0 0 0-.776-.091c-.23 0-.458.038-.67.073a4.747 4.747 0 0 0-1.907-.465h-.015c.28-.21.582-.37.916-.515a3.204 3.204 0 0 0 1.675.481zM34.26 2.596c.21.407.51.762.862 1.034a4.422 4.422 0 0 0-.862.513 4.084 4.084 0 0 0-.882-.513c.373-.272.67-.627.882-1.034zm-1.361 1.083a2.9 2.9 0 0 1-2.802 0 4.73 4.73 0 0 1 2.802 0zm.285.088c.332.145.634.305.9.515l-.017.02a4.507 4.507 0 0 0-1.8.463 3.912 3.912 0 0 0-1.448-.018 4.67 4.67 0 0 0-1.904-.465c.264-.21.58-.37.917-.515a3.158 3.158 0 0 0 3.352 0zm-4.446-1.171c.214.407.513.762.881 1.034a4.627 4.627 0 0 0-.881.513 3.976 3.976 0 0 0-.862-.513c.37-.272.668-.627.862-1.034zm-1.339 1.083a2.938 2.938 0 0 1-2.821 0 4.792 4.792 0 0 1 2.821 0zm.264.088c.334.145.652.305.919.515l-.018.02c-.67.034-1.29.195-1.819.463a3.808 3.808 0 0 0-1.428-.018 4.84 4.84 0 0 0-1.907-.465h-.015c.263-.21.583-.37.915-.515a3.16 3.16 0 0 0 3.353 0zm-4.425-1.171c.191.407.492.762.858 1.034a3.937 3.937 0 0 0-.858.513 4.628 4.628 0 0 0-.884-.513c.37-.272.67-.627.884-1.034zm-2.707.876c.459.004.916.072 1.347.207a2.913 2.913 0 0 1-1.347.355 2.953 2.953 0 0 1-1.45-.355 4.675 4.675 0 0 1 1.45-.207zm-.033.773v.003l.031-.003h.011a3.124 3.124 0 0 0 1.6-.478c.337.145.653.305.919.515l-.02.02a4.44 4.44 0 0 0-1.798.463 4.172 4.172 0 0 0-.701-.071v-.005l-.024.003-.018-.003v.005a3.597 3.597 0 0 0-.693.053 4.671 4.671 0 0 0-1.904-.465c.266-.21.582-.37.917-.515a3.136 3.136 0 0 0 1.68.478zm-2.772-1.649c.21.407.515.762.88 1.034a4.508 4.508 0 0 0-.88.513 3.998 3.998 0 0 0-.865-.513 2.76 2.76 0 0 0 .865-1.034zm-1.34 1.083a2.938 2.938 0 0 1-2.821 0 4.793 4.793 0 0 1 2.821 0zm.262.088c.334.145.635.305.917.515l-.017.02a4.478 4.478 0 0 0-1.814.463 3.825 3.825 0 0 0-1.431-.018 4.81 4.81 0 0 0-1.908-.465h-.014c.264-.21.583-.37.917-.515a3.155 3.155 0 0 0 3.35 0zm-4.425-1.171c.191.407.494.762.863 1.034-.316.137-.62.319-.863.513a4.714 4.714 0 0 0-.883-.513c.37-.272.669-.627.883-1.034zm-1.096 1.171c.336.145.654.305.917.515l-.017.02c-.667.034-1.288.195-1.8.463a3.9 3.9 0 0 0-1.445-.018.996.996 0 0 0-.248-.122 2.418 2.418 0 0 1-.3-.624 3.16 3.16 0 0 0 2.893-.234zm-.265-.088a2.891 2.891 0 0 1-2.698.054l-.016-.09a4.731 4.731 0 0 1 2.714.036zM3.543 17.737a.674.674 0 0 1-.672-.676c0-.375.301-.677.672-.677a.67.67 0 0 1 .668.677.671.671 0 0 1-.668.676zm-.121-1.727c.157-.267.296-.534.402-.819.09.34.194.678.335 1.016-.211-.144-.475-.234-.737-.197zm.596 2.278c0-.319.265-.569.567-.569a.56.56 0 0 1 .564.569c0 .748-1.131.748-1.131 0zm.51-.89c.04-.106.057-.23.057-.337.07.124.139.25.23.353a.56.56 0 0 0-.286-.016zm-.827-3.291c-.176.658-1.71 3.665-2.363 3.185-.052-.038-.015-.176.089-.373.97-1.585.299-1.886.264-3.453-.014-.696.372-.643.513-1.156.068-.267-.108-.463-.354-.302-.3.211-.494.783-1.078 1.067-.49.23-.44-.144-.332-.482.405-1.314.898-1.708 2.099-2.312.403-.196.74-.339.932-.482.372-.317 0-.674-.386-.708-.53-.039-1.13.248-1.586-.217-.372-.372-.46-1.19-.161-1.62.441-.623 1.694-.799 1.834-.051.018.196-.048.712-.316.677-.105 0-.264-.323-.62-.25a.309.309 0 0 0-.228.25c-.068.604 1.024 1.015 1.71.532.177-.126.409-.302.512-.39.25-.178-.05.053-.123.355-.033.145 0 .303.052.319.052 0 .16-.14.284-.319.67-.96 1.711-1.425 2.804-1.727.387-.107.634-.107.725-.087.102.037.07.087-.25.247-.299.16-.88.392-1.339.623-1.463.731-2.559 1.85-3.12 3.38-.32.874-.566 2.156-.654 2.922-.011.108.018.072.088-.107.087-.268.283-.785.475-1.319.83-2.437 2.048-4.056 4.515-5.015.53-.215 1.148-.41 1.59-.57.192.196-.318.406-.442.46-2.93 1.228-5.239 3.557-5.134 6.923zm8.664 5.512-.209-.05.206-.051c.897-.232 2.035-.539 2.83.051-.795.586-1.933.283-2.828.05zm4.584 1.532-.02.029a4.265 4.265 0 0 1-.493.381c-.171-.076-.393-.109-.49-.143-.125-.037-.09-.071.032-.178l.253-.206c.456-.271.81-.69.903-1.202l.009-.035.005-.075.01-.152-.01-.162-.005-.07-.01-.031c-.089-.513-.445-.933-.9-1.204a21.096 21.096 0 0 0-.255-.208c-.123-.105-.157-.141-.034-.175.099-.035.318-.07.491-.146.184.123.347.248.487.375l.026.036c.402.58.643 1.105.691 1.593-.053.481-.293 1-.69 1.573zm99.11.267c-.101.035-.323.067-.495.144a4.447 4.447 0 0 1-.484-.374l-.026-.037c-.404-.581-.645-1.107-.693-1.595.053-.48.294-.999.69-1.57l.021-.03c.141-.129.306-.257.493-.382.171.077.393.111.49.145.125.035.093.07-.032.176l-.253.207c-.456.27-.812.689-.903 1.204l-.009.032-.005.075-.009.151.01.17.004.063.007.029c.091.517.449.94.91 1.212l.248.202c.125.107.157.14.036.178zm3.58-1.8c-.898.234-2.036.538-2.829-.05.793-.588 1.931-.28 2.827-.05l.207.05-.205.05zm2.151-6.168c.212.123.318.266.388.336.035.047.017.059-.055.036-2.043-.587-2.168 1.778-1.129 2.51.796.548 1.958.46 2.595-.304.548-.64.758-1.775.49-2.6-.702-2.133-3.736-2.508-5.308-.905-1.233 1.263-1.006 2.668-.298 4.113.124.264.142.46.035.443-.55-.037-1.025-1.14-2.503-.428-.189.089-.568.301-.677.522a3.626 3.626 0 0 0-.653.524c-.174-.042-.338-.106-.327-.227.119-.892 1.815-1.636 2.696-1.407.088.017.528.25.634.195.037-.017.037-.089 0-.21-.211-.553-.318-.82-.281-1.443a3.973 3.973 0 0 1 1.005-2.439c1.374-1.546 3.579-1.69 5.204-.41 2.416 1.872 1.06 6.282-2.063 5.34-.055-.017-.724-.161-.391.14.124.11.459.234.85.287 2.027.32 3.684-1.424 3.845-3.383.335-3.859-3.248-5.53-6.546-5.673-.103 0-1.217 0-1.288-.02H78.717c.054.17.1.343.143.518h38.924c3.65 0 8.204.855 7.533 5.765.089-3.723-3.845-5.41-6.633-3.399-1.324.942-2.045 2.74-1.64 4.34-1.149-.423-2.523.498-3.068 1.477-.179.34-.282.589-.282.712-.021.178.406.195.58.235l.058.024a2.45 2.45 0 0 0-.419 1.431 2.446 2.446 0 0 0 .419 1.469l-.058.023c-.174.04-.597.054-.579.233 0 .123.104.373.283.712.545.981 1.917 1.903 3.066 1.478-.403 1.6.318 3.398 1.643 4.34 2.786 2.011 6.719.322 6.63-3.398.672 4.91-3.883 5.763-7.532 5.763H14.215c-3.649 0-8.201-.853-7.53-5.763-.09 3.72 3.844 5.41 6.631 3.398 1.325-.942 2.046-2.74 1.64-4.34 1.15.425 2.522-.497 3.067-1.478.18-.339.284-.589.284-.712.02-.179-.403-.193-.581-.233l-.058-.024c.288-.433.433-.92.419-1.434v-.024a2.444 2.444 0 0 0-.418-1.442l.057-.023c.175-.04.6-.057.58-.235 0-.123-.104-.372-.283-.712-.545-.979-1.917-1.9-3.068-1.477.404-1.6-.317-3.398-1.641-4.34-2.786-2.01-6.72-.324-6.63 3.399-.67-4.91 3.881-5.765 7.531-5.765h38.906c.051-.175.116-.348.192-.518H13.988c-.074.02-1.187.02-1.29.02-3.298.142-6.88 1.814-6.544 5.673.16 1.96 1.818 3.702 3.846 3.383.386-.053.726-.178.845-.286.336-.302-.335-.158-.388-.14-3.123.94-4.477-3.469-2.063-5.34 1.622-1.28 3.829-1.137 5.201.41.62.693.972 1.583 1.008 2.438.035.623-.072.89-.283 1.442-.034.122-.034.195 0 .211.108.054.548-.178.635-.195.882-.23 2.577.515 2.698 1.407.01.121-.152.184-.325.226a3.634 3.634 0 0 0-.66-.526c-.112-.221-.487-.431-.673-.519-1.479-.711-1.956.39-2.502.428-.109.017-.089-.18.033-.444.707-1.444.936-2.85-.299-4.112-1.57-1.603-4.603-1.227-5.307.906-.266.824-.057 1.958.493 2.599.634.764 1.796.852 2.592.304 1.04-.732.915-3.097-1.13-2.51-.07.023-.088.01-.052-.036.07-.07.177-.213.386-.336 2.508-1.339 3.813 4.605-.65 4.713-.9.02-1.925-.32-2.661-.978-.73-.66-1.185-1.62-1.344-2.49-.53-2.742 1.517-5.412 3.915-6.409.882-.354 2.046-.476 3.105-.514h40.33c4.91-9.66 21.26-9.66 26.175 0h40.349c1.057.038 2.218.16 3.103.514 2.399.997 4.446 3.667 3.913 6.41-.156.869-.616 1.83-1.341 2.489a4.013 4.013 0 0 1-2.661.979c-4.463-.109-3.158-6.053-.652-4.714zm6.668 7.948c.369 0 .67.304.67.677a.673.673 0 0 1-.67.677.671.671 0 0 1-.668-.677c0-.373.298-.677.668-.677zm.122 1.727a5.027 5.027 0 0 0-.403.819 7.616 7.616 0 0 0-.336-1.016c.211.145.474.233.739.197zm-.597-2.279c0 .32-.267.572-.567.572a.56.56 0 0 1-.563-.572c0-.747 1.13-.747 1.13 0zm-.511.893a1.01 1.01 0 0 0-.056.336c-.071-.122-.139-.25-.227-.354a.572.572 0 0 0 .283.018zm-4.571 12.473c-.281.037-.55.037-.829 0 .141-.089.279-.199.405-.304.143.105.283.215.424.303zm-.881-.802c.088.125.193.232.301.356a2.799 2.799 0 0 1-.565.376 3.262 3.262 0 0 1-.99-.376c.105-.213.16-.427.214-.676.354.07.706.178 1.04.32zm-.566.89a3.963 3.963 0 0 1-1.252.302c.195-.195.353-.407.475-.64.249.143.493.25.777.338zm-1.515-1.32c.28.021.546.038.827.072a2.328 2.328 0 0 1-.177.608 2.61 2.61 0 0 1-.671-.642l.021-.037zm.562.876a3.101 3.101 0 0 1-.615.766l-.159.017h-.037a3.266 3.266 0 0 1-.617-.783c.266-.178.514-.392.704-.644.213.252.442.466.724.644zm-1.125.766a4.529 4.529 0 0 1-1.325-.302c.301-.091.582-.215.844-.358.125.233.284.445.481.66zm.245-1.641.034.037c-.193.25-.406.466-.671.642a3.156 3.156 0 0 1-.196-.68h.833zm-1.041 0c.035.287.107.536.23.785-.336.196-.689.32-1.075.39a3.41 3.41 0 0 1-.602-.39c.229-.231.42-.498.564-.785h.883zm-1.183 1.23a3.237 3.237 0 0 1-.847 0c.161-.088.283-.197.426-.303.121.105.265.215.421.303zm.055-1.23a2.827 2.827 0 0 1-.476.645 2.96 2.96 0 0 1-.497-.645h.973zm-1.199 0c.121.287.316.553.564.785-.176.142-.37.266-.582.376a3.222 3.222 0 0 1-.99-.376c.124-.25.194-.498.229-.785h.779zm-.32 1.32a3.88 3.88 0 0 1-1.233.3c.176-.194.334-.406.459-.64.247.144.51.25.774.34zm-1.497-1.32h.828a3.094 3.094 0 0 1-.193.679 2.784 2.784 0 0 1-.672-.642l.037-.037zm.546.875c-.142.286-.356.533-.601.766l-.174.017h-.037a3.185 3.185 0 0 1-.615-.783 3.07 3.07 0 0 0 .719-.644c.195.252.443.466.708.644zm-1.13.766a4.33 4.33 0 0 1-1.305-.302c.302-.091.566-.215.83-.358.124.233.281.445.475.66zm.264-1.641.02.037c-.174.25-.407.466-.671.642a2.196 2.196 0 0 1-.174-.68h.825zm-1.036 0c.014.287.104.536.211.785-.32.196-.69.32-1.063.39a2.984 2.984 0 0 1-.615-.39 2.87 2.87 0 0 0 .562-.785h.905zm-1.201 1.23a2.956 2.956 0 0 1-.382.025 2.996 2.996 0 0 1-.44-.024c.139-.089.281-.195.405-.302.12.107.259.214.417.302zm.067-1.23c-.121.23-.294.441-.484.637v.002a2.707 2.707 0 0 1-.475-.64h.959zm-1.204 0c.141.287.332.553.562.785a3.23 3.23 0 0 1-.562.376 3.213 3.213 0 0 1-.99-.376c.105-.25.196-.498.213-.785h.777zm-.302 1.32a3.977 3.977 0 0 1-1.251.3 2.69 2.69 0 0 0 .474-.64c.233.144.498.25.777.34zm-1.516-1.32h.828a2.227 2.227 0 0 1-.176.679 2.49 2.49 0 0 1-.668-.642l.016-.037zm.564.875a3.205 3.205 0 0 1-.617.766l-.16.017h-.034a2.862 2.862 0 0 1-.619-.783 2.89 2.89 0 0 0 .705-.644c.215.252.442.466.725.644zm-1.129.766a4.532 4.532 0 0 1-1.321-.302c.297-.091.58-.215.844-.358.126.233.284.445.477.66zm.247-1.641.037.037c-.195.25-.406.466-.673.642a3.152 3.152 0 0 1-.194-.68h.83zm-1.038 0c.034.287.104.536.227.785-.332.196-.688.32-1.077.39a3.527 3.527 0 0 1-.598-.39c.228-.231.424-.498.563-.785h.885zm-1.185 1.23a3.206 3.206 0 0 1-.843 0c.155-.088.279-.197.422-.303.123.105.263.215.421.303zm.054-1.23a2.853 2.853 0 0 1-.475.645 2.435 2.435 0 0 1-.494-.645h.969zm-1.199 0a2.4 2.4 0 0 0 .563.785 3.292 3.292 0 0 1-.582.376 3.178 3.178 0 0 1-.984-.376c.121-.25.194-.498.228-.785h.775zm-.318 1.32c-.37.161-.795.266-1.235.3.179-.194.335-.406.461-.64.245.144.509.25.774.34zm-1.5-1.32h.831a2.895 2.895 0 0 1-.196.679 2.925 2.925 0 0 1-.669-.642l.034-.037zm.546.875c-.138.286-.351.533-.6.766l-.175.017h-.034a3.197 3.197 0 0 1-.618-.783c.283-.178.51-.392.724-.644.193.252.441.466.703.644zm-1.128.766a4.303 4.303 0 0 1-1.305-.302c.3-.091.564-.215.828-.358.125.233.283.445.477.66zm.263-1.641.022.037c-.178.25-.406.466-.671.642a2.26 2.26 0 0 1-.178-.68h.827zm-1.037 0c.017.287.104.536.21.785-.32.196-.687.32-1.059.39a3.12 3.12 0 0 1-.618-.39c.231-.231.427-.498.566-.785h.901zm-1.202 1.23c-.28.038-.544.038-.828 0 .141-.088.284-.197.405-.303.125.105.268.215.423.303zm.073-1.23a3.596 3.596 0 0 1-.496.645 3.39 3.39 0 0 1-.492-.645h.988zm-1.218 0c.14.287.336.553.564.785a3.607 3.607 0 0 1-.58.376 3.132 3.132 0 0 1-.972-.376c.108-.25.175-.498.212-.785h.776zm-.3 1.32c-.388.161-.81.266-1.251.3.193-.194.352-.406.475-.64.23.144.494.25.776.34zM97.9 32.98h.83a2.875 2.875 0 0 1-.177.679 2.855 2.855 0 0 1-.686-.642l.033-.037zm-.97.679a3.013 3.013 0 0 1-.174-.68h.827l.035.038c-.195.25-.421.466-.688.642zm.76.98h-.034a2.518 2.518 0 0 1-.619-.784c.267-.178.512-.392.705-.644.193.252.443.466.706.644-.14.286-.352.533-.6.766l-.157.017zm1.41.816a2.915 2.915 0 0 1 2.806 0c-.9.284-1.908.284-2.805 0zm-.282-.087a3.888 3.888 0 0 1-.9-.517l.017-.017a4.585 4.585 0 0 0 1.802-.463c.494.09.951.106 1.446.017a4.607 4.607 0 0 0 1.903.463c-.263.213-.58.373-.917.517a3.164 3.164 0 0 0-3.35 0zm4.446 1.172a3 3 0 0 0-.882-1.035c.314-.137.617-.318.882-.511.245.193.547.374.862.51a2.758 2.758 0 0 0-.862 1.036zm1.339-1.085a2.946 2.946 0 0 1 2.821 0 4.773 4.773 0 0 1-2.821 0zm-.267-.087c-.331-.144-.65-.304-.915-.517l.017-.017a4.579 4.579 0 0 0 1.818-.463c.477.09.953.106 1.428.017a4.778 4.778 0 0 0 1.906.463h.017c-.265.213-.583.373-.916.517a3.172 3.172 0 0 0-3.355 0zm4.428 1.172a2.76 2.76 0 0 0-.859-1.035c.315-.137.615-.318.859-.511.268.193.566.374.884.51a3.006 3.006 0 0 0-.884 1.036zm2.706-.876a4.706 4.706 0 0 1-1.347-.21c.425-.23.885-.344 1.347-.351.497-.009.996.105 1.451.352a4.68 4.68 0 0 1-1.451.21zm.034-.772v-.004l-.032.003-.009-.002v.002a3.16 3.16 0 0 0-1.605.477c-.332-.144-.652-.304-.915-.517l.019-.017a4.49 4.49 0 0 0 1.798-.463c.238.045.472.067.703.07v.004l.023-.003.018.003v-.003c.228.002.455-.012.693-.054a4.596 4.596 0 0 0 1.904.463 3.98 3.98 0 0 1-.916.517 3.135 3.135 0 0 0-1.681-.476zm2.771 1.648a2.953 2.953 0 0 0-.88-1.035c.317-.137.618-.318.88-.511.249.193.551.374.865.51-.369.273-.67.626-.865 1.036zm1.341-1.085a2.948 2.948 0 0 1 2.822 0 4.777 4.777 0 0 1-2.822 0zm-.264-.087a4.314 4.314 0 0 1-.915-.517l.016-.017a4.547 4.547 0 0 0 1.815-.463c.478.09.952.106 1.43.017a4.756 4.756 0 0 0 1.91.463h.014c-.265.213-.584.373-.918.517a3.166 3.166 0 0 0-3.352 0zm4.426 1.172a2.704 2.704 0 0 0-.862-1.035c.317-.137.62-.318.862-.511.268.193.567.374.884.51a2.985 2.985 0 0 0-.884 1.036zm1.094-1.172c-.332-.144-.652-.304-.915-.517l.019-.017c.666-.037 1.287-.196 1.799-.463a3.9 3.9 0 0 0 1.444.017c.072.052.159.09.249.122.12.181.227.393.299.623a3.166 3.166 0 0 0-2.895.235zm.267.087a2.897 2.897 0 0 1 2.697-.052l.017.089a4.723 4.723 0 0 1-2.714-.037zm10.421-8.913c-.402 1.314-.897 1.708-2.098 2.312-.404.195-.738.34-.932.483-.371.317 0 .673.386.708.53.037 1.13-.25 1.591.216.368.373.455 1.19.156 1.619-.441.622-1.693.799-1.835.053-.016-.197.05-.712.318-.679.105 0 .264.324.618.252a.31.31 0 0 0 .231-.252c.068-.603-1.025-1.012-1.712-.531-.176.124-.409.3-.513.39-.248.178.053-.055.123-.356.034-.143 0-.302-.051-.318-.051 0-.16.14-.283.318-.67.963-1.711 1.424-2.803 1.725-.389.11-.635.11-.726.09-.103-.035-.071-.09.25-.247.296-.158.88-.392 1.338-.624 1.462-.728 2.56-1.85 3.122-3.38.318-.872.564-2.153.652-2.92.012-.107-.017-.072-.088.106-.087.27-.282.785-.476 1.317-.829 2.44-2.047 4.058-4.513 5.018-.532.214-1.147.41-1.59.57-.193-.197.317-.408.443-.46 2.929-1.229 5.237-3.559 5.134-6.923.175-.66 1.71-3.668 2.361-3.186.054.036.018.177-.089.374-.97 1.583-.299 1.887-.265 3.452.016.695-.37.643-.511 1.155-.069.269.11.466.352.303.302-.211.496-.783 1.079-1.066.492-.23.44.144.331.481z"/>
        <path d="m56.558 8.84.357.189c.026-.047 2.729-4.678 8.92-4.678h.27c6.18 0 8.892 4.631 8.92 4.678l.356-.189c-.028-.048-2.848-4.882-9.276-4.882h-.27c-6.43 0-9.25 4.834-9.277 4.882zM91.576 19.198l-.919.886-.001.261.955-.92a.9.9 0 0 1-.035-.227zM91.576 18.542v-.26l-.918.886v.26l.918-.886zM91.571 22.864l-1.11 1.071h.269l.846-.825-.005-.246zM90.873 14.642h-.269l-.177.17.075.189.371-.36zM91.576 15.535l-.94.906.004.257.936-.903v-.26zM90.621 15.8l1.201-1.158h-.269l-.942.908c.004.067.007.152.01.25zM91.576 16.71v-.26l-.928.896.003.258.925-.893zM91.572 21.032l-1.073 1.036.083.18.986-.951.004-.265zM91.576 17.626v-.26l-.921.889.001.259.92-.888zM96.958 15.182l-.17-.097-.421.407.11.154.48-.464zM95.57 14.69a4.513 4.513 0 0 0-.238-.03l-.005.005.183.083.06-.059zM95.985 19.783l2.147-2.056c.016-.1.028-.203.036-.31l-2.498 2.41c.12-.015.228-.032.315-.044zM96.769 16.28l.717-.69-.14-.127-.645.622.068.195zM97.667 18.817l-.457.44c.176-.128.329-.276.457-.44zM90.611 21.048c-.041.134-.09.265-.146.397l1.545-1.491-.147-.118-1.252 1.212zM91.41 23.935h.27l.063-.06-.07-.193-.263.253zM91.564 22.216a6.596 6.596 0 0 1 0-.26l-.941.907a9.091 9.091 0 0 1-.014.274l.956-.921zM96.91 17.06l.984-.95-.1-.162-.906.872c.011.08.018.16.022.24zM96.813 18.069l1.327-1.28a2.126 2.126 0 0 0-.052-.212l-1.204 1.148a2.636 2.636 0 0 1-.07.343zM96.324 14.879l-.202-.066-.206.198.139.127.269-.26zM37.32 22.087l-.57.55.122.142.51-.492-.063-.2zM37.044 17.775l-1.461 1.41-.004.112.003.15 1.424-1.356c.01-.107.024-.212.038-.316zM37.272 16.639l-1.587 1.517c-.02.107-.037.214-.051.324L37.182 17c.027-.123.057-.243.09-.36zM36.951 19.696l-1.159 1.117.061.201 1.107-1.067a6.178 6.178 0 0 1-.009-.25v-.001zM37.135 21.35l-.778.749.105.16.72-.696-.047-.213zM37.014 20.551l-.976.941.083.18.922-.89a9.892 9.892 0 0 1-.03-.23zM37.93 15.089l-1.795 1.729a4.8 4.8 0 0 0-.201.457l1.686-1.62c.095-.206.198-.395.31-.566zM36.955 18.777l-1.323 1.276c.01.075.022.15.035.226l1.281-1.235.007-.267zM43.037 16.832l.688-.663-.116-.148-.625.603.053.208zM42.827 16.12l.467-.45-.137-.128-.405.39.075.188zM42.3 14.876a4.83 4.83 0 0 0-.292-.136l-.01.01c.066.074.123.159.182.241l.12-.115zM43.188 17.602l.893-.861-.093-.17-.833.804c.012.076.023.151.033.227zM43.847 22.201l-1.4 1.349a4.27 4.27 0 0 0 1.4-1.349zM43.281 18.429l1.082-1.044-.072-.191-1.03.994.02.241zM42.788 15.242l-.158-.107-.177.17.094.17.241-.233zM53.22 20.746l.454-.44-.104-.159-.456.44.105.159zM52.85 20.186l.458-.442-.103-.16-.46.444.105.158zM53.587 21.306l.453-.437-.104-.159-.453.438.104.158zM53.955 21.867l.547-.528-.165-.101-.486.47.104.16zM52.114 19.065l.463-.446-.105-.16-.462.447.104.159zM52.482 19.626l.46-.445-.103-.16-.461.445.104.16zM54.692 22.988l1.152-1.112v-.26l-1.257 1.213.105.159zM55.607 23.935l.237-.228v-.26l-.506.488h.27zM38.27 23.837l.019.01-.012-.016-.007.006zM37.748 23.505l.169.097.068-.066-.104-.16-.133.129zM37.21 23.107l.145.122.29-.28-.08-.183-.354.341zM54.323 22.427l1.09-1.052a1.033 1.033 0 0 1-.35.08l-.845.814.105.158zM55.06 23.547l.784-.755v-.26l-.889.857.105.158zM51.746 18.504l.465-.448-.104-.16-.466.45.105.158zM24.961 23.935h.164l-.067-.092-.097.092zM43.311 19.13l.004.18 1.248-1.202a6.091 6.091 0 0 0-.048-.214l-1.206 1.164.002.072zM23.933 16.947l.967-.932v-.26l-.967.931v.26zM23.933 17.862l.967-.932v-.26l-.967.932v.26zM30.57 19.513l-.006.195 1.297-1.253a3.227 3.227 0 0 0-.04-.22l-1.253 1.21.001.068zM30.548 18.808l1.142-1.101-.067-.198-1.095 1.06.02.239zM30.5 20.684l1.428-1.377a7.68 7.68 0 0 0-.006-.254l-1.387 1.318a5.618 5.618 0 0 1-.035.313zM23.906 23.383l.994-.96v-.26l-.968.934c-.002.095-.011.19-.026.286zM23.928 22.445l.972-.936v-.261l-1.021.984a.947.947 0 0 1 .05.213zM24.281 23.935l.619-.6v-.256l-.888.856h.27zM23.933 20.402l-.022.205-.009.031.998-.961v-.26l-.967.932v.053zM23.933 19.693l.967-.932v-.26l-.967.932v.26zM23.933 18.778l.967-.933v-.26l-.967.932v.26zM30.265 21.828l1.606-1.534a6.84 6.84 0 0 0 .034-.309l-1.54 1.474a5.31 5.31 0 0 1-.1.369zM23.614 21.833l1.286-1.24v-.262l-1.34 1.288-.055.13.106.08.003.004zM42.764 22.59l1.651-1.585c.04-.117.073-.241.105-.37l-1.613 1.547c-.045.146-.093.28-.143.408zM24.424 14.642h-.269l-.36.347.066.196.563-.543zM43.272 20.267l1.395-1.345a6.794 6.794 0 0 0-.019-.241l-1.352 1.304a9.533 9.533 0 0 1-.024.282zM23.933 16.031l1.026-.982c.058-.16.155-.3.282-.407h-.137l-1.17 1.13v.26zM43.123 21.33l1.527-1.456c.01-.101.016-.2.022-.301l-1.489 1.421a7.896 7.896 0 0 1-.06.336zM29.042 23.661l-.061.06c.143-.038.276-.078.389-.116l2.202-2.117c.05-.125.094-.255.134-.395l-2.096 2.02a2.85 2.85 0 0 1-.568.548zM30.067 16.524l.594-.573-.134-.13-.54.521.08.182zM30.16 15.518l-.154-.11-.362.35.105.157.411-.397zM30.301 17.215l.787-.759-.115-.15-.73.704.058.205zM29.58 15.163l-.183-.083-.19.183.133.131.24-.23zM28.909 14.895l-.208-.061-.033.033.164.102.076-.074zM30.46 17.977l.968-.935-.087-.175-.92.887c.014.073.026.147.038.223zM50.115 16.415l.633-.61-.104-.16-.744.718c.069.008.14.026.215.052zM71.767 14.76a3.952 3.952 0 0 0-.221-.048l-.094.09.162.104.153-.146zM72.469 15.914l.582-.562-.156-.11-.518.498.092.174zM72.466 15l-.187-.079-.304.293.127.137.364-.35zM72.597 18.267a2.668 2.668 0 0 1-.208.47l1.633-1.575a2.003 2.003 0 0 0-.02-.243l-1.405 1.348zM72.696 16.61l.832-.804-.124-.14-.757.73c.02.072.035.143.049.214zM72.451 19.591l1.371-1.315c.049-.12.089-.248.12-.38l-1.895 1.827c.145-.04.284-.085.404-.132zM66.39 23.608l1.032-.996v-.262l-.986.933c-.009.11-.024.219-.047.325zM108.519 23.835l-.161.156h.246l-.085-.156zM67.422 21.696v-.259l-.982.945.015.147v.1l.967-.933zM66.728 23.935h.27l.474-.457a1.627 1.627 0 0 1-.039-.221l-.706.678zM51.377 17.944l.468-.45-.104-.16-.468.45.104.16zM67.539 23.991h.203l-.066-.131-.137.131zM72.75 17.472l1.12-1.08-.079-.182-1.03 1.025c0 .082-.004.16-.011.237zM106.156 20.752l.116.096.969-.935-.059-.202-.942.904-.084.137zM105.721 17.716l.699-.674-.056-.206-.698.673.055.207zM105.914 18.447l.708-.683-.058-.205-.705.68.055.208zM105.528 16.988l.696-.67-.055-.21-.695.672.054.208zM106 15.356l-.719.694.054.208.706-.68-.025-.12-.016-.102zM105.123 15.456l.019.072.906-.886h-.256l-.713.687.044.127zM106.106 19.176l.721-.695-.059-.203-.716.69.054.208zM106.595 21.452l.853-.824-.058-.202-.861.83c.013.037.036.103.066.196zM107.015 22.877l.855-.823-.06-.203-.849.819.054.207zM106.816 22.154l.843-.813-.06-.202-.844.814.061.201zM107.083 23.727l.997-.961-.059-.202-.916.882c.001.094-.006.187-.022.281zM66.331 14.586h-.181l.056.122.125-.122zM106.298 19.907l.735-.709-.059-.203-.73.703.054.21zM107.817 23.935l.479-.459-.017-.044-.046-.158-.686.661h.27zM66.127 21.825l.104.105 1.195-1.154a.932.932 0 0 1 .088-.345L66.096 21.8l.031.026zM82.398 19.961l.018.09.739-.71-.06-.205-.73.704.033.121zM84.085 23.935l.346-.333-.001-.004-.054-.125-.019-.06-.541.522h.269zM83.093 23.935h.043l1.062-1.024-.06-.202-.971.922c-.018.11-.043.21-.074.304zM83.135 23.021l.85-.819-.06-.203-.848.818.058.204zM82.44 20.944l.92-.887-.058-.203-.992.956.13.134zM82.715 21.595l.85-.821-.058-.204-.853.824.061.2zM82.929 22.304l.846-.815-.06-.203-.847.816.06.202zM50.623 16.796l.018.028.473-.456-.105-.16-.484.467.098.121zM105.112 14.642h-.269l-.219.21.163.104.325-.314zM51.01 17.383l.47-.453-.105-.16-.47.454.104.16zM48.874 15.54l.006.083v.152l1.137-1.096-.025-.037h-.207l-.912.88.001.018zM48.88 16.69l1.502-1.448-.104-.16-1.398 1.349v.26zM49.105 14.642h-.27l-.15.147.076.185.344-.332zM67.142 14.642h-.27l-.47.454c.015.072.027.146.036.224l.704-.678zM67.422 16.858l-.967.933v.26l.967-.932v-.261zM67.422 15.943l-.967.932v.261l.967-.933v-.26zM67.422 17.774l-.967.932v.26l.967-.932v-.26zM82.228 19.318l.722-.697-.057-.204-.72.694.055.207zM67.504 14.95l-1.05 1.01v.26l.97-.934a.897.897 0 0 1 .08-.337zM67.495 19.533l-1.07 1.02a7.477 7.477 0 0 1-.092.363l1.257-1.214-.095-.169zM66.455 19.883l.967-.933v-.26l-.967.933v.26zM81.843 17.859l.704-.68-.056-.206-.703.678.055.208zM81.381 14.642h-.27l-.287.277.144.121.413-.398zM82.035 18.588l.711-.692-.055-.2-.71.685.054.207zM81.65 17.129l.7-.676-.055-.206-.7.675.055.207zM82.11 15.51l-.707.682.055.207.702-.678-.05-.212zM81.265 15.67l.86-.82c.02-.075.041-.144.068-.208h-.133l-.852.815.057.212z"/>
    </g>
    <defs>
        <clipPath id="vnbxizs3ja">
            <path fill="#fff" d="M0 0h132v46H0z"/>
        </clipPath>
    </defs>
</svg>
