<svg width="24" height="21" viewBox="0 0 24 21" fill="none" xmlns="http://www.w3.org/2000/svg">
    <path d="M23.267 3.204a8.76 8.76 0 0 1-2.656.778 4.911 4.911 0 0 0 2.033-2.732 8.957 8.957 0 0 1-2.935 1.2c-.844-.96-2.045-1.56-3.376-1.56-2.552 0-4.622 2.21-4.622 4.94 0 .386.04.764.12 1.124-3.843-.206-7.248-2.172-9.53-5.16a5.189 5.189 0 0 0-.625 2.484c0 1.713.816 3.225 2.055 4.11a4.379 4.379 0 0 1-2.094-.617l-.001.062c0 2.394 1.593 4.391 3.709 4.843a4.323 4.323 0 0 1-2.088.086c.588 1.963 2.295 3.39 4.319 3.43C5.994 17.517 4 18.307 1.835 18.307c-.375 0-.74-.024-1.103-.07 2.045 1.403 4.475 2.22 7.086 2.22 8.503 0 13.152-7.529 13.152-14.055 0-.213-.005-.427-.014-.64a9.706 9.706 0 0 0 2.31-2.558z" fill="#FAE4C1"/>
</svg>
