<svg width="101" height="125" viewBox="0 0 101 125" fill="none" xmlns="http://www.w3.org/2000/svg">
    <path d="m62.464 87.849.157-9.65c-1.448-5.54-5.275-8.716-10.542-8.716-6.308 0-10.73 5.357-10.73 13.015v9.98c0 7.279 4.318 12.349 10.472 12.349h.211c4.64-.11 10.308-2.64 10.928-14.056l.071-1.169-2.335.722a75.58 75.58 0 0 1-2.143.659l-.51.148-.072.545c-.599 5.123-2.563 7.628-5.963 7.628-3.97 0-5.813-3.32-5.813-10.445v-2.557c-.071-4.953.715-8.183 2.343-9.857.94-.95 2.174-1.423 3.767-1.423 1.971 0 5.192 2.29 5.28 4.902l-4.563 4.681s6.424-2.02 9.442 3.244zm-10.643 16.156h.016l-.016.008v-.008zM13.882 62.176l-5.018-5.07-5.027 5.07 5.027 5.065 5.018-5.065zM12.092 50.22l-3.228-3.24-3.21 3.24 3.21 3.246 3.228-3.246zM8.864 70.085l-3.21 3.237 3.21 3.254 3.228-3.254-3.228-3.237z" fill="#1D1D1B"/>
    <path d="M92.315 103.319c-1.414-1.183-2.569-3.845-.973-6.76 0 0-2.74.103-3.36-4.435V34.107c0-2.53 1.745-5.28 4.26-5.831v-.55c-4.808-2.201-9.71-7.81-12.113-12.54h-.44c.333 4.62.882 9.243.882 13.86V54.82c0 2.023-1.369 4.061-3.67 4.061h-9.228c3.798-3.946 4.31-9.998 4.31-14.937v-20.93c0-11.248-3.597-18.684-16.98-18.684H20.068V5.72c3.397 0 5.896.982 7.713 2.899.943 1.336 2.117 4.1-.58 6.896 0 0 3.88 1.276 4.269 6.529.002.333.035.62.035.966v35.873h-3.96c-2.388 0-3.912-1.941-3.912-4.252V31.699c0-6.364 1.294-10.788 5.296-10.788v-.55H7.553v.55c1.624 0 3.078.369 4.336 1.09 1.414 1.185 2.573 3.847.971 6.76 0 0 2.737-.102 3.36 4.436v58.02c0 2.527-1.743 5.278-4.26 5.826v.551c4.808 2.206 9.712 7.814 12.113 12.54h.438c-.33-4.616-.878-9.242-.878-13.858V69.36c0-1.54 1.247-4.145 3.819-4.145h4.053v46.703c.352 1.907-.181 7.613-7.022 7.441l.173 1.728h33.61c9.087 0 15.602-7.956 15.602-15.911V79.057c0-6.142-1.752-10.787-4.06-13.843h6.997c2.579 0 3.766 2.22 3.766 4.627v23.783c0 6.364-1.29 10.788-5.294 10.788v.548H96.65v-.548c-1.623 0-3.076-.367-4.335-1.093zM38.376 11.258h13.558c10.276-.18 13.194 3.796 13.016 11.409l.178 19.202c0 2.694-.305 6.22-1.306 9.39-1.852-.52-3.936-2.028-3.936-5.797 0-.304-4.319.317-5.217-4.24 3.715-1.82 5.92-5.966 5.92-10.223v-3.028c0-8.002-3.508-10.932-11.939-10.932l-10.263.011c-.009-3.654-.01-5.792-.01-5.792zm.014 6.981c2.46.87 5.57 3.387 5.57 8.886l.102 20.734c0 1.013-.698 3.139-3.816 3.646l.098.816 11.95.095.106-1.111c-1.52.096-4.225-1.619-4.225-3.548v-26.67h.567c5.927 0 7.737 2.327 7.737 7.897 0 4.046-1.11 9.207-6.124 9.207-.095 0-.268-.013-.48-.014l-.005 4.083 6.203 10.156h7.334c-1.182 3.04-3.105 5.606-6.264 6.455v.011H38.474c-.027-16.794-.063-32.134-.084-40.643zm27.935 82.262c0 10.04-3.77 13.671-10.974 13.497-.682 0-6.868.174-16.809.174 0-13.28-.028-31.517-.053-48.958h20.618c2.774 1.238 6.663 5.275 7.218 12.116V100.5z" fill="#1D1D1B"/>
</svg>
