<svg width="326" height="118" viewBox="0 0 326 118" fill="none" xmlns="http://www.w3.org/2000/svg">
    <g clip-path="url(#e1v387kxca)" fill="#FAE4C1">
        <path d="M37.21 27.959s6.401-1.82 8.131 6.273l4.141 15.203-4.141 16.533c-1.73 8.092-8.131 6.274-8.131 6.274 0 2.01 2.005 2.15 2.005 2.15h246.709s2.006-.14 2.006-2.15c0 0-6.4 1.818-8.129-6.274l-4.143-16.533 4.143-15.203c1.729-8.093 8.129-6.273 8.129-6.273 0-2.01-2.006-2.15-2.006-2.15H39.215s-2.005.14-2.005 2.15zM280.154 71.6v.705H46.094v-.705h234.06zM53.021 57.074c2.356-.13 3.328-3.226 3.665-4.74V40.163c0-2.373-4.341-5.03-4.341-5.03h14.852c9.11 0 14.086 6.564 14.086 14.58 0 7.934-4.213 14.116-14.086 14.116H52.385s4.3-1.785 4.3-4.693V57.8c-1.95.195-3.664-.725-3.664-.725zM85.445 49.5c0-8.57 5.619-14.923 13.661-14.923 8.175 0 13.664 6.522 13.664 14.966 0 7.847-5.194 14.837-13.622 14.837-8.34 0-13.703-6.818-13.703-14.88zm29.174 7.237c2.388-.13 3.354-3.308 3.676-4.799v-11.86c0-2.606-4.257-4.946-4.257-4.946h10.768l10.941 17.483h.128V39.948c0-2.476-4.512-4.816-4.512-4.816h13.875s-4.897 2.497-4.897 5.203v23.493h-5.064l-12.303-19.441h-.082v14.962c0 2.447 4.64 4.48 4.64 4.48h-13.536s4.299-1.66 4.299-4.394v-1.973c-1.955.203-3.676-.725-3.676-.725zm75.76-21.605h18.813s-4.396 2.189-4.045 4.091c.351 1.905 4.844 18.173 5.535 20.212.687 2.04 4.043 4.393 4.043 4.393h-15.067s3.815-2.265 3.317-4.139c-.493-1.868-1.276-4.476-1.276-4.476h-7.363s-.68 2.768-1.107 4.438c-.425 1.667 3.364 4.177 3.364 4.177H183.78s3.322-1.42 4.427-4.347c1.105-2.934 5.069-16.141 5.703-19.233.639-3.093-3.531-5.116-3.531-5.116zm-15.701 18.293h-5.744v5.796c0 2.097 3.788 4.607 3.788 4.607h-15.198s4.174-1.137 4.174-4.607v-1.429c-1.969.22-3.708-.718-3.708-.718 2.471-.136 3.419-3.534 3.708-4.948V39.908c0-2.909-4.343-4.776-4.343-4.776h17.536c5.449 0 10.343 3.709 10.343 8.952 0 5.5-3.831 9.341-10.556 9.341zm74.768-18.292h18.813s-4.5 1.55-4.046 4.09c.459 2.545 4.902 18.011 5.536 20.212.636 2.202 4.043 4.393 4.043 4.393h-15.066s3.863-1.792 3.32-4.139c-.55-2.343-1.277-4.476-1.277-4.476h-7.367s-.628 2.448-1.107 4.438c-.475 1.986 3.365 4.177 3.365 4.177h-12.813s3.377-1.42 4.427-4.347c1.053-2.934 4.96-15.822 5.705-19.233.743-3.41-3.533-5.116-3.533-5.116zm-15.109 18.292h-5.748s-.067 3.064 0 5.796c.075 2.73 3.79 4.607 3.79 4.607h-15.195s4.006-2.41 4.173-4.607c.019-.277.038-.763.055-1.394-1.821.076-3.359-.753-3.359-.753 1.931-.106 2.927-2.204 3.411-3.79.028-5.128-.014-11.806-.107-13.376-.151-2.436-4.341-4.776-4.341-4.776h17.534c5.447 0 10.344 3.709 10.344 8.952 0 5.5-3.828 9.341-10.557 9.341zM46.095 27.534h234.059v.702H46.094v-.702z"/>
        <path d="M257.275 40.248h-.083l-2.979 11.555h6.003l-2.941-11.555zM198.211 40.248h-.086l-2.978 11.555h6.001l-2.937-11.555zM172.17 39.309h-3.236v9.893h3.192c3.956 0 5.148-2.517 5.148-4.99 0-2.558-1.359-4.903-5.104-4.903zM104.553 49.543c0-5.032-1.318-11.64-5.447-11.64-4.087 0-5.448 6.483-5.448 11.64 0 5.245 1.536 11.51 5.448 11.51 3.831 0 5.447-6.052 5.447-11.51zM231.826 39.309h-3.237v9.893h3.197c3.958 0 5.146-2.517 5.146-4.99 0-2.558-1.361-4.903-5.106-4.903zM73.072 50.055c0-8.148-2.896-10.663-6.854-10.663h-2.3v20.47h2.3c4.215 0 6.854-2.046 6.854-9.807zM125.311 104.995c-1.578-3.441-3.269-5.249-7.045-6.151 2.762-.339 8.171-1.073 8.171-4.686-.111-1.975-2.422-3.613-4.114-4.178-2.478-.846-5.127-1.015-7.718-1.071h-26.2l6.872 4.402v10.048l-6.873 4.403h23.44l-6.875-4.403v-2.879h4.565c3.323 0 3.55.338 5.126 3.218.677 1.297 1.352 2.652 1.916 4.064h13.299l-4.564-2.767zm-12.285-8.242-1.916.058h-6.141v-4.346h6.705c1.014 0 2.142 0 3.1.282.901.283 1.352 1.186 1.352 2.089 0 1.75-1.747 1.917-3.1 1.917zM173.747 101.384v-8.073l6.876-4.402h-18.482l6.254 4.402v7.168c0 1.299-.281 2.542-1.465 3.275-1.241.846-3.888 1.128-5.411 1.128-1.52 0-4.167-.282-5.409-1.184-1.013-.79-1.295-1.976-1.295-3.219v-7.168l6.254-4.402h-22.876l6.931 4.402v8.073c0 1.129.224 2.032 1.012 2.878 3.101 3.443 9.073 4.459 13.524 4.459 3.495 0 9.579-.394 12.285-2.765 1.295-1.128 1.802-2.88 1.802-4.572zM237.512 88.909h-21.018l-3.55 8.58-3.774-8.58h-19.272l6.875 4.402v10.048l-6.875 4.403h18.708l-6.48-4.403v-11.63l7.044 16.033h5.07l6.988-16.595v12.192l-6.481 4.403h22.765l-6.874-4.403V93.311l6.874-4.402zM119.83 81.469c.163-.053.351-.082.563-.082.233 0 .469.03.709.091.242.06.483.148.725.265.241.115.475.256.702.423h.001l.31.252.378.381.032.03h.226v-1.775h-.223l-.149.11-.003.002c-.355.285-.623.416-.73.41l-.354-.13c-.55-.272-1.086-.41-1.609-.41-.383 0-.74.076-1.069.227-.328.149-.591.356-.784.615-.193.263-.292.551-.292.86 0 .212.051.416.153.604l.005.011.415.47.011.013.445.252.004.002.007.003c.175.072.383.13.627.178.243.05.556.093.94.137l.146.014.139.014c.302.026.563.059.786.093.213.037.369.073.458.101l.358.213.159.375c-.007.192-.087.338-.279.467-.198.13-.47.2-.817.2a3.18 3.18 0 0 1-.78-.1 4.34 4.34 0 0 1-1.574-.76l-.007-.004.005.004a5.301 5.301 0 0 1-.777-.73l-.03-.035h-.259v1.984h.237l.164-.115.003-.002.077-.057.048-.036c.214-.155.37-.256.462-.31l.222-.074c.061 0 .223.05.456.157.223.11.428.195.617.259a3.424 3.424 0 0 0 1.13.186c.354 0 .673-.048.955-.145.283-.096.52-.241.71-.432.152-.152.273-.332.358-.538.086-.207.13-.419.13-.637.001-.495-.221-.916-.642-1.228a2.342 2.342 0 0 0-.735-.368c-.276-.085-.666-.16-1.169-.225l-.268-.036-.065-.01-.091-.01-.098-.01a10.265 10.265 0 0 1-.69-.095 2.523 2.523 0 0 1-.419-.097l-.321-.184-.135-.274.118-.275.378-.22zM134.666 81.449h.239v-.299h-2.609l-1.731 3.165-1.872-3.165h-2.679v.299h.302l.685.354v3.03l-.715 1.074h-.265v.295h2.288v-.295h-.255l-.715-1.075V82.23l2.322 3.973h.244l2.303-4.219v3.501l-.683.423h-.246v.295h3.626v-.295h-.244l-.683-.423V81.87l.688-.421zM140.468 85.906h-.105v.297h3.4v-.297h-.204l-.51-.413-2.807-4.405h-.247l-.03.052-2.051 3.564-.912 1.202h-.189v.297h2.117v-.297h-.197l-.473-1.136.029-.051h2.209l.521.812-.43.375h-.121zm-1.137-3.006.958 1.482h-1.803l.845-1.482zM145.893 85.907h-.238v.295h5.97l.121-2 .007-.112H151.468l-.017.229-1.837 1.545h-1.254v-3.98l.721-.435H149.305v-.299h-3.628v.299h.247l.661.399v3.636l-.692.423zM154.093 85.907h-.24v.295h5.973l.118-2 .007-.112H159.667l-.018.229-1.835 1.545h-1.257v-3.98l.72-.435H157.502v-.299h-3.627v.299h.249l.66.399v3.636l-.691.423zM171.617 83.522l.429-.174.012-.004.4-.3.024-.017.201-.48.016-.04-.211-.532-.006-.016-.01-.013a1.733 1.733 0 0 0-.582-.427 3.46 3.46 0 0 0-.844-.273 5.259 5.259 0 0 0-1.023-.096h-3.842v.299h.241l.675.42v3.629l-.66.409h-.247v.295h4.227c.305 0 .622-.037.948-.113.323-.076.592-.174.804-.299h.002v-.001c.434-.24.678-.583.677-.997a.812.812 0 0 0-.22-.575l-.006-.006-.379-.305-.012-.008-.476-.206-.009-.004-.467-.099.329-.064.009-.003zm-.934 2.168c-.113.115-.284.18-.54.182h-1.265v-2.114h1.094c.347.002.579.087.715.235.139.15.229.424.245.831h.001l.001.079-.055.426-.196.361zm-1.805-4.201h.949c.21 0 .378.02.51.058l.325.18.171.29.067.448c0 .35-.073.594-.194.741-.118.145-.307.225-.602.225h-1.226V81.49zM178.39 85.906h-.105v.297h3.399v-.297h-.203l-.51-.413-2.809-4.405h-.246l-.031.052-2.049 3.565-.914 1.201h-.188v.297h2.118v-.297h-.199l-.472-1.136.029-.051h2.209l.521.812-.427.375h-.123zm-1.138-3.006.959 1.482h-1.803l.844-1.482zM184.921 85.907h-.271v.295h3.721v-.295h-.299l-.67-.416v-4.01h.36l1.498 1.803v.237h.296V81.15h-6.096v2.363h.299v-.243l1.499-1.788h.367v3.995l-.704.43zM195.048 81.542l.489-.093c.333.002.692.088 1.08.264.388.178.718.409.995.69.166.176.346.389.533.636l.032.041h.239l-.091-1.906-.005-.1h-.205l-.101.066-.004.003-.062.049c-.191.139-.345.24-.462.299l-.266.08-.349-.13v.002a3.383 3.383 0 0 0-.722-.29 3.202 3.202 0 0 0-.762-.084c-.854-.002-1.6.245-2.223.74-.692.542-1.055 1.176-1.055 1.884 0 .551.211 1.043.62 1.448a3.64 3.64 0 0 0 1.294.822 4.378 4.378 0 0 0 1.579.294c.988.001 1.789-.31 2.372-.94l.001-.003.308-.402.004-.005.003-.006c.08-.136.159-.31.243-.527l.039-.102-.225-.076-.093-.032-.037.092c-.08.202-.157.361-.225.472l-.287.361a2.547 2.547 0 0 1-.525.422 2.404 2.404 0 0 1-.638.28 2.426 2.426 0 0 1-.667.094c-.212 0-.408-.03-.587-.09a1.486 1.486 0 0 1-.48-.26l-.363-.424-.176-.413h.001a3.788 3.788 0 0 1-.171-1.107c0-.82.189-1.406.548-1.782l.401-.267zM200.801 85.907h-.261v.295h3.648v-.295h-.261l-.677-.423v-1.672h2.156v1.679l-.674.416h-.245v.295h3.612v-.295h-.266l-.648-.409V81.87l.682-.421H208.09v-.299h-3.598v.299h.247l.667.412v1.606h-2.164V81.87l.691-.421h.245v-.299h-3.638v.299h.223l.689.42v3.623l-.651.415zM126.448 111.651h-2.308l-1.042 2.556-.044.209-.045-.209-1.044-2.556h-2.263l.226.726v4.897l-.226.726h1.949l-.227-.726v-2.812l-.047-.362.136.362 1.45 3.538h.046l1.447-3.538.136-.362-.044.362v2.812l-.227.726h2.127l-.226-.726v-4.897l.226-.726zM130.432 111.651l-.605 1.814.94-.319h.707l.093.091v3.812l-.32.951h2.401l-.319-.951v-3.812l.093-.091h.705l.941.319-.605-1.814h-4.031zM138.037 116.004l-.452.455v1.088l.452.452h1.178l.453-.452v-1.088l-.453-.455h-1.178zM147.547 113.599l1.762-1.769-.179-.179h-1.947l-.181.542-1.314 1.316-.136.182v-1.314l.228-.726h-2.175l.228.726v4.897l-.228.726h2.175l-.228-.726v-1.679l.091-.182.454-.453h.136l.751 2.223.09.817h2.263l-.506-.863-1.284-3.538zM156.42 112.239l.134-.588h-3.078l.135.588-1.267 5.035-.362.726h2.083l-.091-.726.135-.546.092-.089h1.494l.09.089.136.546-.092.726h2.219l-.36-.726-1.268-5.035zm-1.071 3.04h-.813l-.092-.093.453-1.949.046-.318.045.318.454 1.949-.093.093zM164.977 112.377v1.951l.044.452-.182-.452-1.583-2.677h-1.948l.27.726v4.897l-.226.726h1.992l-.225-.726v-2.63l-.045-.454.182.454 1.991 3.356h1.221v-5.623l.227-.726h-1.945l.227.726zM172.898 116.458l-.137-.137v-3.856l.273-.814h-2.264l.226.726v4.897l-.226.726h3.714l.613-1.858-.933.316h-1.266zM182.044 112.239l.134-.588H179.1l.135.588-1.266 5.035-.363.726h2.083l-.09-.726.134-.546.092-.089h1.494l.089.089.138.546-.092.726h2.219l-.361-.726-1.268-5.035zm-1.07 3.04h-.813l-.092-.093.452-1.949.045-.318.047.318.452 1.949-.091.093zM188.109 111.651l-1.177 1.179v3.991l1.177 1.179h2.808l1.176-1.179v-3.991l-1.176-1.179h-2.808zm2.173 4.307-.182.363-.36.181h-.453l-.364-.181-.181-.363v-2.359l.181-.362.364-.181h.453l.36.181.182.362v2.359zM199.744 112.377v1.951l.046.452-.182-.452-1.585-2.677h-1.947l.271.726v4.897l-.226.726h1.992l-.226-.726v-2.63l-.045-.454.181.454 1.993 3.356h1.221v-5.623l.227-.726h-1.946l.226.726zM149.978 17.377c.218-.127.343-.03.348.18l.019.81c.211-.094.423-.185.635-.274l-.026-.933c-.008-.338-.101-.529-.233-.634-.14-.11-.349-.114-.615.058-.206.133-.41.27-.613.41-.255.177-.45.431-.579.678a1.578 1.578 0 0 0-.201.74v3.967c0 .281.101.474.257.622a.85.85 0 0 0 .611.232h.669a.753.753 0 0 0 .619-.287c.148-.185.237-.443.227-.788l-.026-.925c-.219.034-.437.07-.655.106l.018.798c.007.222-.127.385-.35.4l-.358.023c-.225.013-.356-.116-.356-.317l-.047-4.133c-.004-.196.116-.41.323-.536l.333-.197zM153.924 14.595c-.222.09-.441.183-.66.281-.278.125-.477.364-.61.644-.135.27-.211.57-.2.955.065 1.854.128 3.707.19 5.561.014.383.113.65.263.852.162.206.366.345.649.345h.667c.3 0 .487-.148.623-.38.146-.229.225-.526.211-.97l-.209-6.273c-.015-.45-.116-.714-.276-.885-.153-.174-.36-.249-.648-.13zm.116 7.726-.362.016c-.224.01-.361-.172-.37-.442a5353.59 5353.59 0 0 0-.195-5.593c-.01-.266.111-.506.332-.593l.359-.137c.231-.087.368.079.377.35l.202 5.899c.011.287-.111.49-.343.5zM159.88 23.205h.637l-.123-10.2c-.321.033-.644.072-.963.119a1105.6 1105.6 0 0 0-.618 5.37l-.111 1.518-.073.004-.17-1.49c-.275-1.717-.555-3.41-.839-5.07-.317.072-.633.151-.947.235l.267 9.515h.637l-.142-5.558-.107-2.19.051-.01c.118.774.237 1.554.355 2.34.225 1.34.447 2.7.667 4.078l.608-.017c.159-1.402.321-2.819.488-4.246.085-.833.172-1.67.26-2.508l.049-.005-.014 2.304.088 5.811zM164.049 12.919c-.562-.03-1.127-.041-1.691-.03l.022 10.316h.669l.006-4.703c.319.003.639.007.958.015.222.006.439-.147.59-.389.159-.273.255-.619.261-1.114.008-.833.016-1.665.026-2.496.004-.499-.086-.844-.235-1.119-.158-.288-.378-.467-.606-.48zm.124 3.93c-.011.353-.153.582-.344.576-.257-.005-.514-.01-.772-.012l.004-3.418c.266.002.531.01.795.02.193.008.336.252.334.588l-.017 2.247zM165.769 23.205h.698l.19-1.78c.364.011.729.025 1.095.04.038.583.078 1.163.117 1.741h.693c-.248-3.176-.504-6.444-.773-9.78-.267-.06-.535-.113-.804-.161a756.2 756.2 0 0 0-1.216 9.94zm1.557-8.19.051.009.049 1.434c.089 1.33.175 2.65.261 3.958-.307-.02-.613-.037-.921-.054.148-1.32.295-2.632.447-3.933.037-.472.074-.944.113-1.414zM172.23 21.388l-.057-.006-.165-1.25a443.8 443.8 0 0 1-.928-5.729c-.244-.092-.49-.18-.736-.265l-.296 9.07h.668c.032-.978.067-1.958.1-2.937l.03-3.965.048.014.173 1.354c.307 1.934.613 3.787.922 5.536l.733.001.275-7.982a23.082 23.082 0 0 0-.654-.305l-.106 3.03-.007 3.434zM175.794 23.216l.045-2.841c.354-1.06.691-2 .999-2.803-.187-.142-.379-.28-.569-.414-.175.524-.355 1.09-.541 1.694-.05.174-.101.352-.151.533l-.044-.017-.142-.662a108.83 108.83 0 0 1-.453-2.42 26.517 26.517 0 0 0-.638-.375c.291 1.523.586 2.95.894 4.27l-.07 3.034h.67zM138.672 20.696a.828.828 0 0 0 .163-.587.8.8 0 0 0-.309-.551l-1.037-.793c-.352-.267-.819-.187-1.046.074l-.034-.024c.166-.31.076-.714-.238-.952l-.896-.684a.802.802 0 0 0-.577-.159.826.826 0 0 0-.557.317l-.97 1.277 4.483 3.42 1.018-1.338zm-3.156-1.134-1.46-1.114.459-.603.445-.067.941.72c.192.147.157.352.04.506l-.425.558zm.473.362.371-.488c.162-.21.467-.334.725-.138l.952.73.054.447-.507.666-1.595-1.217zM141.47 17.554l-.432-.413-.871.918-3.645-3.48-.46.483 4.076 3.892 1.332-1.4zM143.774 15.55l-.387-.456-.962.822-1.297-1.529.79-.675-.386-.453-.791.673-1.188-1.4.962-.819-.39-.46-1.472 1.254 3.649 4.296 1.472-1.253zM146.428 13.657l-.336-.491-1.044.715-1.132-1.658.859-.588-.336-.493-.858.588-1.037-1.519 1.045-.715-.341-.498-1.595 1.092 3.18 4.66 1.595-1.093zM148.966 12.221a.8.8 0 0 0 .389-.451c.076-.203.066-.427-.065-.675l-1.839-3.488a.802.802 0 0 0-1.109-.367l-1.415.747 2.627 4.981 1.412-.747zm-2.5-4.365.43.127 1.774 3.367-.137.428-.667.353-2.067-3.922.667-.353zM151.705 10.987l-2.112-5.237-.621.25 2.114 5.24.619-.253zM153.89 10.217l-.511-1.809-.784-2.39.047-.013.434.739 2.039 3.125.704-.199-1.537-5.43-.641.181.561 1.986.741 2.211-.052.016-.428-.742-2.046-3.123-.704.2 1.535 5.43.642-.182zM157.465 9.118c.164.113.368.18.648.138l.66-.098c.278-.043.456-.158.582-.307.136-.168.199-.39.16-.668l-.334-2.234-1.242.186.088.591.582-.087.236 1.578c.027.184-.09.33-.313.366l-.358.053c-.224.033-.37-.075-.397-.258l-.565-3.794c-.028-.184.081-.332.304-.365l.357-.054c.23-.033.378.082.405.258l.101.669.659-.098-.109-.733a.81.81 0 0 0-.301-.551c-.168-.137-.406-.207-.693-.165l-.66.098a.889.889 0 0 0-.593.341.818.818 0 0 0-.14.633l.583 3.923a.819.819 0 0 0 .34.578zM163.655 6.253l1.079.037-.088 2.604.667.023.192-5.644-.667-.023-.084 2.444-1.078-.038.083-2.443-.669-.024-.19 5.647.667.023.088-2.606zM168.91 8.795l-1.249-.192.305-1.987 1.026.159.09-.591-1.027-.156.277-1.818 1.252.192.089-.598-1.909-.294-.854 5.581 1.91.293.09-.59zM170.85 8.815l1.05.286-.108 1.015.67.182.499-5.717-.746-.202-2.453 5.187.678.184.41-.935zm1.175-2.648.291-.765.047.011-.135.808-.257 2.272-.877-.238.931-2.088zM175.122 8.537l.494.2-.286 2.663.658.266.271-2.824.39-.044a.83.83 0 0 0 .447-.48l.481-1.19c.1-.255.089-.46.009-.648a.828.828 0 0 0-.449-.444l-1.484-.6-2.114 5.236.619.253.964-2.388zm.922-2.29.703.284.182.414-.463 1.143-.427.177-.695-.282.7-1.737zM177.383 12.393l.587.316 2.382-4.429.743.4.285-.53-2.065-1.115-.286.532.736.396-2.382 4.43zM181.729 15.162l1.585-2.028.419.328-1.009 2.481.558.438 1.042-2.638.386.066a.837.837 0 0 0 .563-.338l.791-1.01c.168-.216.212-.418.187-.62a.824.824 0 0 0-.307-.55l-1.263-.992-3.478 4.447.526.416zm3.107-3.974.595.47.061.446-.761.973-.459.05-.59-.464 1.154-1.475zM184.508 17.22a.887.887 0 0 0 .277.623l.47.478c.209.211.413.28.622.283.209.006.403-.06.603-.26l3.418-3.386-.473-.478-3.375 3.348-.473-.043-.256-.258-.025-.475 3.37-3.34-.47-.476-3.417 3.386c-.195.192-.27.39-.271.598zM187.294 20.602l2.612-1.927 1.003-.802.029.038-.944 1.058-1.575 1.868.358.486 2.241-.96 1.288-.59.029.04-1.061.723-2.611 1.927.379.514 4.546-3.358-.547-.741-2.807 1.21-.769.397-.043-.057.606-.62 1.979-2.336-.544-.741-4.546 3.356.377.515z"/>
        <path d="M325.086 65.21c-.389.044-.822.271-1.085.271l-.351-.085c0-3.424-1.089-5.94.747-9.17.347-.598.65-1.188.514-1.562-.12-.367-.735-.495-1.731-.178-.963.274-2.226 1.005-3.354 2.002-.096-1.642-1.539-2.785-3.009-2.511.26-1.411-.739-2.735-2.137-2.735-1.26 0-2.225 1.096-2.181 2.423-1.505-1.64-2.97-2.743-4.444-3.468 1.474-.727 2.939-1.835 4.444-3.473-.044 1.326.919 2.429 2.176 2.429 1.396 0 2.394-1.327 2.138-2.736 1.474.267 2.917-.874 3.001-2.51 1.135.994 2.397 1.727 3.359 1.997 1.002.322 1.612.19 1.732-.174.139-.372-.167-.963-.514-1.56-1.83-3.24-.741-5.748-.741-9.168l.351-.091c.262 0 .696.229 1.085.273 1.094.18.923-.64.871-1.42 0-.775 0-1.914-.042-2.696-.26-2.595-2.222-3.962-3.783-5.512-.831-.83.564-1.149 1.427-2.149 1.138-1.272 1.439-3.878.484-5.344-2.397-3.743-7.889-2.327-7.277 1.835-2.045-2.75-3.962-3.567-7.091-4.528.732-.597 1.211-1.272 1.478-2.055.434-1.184-.137-1.184-1.005-1.45-.26-.096-.353-.19-.26-.697.082-.495.303-1.36.348-1.961.042-1.047-.915-1.87-.741-2.828.084-.455.475-.825.609-1.042.132-.282 0-.413-.309-.37-.26.05-.734.324-1.172.37-.782.087-1.875-.413-2.568-.094-.307.138-.433.453-.351.815.268 1.007.351 1.919.268 2.743-2.402-.682-5.063-.64-7.413.27-1.091-.774-1.998-1.825-2.48-3.105a.263.263 0 0 0-.489 0c-.509 1.28-1.383 2.33-2.477 3.105a11.492 11.492 0 0 0-8.187 0 7.072 7.072 0 0 1-2.485-3.105.253.253 0 0 0-.476 0 6.799 6.799 0 0 1-2.482 3.105c-1.273-.49-2.618-.71-3.961-.72v-.015l-.125.002-.124-.002v.015c-1.349.01-2.696.23-3.959.72-1.09-.774-2.004-1.825-2.481-3.105a.257.257 0 0 0-.481 0 7.145 7.145 0 0 1-2.483 3.105 11.506 11.506 0 0 0-8.192 0 7.1 7.1 0 0 1-2.485-3.105c-.087-.222-.383-.222-.483 0-.473 1.28-1.388 2.33-2.481 3.105a11.378 11.378 0 0 0-8.145 0c-1.131-.774-2.001-1.825-2.483-3.105l-.124-.132h-.05l-.081-.036-.089.036-.126.132a6.968 6.968 0 0 1-2.535 3.105 11.644 11.644 0 0 0-4.051-.724c-1.482 0-2.834.267-4.096.724-1.085-.774-2.001-1.825-2.481-3.105-.085-.222-.43-.222-.473 0-.481 1.28-1.403 2.33-2.483 3.105-2.618-1.005-5.581-1.005-8.143 0a6.86 6.86 0 0 1-2.536-3.105c-.079-.27-.389-.222-.477 0-.474 1.28-1.352 2.33-2.482 3.105a11.39 11.39 0 0 0-8.149 0c-1.09-.774-2.008-1.825-2.486-3.105a.254.254 0 0 0-.477 0 6.99 6.99 0 0 1-2.482 3.105 11.487 11.487 0 0 0-8.185 0 7.067 7.067 0 0 1-2.486-3.105.258.258 0 0 0-.482 0 6.7 6.7 0 0 1-.658 1.228c-13.344-9.59-32.645-9.594-45.987 0a8.212 8.212 0 0 1-.661-1.228c-.09-.222-.396-.222-.477 0a7.086 7.086 0 0 1-2.485 3.105c-2.607-1.005-5.57-1.005-8.145 0a6.873 6.873 0 0 1-2.524-3.105.259.259 0 0 0-.484 0c-.473 1.28-1.348 2.33-2.479 3.105a11.386 11.386 0 0 0-8.148 0c-1.086-.774-2.002-1.825-2.478-3.105-.087-.222-.4-.27-.482 0a6.865 6.865 0 0 1-2.529 3.105c-2.558-1.005-5.529-1.005-8.145 0a7.078 7.078 0 0 1-2.48-3.105c-.049-.222-.39-.222-.479 0-.482 1.28-1.397 2.33-2.487 3.105a11.865 11.865 0 0 0-4.093-.724c-1.44 0-2.828.267-4.053.724a6.974 6.974 0 0 1-2.533-3.105l-.08-.132h-.049l-.078-.036-.09.036h-.04l-.09.132h-.046c-.476 1.28-1.35 2.33-2.48 3.105a11.382 11.382 0 0 0-8.147 0c-1.093-.774-2.004-1.825-2.486-3.105-.081-.222-.385-.222-.478 0-.516 1.28-1.394 2.33-2.481 3.105a11.497 11.497 0 0 0-8.189 0 7.094 7.094 0 0 1-2.483-3.105c-.082-.222-.389-.222-.478 0-.475 1.28-1.392 2.33-2.488 3.105a11.276 11.276 0 0 0-3.908-.734v-.001h-.01l-.094-.013v.015c-1.4-.001-2.79.23-4.105.733a6.822 6.822 0 0 1-2.486-3.105.252.252 0 0 0-.474 0 7.11 7.11 0 0 1-2.482 3.105 11.516 11.516 0 0 0-8.196 0c-1.088-.774-1.964-1.825-2.474-3.105a.26.26 0 0 0-.485 0c-.483 1.28-1.398 2.33-2.48 3.105-2.352-.91-5.019-.952-7.407-.27-.094-.824 0-1.736.26-2.743.086-.362-.042-.677-.354-.815-.687-.319-1.784.18-2.564.094-.434-.046-.911-.32-1.177-.37-.308-.043-.436.088-.308.37.138.217.526.587.614 1.042.173.958-.786 1.781-.742 2.828.047.6.266 1.466.345 1.961.09.507 0 .601-.257.696-.87.267-1.443.267-1 1.451.262.783.74 1.458 1.476 2.055-3.131.96-5.047 1.778-7.098 4.528.615-4.162-4.875-5.578-7.272-1.835-.96 1.466-.657 4.072.482 5.345.865 1 2.254 1.318 1.43 2.148-1.558 1.55-3.526 2.917-3.786 5.512-.044.782-.044 1.92-.044 2.695-.05.78-.22 1.6.875 1.421.386-.044.825-.273 1.086-.273l.353.09c0 3.42 1.084 5.93-.746 9.17-.35.596-.653 1.187-.521 1.56.123.364.739.495 1.734.173.964-.27 2.227-1.003 3.357-1.997.092 1.636 1.537 2.777 3.006 2.51-.258 1.41.738 2.736 2.139 2.736 1.26 0 2.223-1.103 2.18-2.429 1.502 1.638 2.97 2.747 4.444 3.473-1.474.724-2.942 1.828-4.444 3.468.043-1.327-.918-2.423-2.175-2.423-1.397 0-2.395 1.324-2.143 2.735-1.47-.274-2.913.87-3 2.511-1.137-.997-2.397-1.728-3.361-2.002-.998-.317-1.61-.189-1.727.178-.138.374.161.964.512 1.562 1.833 3.23.745 5.746.745 9.17L2 65.48c-.26 0-.7-.227-1.086-.27-1.094-.19-.922.638-.867 1.416 0 .776 0 1.916.04 2.7.258 2.595 2.224 3.963 3.784 5.515.823.82-.568 1.144-1.43 2.144-1.141 1.275-1.438 3.876-.484 5.343 2.4 3.741 7.89 2.326 7.28-1.832 2.045 2.744 3.96 3.569 7.093 4.523-.739.593-1.214 1.28-1.48 2.057-.436 1.184.135 1.184 1.001 1.45.262.094.356.193.262.7-.081.495-.303 1.36-.35 1.96-.041 1.042.915 1.87.747 2.823-.088.458-.478.827-.614 1.044-.133.285 0 .415.311.368.258-.047.735-.319 1.169-.368.781-.082 1.877.415 2.571.1.305-.136.433-.462.349-.818-.265-1.01-.349-1.923-.265-2.745 2.401.686 5.064.638 7.41-.27 1.093.777 2 1.823 2.483 3.103.09.225.39.225.485 0 .517-1.28 1.385-2.326 2.478-3.104a11.512 11.512 0 0 0 8.189 0c1.091.778 1.963 1.824 2.483 3.104.084.225.39.225.48 0a6.784 6.784 0 0 1 2.479-3.104c1.275.482 2.617.709 3.96.719v.02l.127-.01.123.01v-.02a11.356 11.356 0 0 0 3.96-.719c1.09.778 2.005 1.824 2.481 3.104.09.225.396.225.477 0a7.174 7.174 0 0 1 2.488-3.104 11.504 11.504 0 0 0 8.186 0c1.087.778 1.961 1.824 2.486 3.104a.259.259 0 0 0 .485 0c.474-1.28 1.388-2.326 2.482-3.104a11.388 11.388 0 0 0 8.144 0s3.68-1.307 5.181-4.703c.265-.64.43-1.277.527-2.014h18.364s1.084-1.6 3.03-2.023c-1.691-.341-2.999-2.12-2.999-2.12H31.059c-2.619-.1-5.496-.418-7.672-1.327-5.924-2.557-10.979-9.404-9.67-16.44.393-2.229 1.528-4.692 3.318-6.379 1.826-1.693 4.356-2.56 6.572-2.515 11.023.281 7.8 15.527 1.608 12.095-.518-.319-.784-.683-.956-.873-.087-.115-.042-.144.135-.084 5.048 1.504 5.357-4.56 2.79-6.437-1.969-1.414-4.837-1.182-6.409.774-1.352 1.647-1.873 4.566-1.211 6.671 1.733 5.476 9.23 6.431 13.107 2.324 3.046-3.248 2.48-6.848.737-10.55-.301-.68-.35-1.18-.084-1.137 1.358.091 2.53 2.925 6.18 1.097.463-.222 1.388-.767 1.663-1.33a8.976 8.976 0 0 0 1.624-1.352c.43.112.832.272.806.58-.299 2.282-4.484 4.201-6.66 3.61-.215-.045-1.304-.64-1.565-.504-.09.047-.09.235 0 .548.52 1.415.786 2.097.695 3.693-.086 2.198-.96 4.48-2.482 6.26-3.396 3.962-8.84 4.334-12.85 1.044-5.967-4.794-2.621-16.112 5.092-13.689.135.043 1.79.407.962-.366-.3-.276-1.127-.596-2.092-.727-5.01-.825-9.105 3.651-9.498 8.671-.83 9.903 8.017 14.193 16.163 14.559.254 0 3.002 0 3.177.052h256.916c.186-.052 2.926-.052 3.189-.052 8.139-.366 16.987-4.656 16.159-14.559-.396-5.02-4.489-9.496-9.496-8.671-.955.13-1.786.451-2.094.727-.827.773.827.409.964.366 7.711-2.423 11.061 8.895 5.098 13.689-4.008 3.29-9.462 2.918-12.852-1.044-1.53-1.78-2.398-4.062-2.488-6.26-.085-1.596.178-2.278.7-3.693.084-.313.084-.5 0-.548-.267-.136-1.352.459-1.571.504-2.177.591-6.361-1.328-6.659-3.61-.028-.308.373-.468.806-.58a8.914 8.914 0 0 0 1.622 1.354c.28.564 1.203 1.106 1.665 1.328 3.653 1.828 4.829-1.006 6.181-1.097.265-.043.219.457-.084 1.138-1.743 3.701-2.307 7.302.741 10.549 3.877 4.107 11.369 3.152 13.106-2.324.656-2.105.14-5.024-1.221-6.67-1.562-1.957-4.435-2.19-6.396-.775-2.57 1.877-2.264 7.94 2.787 6.437.175-.06.218-.031.131.085-.174.189-.436.553-.956.872-6.187 3.432-9.415-11.814 1.608-12.095 2.227-.044 4.75.822 6.571 2.515 1.797 1.687 2.927 4.15 3.313 6.38 1.32 7.035-3.74 13.882-9.665 16.439-2.178.91-5.052 1.227-7.664 1.326h-75.56s-1.038 1.611-2.761 1.95c1.807.51 2.761 2.134 2.761 2.134l19.038.025a9.078 9.078 0 0 0 .998 2.946s1.399 2.441 4.705 3.807a11.403 11.403 0 0 0 8.149 0c1.093.777 2.005 1.823 2.486 3.103.084.225.386.225.479 0 .522-1.28 1.394-2.326 2.483-3.103a11.512 11.512 0 0 0 8.189 0c1.086.777 1.96 1.823 2.482 3.103.084.225.39.225.479 0 .475-1.28 1.392-2.326 2.488-3.103 1.254.48 2.577.718 3.911.736v.002h.004l.097.013v-.021a11.272 11.272 0 0 0 4.107-.73 6.76 6.76 0 0 1 2.48 3.103c.093.225.39.225.478 0 .524-1.28 1.397-2.326 2.482-3.103a11.53 11.53 0 0 0 8.196 0c1.086.777 1.963 1.823 2.477 3.103a.258.258 0 0 0 .484 0c.479-1.28 1.394-2.326 2.477-3.103 2.351.908 5.018.956 7.409.27.091.822 0 1.736-.264 2.745-.082.356.044.682.355.817.689.316 1.786-.18 2.564-.1.438.05.913.322 1.181.37.306.046.432-.084.306-.37-.134-.216-.528-.585-.615-1.043-.174-.953.783-1.781.741-2.823-.045-.6-.26-1.465-.343-1.96-.089-.507 0-.606.255-.7.871-.266 1.443-.266 1.006-1.45-.266-.778-.747-1.464-1.479-2.057 3.13-.954 5.046-1.779 7.094-4.523-.612 4.158 4.88 5.573 7.279 1.832.954-1.466.649-4.067-.486-5.343-.866-1-2.256-1.324-1.43-2.144 1.56-1.552 3.526-2.92 3.788-5.516.041-.782.041-1.923.041-2.699.048-.778.219-1.605-.875-1.416zM12.723 53.477c0 .821-.614 1.466-1.395 1.466-.742 0-1.397-.645-1.397-1.466 0-1.918 2.792-1.918 2.792 0zm-.83 2.244c-.227.264-.391.594-.565.906 0-.27-.045-.592-.136-.861.31.038.395.038.701-.045zm-3.142-.83c.92 0 1.655.78 1.655 1.736 0 .962-.735 1.737-1.655 1.737-.908 0-1.658-.775-1.658-1.737 0-.955.75-1.735 1.658-1.735zm1.524 3.926a21.884 21.884 0 0 0-.828 2.605c-.262-.734-.601-1.412-.995-2.101.653.092 1.304-.133 1.823-.504zm9.85 32.231.041-.229c2.096-1.096 4.58-1.05 6.663.134-2.184.729-4.528.729-6.704.095zm.216-.92c.176-.59.434-1.134.741-1.6.215-.082.432-.179.612-.311 1.224.229 2.346.187 3.568-.045 1.26.687 2.795 1.094 4.444 1.188l.045.045c-.655.546-1.442.957-2.264 1.324a7.557 7.557 0 0 0-7.146-.6zm5.708-2.14a9.117 9.117 0 0 0 1.916-.868 6.784 6.784 0 0 0 1.178 1.642 9.516 9.516 0 0 1-3.094-.773zm4.14 5.748a7.604 7.604 0 0 0-2.183-2.655 11.34 11.34 0 0 0 2.183-1.311 9.63 9.63 0 0 0 2.136 1.311 6.93 6.93 0 0 0-2.136 2.655zm3.317-2.783a7.029 7.029 0 0 1 6.963 0 11.357 11.357 0 0 1-6.963 0zm-.661-.224c-.826-.367-1.615-.778-2.267-1.324h.037c1.71-.045 3.32-.5 4.712-1.188 1.182.229 2.352.187 3.532-.045 1.298.687 2.828 1.094 4.479 1.188l.047.045c-.697.546-1.442.957-2.267 1.324a7.565 7.565 0 0 0-8.273 0zm-1.658-1.916a8.497 8.497 0 0 0 1.185-1.693c.65.368 1.34.685 2.08.918-.998.408-2.08.683-3.265.775zm4.88-1.052a6.41 6.41 0 0 0 1.043-.779c.349.271.65.553 1.046.779a7.678 7.678 0 0 1-2.09 0zm3.618.228c.649-.228 1.305-.501 1.914-.869a8.024 8.024 0 0 0 1.131 1.642 9.284 9.284 0 0 1-3.045-.773zm4.093 5.747a7.01 7.01 0 0 0-2.132-2.655 9.894 9.894 0 0 0 2.132-1.311c.647.495 1.389.96 2.173 1.311a7.669 7.669 0 0 0-2.173 2.655zm6.842-2.254a10.94 10.94 0 0 1-3.492-.529 6.956 6.956 0 0 1 3.478-.899 6.892 6.892 0 0 1 3.47.899c-1.1.364-2.279.529-3.456.529zm.109-1.966V89.5l-.123.007-.127-.007v.014a7.511 7.511 0 0 0-4.004 1.213c-.827-.367-1.605-.778-2.258-1.324a11.08 11.08 0 0 0 4.702-1.188c.537.1 1.047.127 1.56.127v.002l.04-.002.21.019v-.02a10.651 10.651 0 0 0 1.78-.17c1.27.686 2.793 1.093 4.445 1.187l.039.045c-.65.546-1.427.957-2.265 1.324a7.478 7.478 0 0 0-4-1.213zm-5.905-.703c.478-.55.872-1.095 1.172-1.693.654.368 1.304.685 2.052.918-.963.408-2.052.683-3.224.775zm5.95-1.83c.3.27.65.552.99.778a7.829 7.829 0 0 1-1.285.054 10.25 10.25 0 0 1-.78-.054c.295-.178.544-.38.78-.588v.02l.294-.21zm2.517 1.006a8.907 8.907 0 0 0 1.917-.869 7.097 7.097 0 0 0 1.177 1.642 9.552 9.552 0 0 1-3.094-.773zm4.145 5.747a7.533 7.533 0 0 0-2.184-2.655 11.392 11.392 0 0 0 2.184-1.311c.607.495 1.351.96 2.13 1.311a6.95 6.95 0 0 0-2.13 2.655zm3.308-2.783a7.047 7.047 0 0 1 6.972 0c-2.27.729-4.704.729-6.972 0zm-.655-.224c-.827-.367-1.614-.778-2.265-1.324h.05a11.026 11.026 0 0 0 4.659-1.188c1.218.229 2.39.187 3.572-.045 1.306.687 2.833 1.094 4.486 1.188l.048.045c-.703.546-1.45.957-2.267 1.324a7.58 7.58 0 0 0-8.283 0zm-1.66-1.916c.485-.55.876-1.095 1.18-1.693.651.368 1.353.685 2.097.918-1 .408-2.096.683-3.277.775zm4.885-1.052a5.95 5.95 0 0 0 1.046-.779c.354.271.656.553 1 .779a7.356 7.356 0 0 1-2.046 0zm3.62.228a10.579 10.579 0 0 0 1.913-.869 8.322 8.322 0 0 0 1.135 1.642 9.24 9.24 0 0 1-3.049-.773zm4.092 5.747a7.007 7.007 0 0 0-2.136-2.655 9.73 9.73 0 0 0 2.136-1.311c.66.495 1.394.96 2.182 1.311a7.555 7.555 0 0 0-2.182 2.655zm3.357-2.783a6.954 6.954 0 0 1 6.923 0 11.23 11.23 0 0 1-6.923 0zm7.575-.224c-2.522-1.641-5.703-1.641-8.236 0-.816-.367-1.603-.778-2.256-1.324a10.996 10.996 0 0 0 4.697-1.188c1.222.229 2.352.187 3.574-.045 1.301.687 2.827 1.094 4.445 1.188l.041.045c-.653.546-1.396.957-2.265 1.324zm-9.889-1.916a8.269 8.269 0 0 0 1.184-1.693c.65.368 1.302.685 2.041.918-.956.408-2.04.683-3.225.775zm4.886-1.052A7.028 7.028 0 0 0 78 86.981c.3.271.648.553.996.779a7.339 7.339 0 0 1-2.042 0zm3.568.228c.695-.228 1.35-.501 1.913-.869a7.036 7.036 0 0 0 1.18 1.642 9.79 9.79 0 0 1-3.093-.773zm4.529-3.385h2.047c-.087.593-.215 1.194-.48 1.742a8.096 8.096 0 0 1-1.653-1.647l.086-.095zm1.346 2.244c-.182.4-.431.776-.72 1.137l-.865.874h-.02l-.39-.046c-.615-.596-1.139-1.231-1.529-1.965.696-.455 1.308-1.003 1.78-1.65.484.647 1.092 1.195 1.744 1.65zm-2.13-2.244.049.095a6.38 6.38 0 0 1-1.658 1.647c-.223-.548-.394-1.149-.437-1.742h2.047zm-2.575 0c.095.737.265 1.375.53 2.014a7.58 7.58 0 0 1-2.396.963 8.57 8.57 0 0 1-1.443-.963 7.815 7.815 0 0 0 1.402-2.014h1.907zm-2.528 0a7.172 7.172 0 0 1-1.164 1.655c-.484-.508-.925-1.062-1.223-1.655h2.387zm-2.956 0c.349.737.826 1.42 1.394 2.014-.439.364-.96.727-1.52 1-.915-.18-1.839-.498-2.615-1 .254-.64.478-1.277.517-2.014h2.224zm-4.794 0h2.053a5.743 5.743 0 0 1-.445 1.742 6.397 6.397 0 0 1-1.645-1.647l.037-.095zm1.399 2.244a8.43 8.43 0 0 1-1.522 2.01h-.094l-.432-.045c-.615-.596-1.137-1.231-1.486-1.965.656-.455 1.268-1.003 1.746-1.65a6.98 6.98 0 0 0 1.788 1.65zm-2.175-2.244.076.095c-.47.642-.993 1.196-1.651 1.647-.257-.548-.389-1.149-.476-1.742h2.05zm-2.577 0c.09.737.259 1.375.57 2.014-.741.46-1.572.772-2.449.963-.514-.28-.99-.599-1.43-.963.606-.594 1.091-1.277 1.395-2.014h1.914zm-2.485 0c-.298.593-.737 1.147-1.217 1.655a6.999 6.999 0 0 1-1.171-1.655h2.388zm-3.006 0a7.74 7.74 0 0 0 1.4 2.014 8.284 8.284 0 0 1-1.484 1c-.954-.18-1.877-.498-2.662-1a6.03 6.03 0 0 0 .569-2.014h2.177zm-4.79 0h2.09a7.825 7.825 0 0 1-.48 1.742c-.645-.452-1.166-1.005-1.647-1.647l.037-.095zm1.389 2.244a8.05 8.05 0 0 1-1.523 2.01h-.081l-.396-.045a7.3 7.3 0 0 1-1.523-1.965c.697-.455 1.267-1.003 1.79-1.65a6.644 6.644 0 0 0 1.733 1.65zm-2.13-2.244.048.095a6.33 6.33 0 0 1-1.666 1.647c-.214-.548-.386-1.149-.43-1.742h2.047zm-2.565 0c.044.737.253 1.375.517 2.014-.738.46-1.566.772-2.438.963-.523-.28-1.005-.599-1.391-.963a8.015 8.015 0 0 0 1.39-2.014h1.922zm-2.528 0a7.305 7.305 0 0 1-1.174 1.655l-.294-.343v.034c-.362-.42-.704-.86-.946-1.346h2.414zm-2.98 0c.347.737.808 1.42 1.393 2.014-.44.364-.966.727-1.529 1-.916-.18-1.827-.498-2.615-1 .259-.64.486-1.277.52-2.014h2.232zm-4.795 0h2.044c-.042.593-.22 1.194-.436 1.742a6.263 6.263 0 0 1-1.654-1.647l.046-.095zm1.38 2.244a8.108 8.108 0 0 1-1.513 2.01h-.09l-.432-.045c-.609-.596-1.134-1.231-1.48-1.965.65-.455 1.261-1.003 1.74-1.65a7.924 7.924 0 0 0 1.774 1.65zm-2.167-2.244.09.095c-.482.642-1.001 1.196-1.663 1.647a7.958 7.958 0 0 1-.474-1.742h2.047zm-2.569 0c.087.737.26 1.375.57 2.014-.746.46-1.579.772-2.444.963a8.476 8.476 0 0 1-1.439-.963c.61-.594 1.097-1.277 1.392-2.014h1.921zm-2.48 0c-.308.593-.743 1.147-1.226 1.655a7.206 7.206 0 0 1-1.171-1.655h2.396zm-3.01 0c.354.737.832 1.42 1.395 2.014-.43.364-.96.727-1.48 1a7.76 7.76 0 0 1-2.66-1c.307-.64.477-1.277.567-2.014h2.179zm-4.748 0h2.053a8.21 8.21 0 0 1-.48 1.742c-.655-.452-1.179-1.005-1.664-1.647l.09-.095zm1.346 2.244a8.188 8.188 0 0 1-1.514 2.01h-.095l-.39-.045c-.61-.596-1.13-1.231-1.523-1.965.694-.455 1.264-1.003 1.787-1.65.474.647 1.082 1.195 1.735 1.65zm-2.132-2.244.05.095a6.546 6.546 0 0 1-1.655 1.647 6.143 6.143 0 0 1-.443-1.56c.696-.087 1.352-.13 2.048-.182zm-5.147 1.101c.835-.364 1.702-.64 2.58-.821.127.639.262 1.187.52 1.734-.734.46-1.568.772-2.441.963-.528-.28-.995-.599-1.39-.963.257-.318.517-.594.73-.913zm-1.123 1.277c.309.271.649.553 1 .779a7.349 7.349 0 0 1-2.043 0c.343-.226.693-.508 1.043-.779zm-1.7-5.017c.306.137 1.565.678 1.096 1.18-1.095-.41-2.621-.91-3.93-1.459-6.093-2.464-9.099-6.615-11.145-12.872-.484-1.366-.962-2.686-1.179-3.379-.172-.457-.246-.548-.22-.272.22 1.968.827 5.254 1.614 7.489 1.389 3.925 4.097 6.805 7.706 8.671 1.137.595 2.57 1.196 3.313 1.6.783.405.871.544.61.637-.217.047-.826.047-1.788-.232-2.7-.773-5.269-1.956-6.927-4.426-.3-.457-.566-.815-.697-.815-.125.042-.208.449-.125.815.172.773.912 1.37.303.914-.258-.23-.831-.682-1.268-1.001-1.69-1.233-4.393-.184-4.224 1.362.045.32.26.555.57.647.874.183 1.263-.647 1.522-.647.662-.084.828 1.236.79 1.741-.349 1.914-3.446 1.461-4.539-.136-.734-1.1-.52-3.196.397-4.153 1.133-1.194 2.62-.46 3.917-.552.957-.09 1.873-1.005.957-1.819-.477-.367-1.304-.738-2.303-1.237-2.968-1.55-4.184-2.56-5.175-5.93-.273-.866-.399-1.827.814-1.236 1.44.727 1.921 2.193 2.659 2.736.609.418 1.051-.089.873-.777-.348-1.313-1.302-1.18-1.263-2.965.086-4.013 1.74-4.794-.654-8.855-.259-.505-.348-.865-.222-.96 1.62-1.233 5.403 6.48 5.84 8.175-.257 8.63 5.446 14.606 12.679 17.756zm291.46-35.052c0-.817.606-1.458 1.393-1.458.743 0 1.397.64 1.397 1.458 0 1.92-2.79 1.92-2.79 0zm.828-2.242c.226-.265.393-.587.565-.904 0 .272.046.59.138.863-.31-.043-.397-.043-.703.041zm3.143.828c-.922 0-1.651-.778-1.651-1.732 0-.962.729-1.737 1.651-1.737.906 0 1.652.775 1.652 1.737 0 .954-.746 1.733-1.652 1.733zm-1.529-3.924c.347-.868.607-1.735.83-2.606.259.73.602 1.415.996 2.101-.65-.093-1.304.136-1.826.505zm-8.708-22.863c6.09 2.459 9.098 6.613 11.143 12.866.484 1.37.962 2.693 1.179 3.382.173.46.246.55.219.273-.219-1.964-.824-5.253-1.614-7.494-1.389-3.925-4.096-6.795-7.707-8.67-1.134-.592-2.573-1.188-3.313-1.599-.785-.41-.868-.538-.61-.635.222-.05.83-.05 1.793.226 2.697.774 5.26 1.966 6.919 4.43.304.458.577.817.699.817.126-.04.211-.447.126-.817-.167-.776-.911-1.37-.304-.911.261.226.833.678 1.267 1 1.701 1.238 4.402.184 4.227-1.365a.771.771 0 0 0-.568-.642c-.874-.186-1.264.642-1.523.642-.661.09-.827-1.234-.79-1.738.355-1.918 3.44-1.465 4.537.13.738 1.104.517 3.204-.397 4.157-1.131 1.193-2.615.458-3.918.556-.953.088-1.873 1.004-.953 1.818.478.368 1.305.733 2.302 1.237 2.966 1.548 4.189 2.56 5.175 5.929.27.867.4 1.829-.815 1.237-1.437-.73-1.922-2.195-2.66-2.738-.607-.411-1.049.09-.873.774.352 1.318 1.304 1.18 1.265 2.967-.086 4.02-1.743 4.793.651 8.857.259.507.349.861.223.957-1.615 1.231-5.402-6.48-5.838-8.17.258-8.633-5.446-14.607-12.676-17.756-.308-.141-1.568-.68-1.101-1.182 1.101.408 2.623.91 3.935 1.462zm-114.507-6.08a7.683 7.683 0 0 1 2.045 0c-.34.229-.694.509-.995.778-.351-.269-.659-.55-1.05-.779zm.657 1.145-.132.134c-.174-.182-.31-.411-.482-.595.22.144.398.325.614.461zm.393.362a7.248 7.248 0 0 1 1.173 1.653h-.345c-.35-.511-.664-.963-1.046-1.47l.218-.183zm.383-.362c.445-.367.921-.734 1.483-1 .966.178 1.834.494 2.621 1a7.319 7.319 0 0 0-.527 2.015h-2.178a7.55 7.55 0 0 0-1.399-2.015zm2.266-1.417a10.914 10.914 0 0 1 3.269-.776 8.667 8.667 0 0 0-1.176 1.687 10.606 10.606 0 0 0-2.093-.911zm2.314 1.687c.65.454 1.177 1.002 1.652 1.648l-.088.097h-2.04c.084-.598.21-1.194.476-1.745zm.215-.504c.391-.728.872-1.411 1.524-2.006h.083l.394.047c.613.595 1.137 1.231 1.528 1.959-.697.465-1.305 1.008-1.78 1.65-.487-.642-1.09-1.185-1.749-1.65zm3.75.504c.217.55.397 1.147.434 1.745h-2.049l-.042-.097a6.399 6.399 0 0 1 1.657-1.648zm.217-.776a7.07 7.07 0 0 0-1.179-1.643 9.464 9.464 0 0 1 3.092.78c-.693.223-1.349.495-1.913.863zm2.607-.456a8.257 8.257 0 0 1 1.447.962 7.517 7.517 0 0 0-1.396 2.015h-1.917c-.049-.743-.271-1.375-.524-2.015a7.46 7.46 0 0 1 2.39-.962zm.837-.184c.391-.042.779-.09 1.172-.09.303 0 .569.048.878.09-.404.23-.706.51-1.055.78-.301-.27-.65-.55-.995-.78zm.995 1.508c.48.508.924 1.055 1.233 1.653h-2.403a6.996 6.996 0 0 1 1.17-1.653zm.399-.362a6.813 6.813 0 0 1 1.527-1c.956.178 1.826.494 2.609 1a7.314 7.314 0 0 0-.521 2.015h-2.223a7.665 7.665 0 0 0-1.392-2.015zm2.305-1.417c.96-.41 2.095-.684 3.222-.776-.434.548-.872 1.094-1.178 1.687a9.416 9.416 0 0 0-2.044-.911zm2.263 1.687a6.436 6.436 0 0 1 1.658 1.648l-.04.097h-2.05c.04-.598.213-1.194.432-1.745zm.226-.504a8.06 8.06 0 0 1 1.519-2.006h.131l.393.047c.603.595 1.133 1.231 1.48 1.959-.653.465-1.26 1.008-1.741 1.65-.478-.642-1.095-1.185-1.782-1.65zm3.739.504c.265.55.394 1.147.481 1.745h-2.045l-.092-.097a8.16 8.16 0 0 1 1.656-1.648zm.218-.776c-.298-.593-.702-1.14-1.132-1.643 1.089.092 2.138.362 3.043.78a9.973 9.973 0 0 0-1.911.863zm2.661-.456c.516.278.998.595 1.429.962a7.871 7.871 0 0 0-1.388 2.015h-1.917a7.724 7.724 0 0 0-.522-2.015c.697-.46 1.523-.771 2.398-.962zm.826-.184a7.715 7.715 0 0 1 2.049 0c-.398.23-.742.51-1.05.78a8.95 8.95 0 0 0-.999-.78zm.999 1.508a6.941 6.941 0 0 1 1.177 1.653h-2.391c.3-.598.734-1.145 1.214-1.653zm.397-.362a8.087 8.087 0 0 1 1.477-1c.959.178 1.873.494 2.66 1a6.18 6.18 0 0 0-.568 2.015h-2.175a7.769 7.769 0 0 0-1.394-2.015zm2.263-1.417c1-.41 2.085-.684 3.268-.776-.479.548-.877 1.094-1.183 1.687a10.567 10.567 0 0 0-2.085-.911zm2.312 1.687a6.443 6.443 0 0 1 1.652 1.648l-.046.097h-2.044c.036-.598.211-1.194.438-1.745zm.21-.504a8.5 8.5 0 0 1 1.533-2.006h.082l.391.047a7.475 7.475 0 0 1 1.533 1.959 6.958 6.958 0 0 0-1.752 1.65c-.522-.642-1.083-1.185-1.787-1.65zm3.748.504c.216.55.396 1.147.436 1.745h-2.047l-.044-.097c.437-.646 1-1.194 1.655-1.648zm.216-.776a6.962 6.962 0 0 0-1.174-1.643 9.328 9.328 0 0 1 3.097.78c-.7.223-1.305.495-1.923.863zm2.662-.456a8.556 8.556 0 0 1 1.441.962 6.628 6.628 0 0 0-1.441 2.015h-1.872a6.283 6.283 0 0 0-.57-2.015c.737-.46 1.565-.771 2.442-.962zm.777-.184c.395-.042.79-.09 1.18-.09.308 0 .613.048.871.09-.346.23-.696.51-1.044.78-.3-.27-.612-.55-1.007-.78zm1.007 1.508a6.153 6.153 0 0 1 1.221 1.653h-2.395a7.104 7.104 0 0 1 1.174-1.653zm.394-.362c.475-.367.956-.734 1.522-1 .959.178 1.833.494 2.614 1a7.848 7.848 0 0 0-.526 2.015h-2.218a6.016 6.016 0 0 0-1.392-2.015zm2.303-1.417a10.941 10.941 0 0 1 3.276-.776c-.481.548-.876 1.094-1.18 1.687a10.664 10.664 0 0 0-2.096-.911zm2.313 1.687a8.2 8.2 0 0 1 1.654 1.648l-.082.097h-2.052c.086-.598.217-1.194.48-1.745zm.22-.504a6.575 6.575 0 0 1 1.529-2.006h.081l.389.047c.612.595 1.135 1.231 1.527 1.959-.696.465-1.31 1.008-1.782 1.65-.484-.643-1.096-1.185-1.744-1.65zm3.743.504c.222.55.392 1.147.437 1.745h-2.05l-.045-.097a6.267 6.267 0 0 1 1.658-1.648zm.222-.776a7.324 7.324 0 0 0-1.181-1.643 9.843 9.843 0 0 1 3.097.78c-.7.223-1.353.495-1.916.863zm2.609-.456a8.261 8.261 0 0 1 1.443.962 7.676 7.676 0 0 0-1.402 2.015h-1.91a7.35 7.35 0 0 0-.525-2.015 7.473 7.473 0 0 1 2.394-.962zm.826-.184a7.715 7.715 0 0 1 2.049 0c-.39.23-.746.51-1.046.78a8.718 8.718 0 0 0-1.003-.78zm1.003 1.508c.486.508.923 1.055 1.215 1.653h-2.388a7.1 7.1 0 0 1 1.173-1.653zm.394-.362a7.271 7.271 0 0 1 1.52-1c.918.178 1.839.494 2.61 1-.248.64-.471 1.272-.511 2.015h-2.223a7.607 7.607 0 0 0-1.396-2.015zm2.308-1.418c.96-.408 2.046-.683 3.227-.775a8.366 8.366 0 0 0-1.181 1.687c-.655-.367-1.308-.682-2.046-.912zm2.27 1.688c.648.454 1.218 1.002 1.648 1.648l-.038.097h-2.058c.05-.598.224-1.194.448-1.745zm.211-.504a8.48 8.48 0 0 1 1.522-2.006h.1l.425.047c.616.595 1.139 1.231 1.489 1.959-.654.465-1.268 1.008-1.743 1.65-.486-.643-1.096-1.185-1.793-1.65zm2.833-1.915a9.241 9.241 0 0 1 3.048.78 10.34 10.34 0 0 0-1.913.863 8.664 8.664 0 0 0-1.135-1.643zm.914 2.419c.262.55.393 1.147.483 1.745h-2.055l-.079-.097c.476-.646.997-1.194 1.651-1.648zm.436-.27c.741-.46 1.572-.771 2.447-.962.516.278.991.595 1.431.962-.605.593-1.09 1.272-1.391 2.015h-1.918a6.205 6.205 0 0 0-.569-2.015zm3.273-1.146a7.683 7.683 0 0 1 2.044 0c-.396.23-.739.51-1.045.78-.356-.27-.656-.55-.999-.78zm.999 1.508a7.11 7.11 0 0 1 1.175 1.653h-2.392c.298-.598.736-1.145 1.217-1.653zm.39-.362a7.728 7.728 0 0 1 1.486-1c.95.178 1.875.494 2.657 1a6.08 6.08 0 0 0-.565 2.015h-2.183a7.582 7.582 0 0 0-1.395-2.015zm2.263-1.418a10.887 10.887 0 0 1 3.276-.775 8.286 8.286 0 0 0-1.181 1.687 10.578 10.578 0 0 0-2.095-.912zm2.314 1.688c.647.454 1.168 1.002 1.651 1.648l-.042.097h-2.09a8.064 8.064 0 0 1 .481-1.745zm.219-.504a8.13 8.13 0 0 1 1.524-2.006h.086l.395.047a7.34 7.34 0 0 1 1.52 1.959 8.052 8.052 0 0 0-1.79 1.65 6.797 6.797 0 0 0-1.735-1.65zm3.751.504c.215.55.389 1.147.43 1.745h-2.049l-.046-.097a6.385 6.385 0 0 1 1.665-1.648zm.215-.776a7.306 7.306 0 0 0-1.177-1.643 9.551 9.551 0 0 1 3.093.78 8.824 8.824 0 0 0-1.916.863zm2.653-.456c.522.278 1.005.595 1.392.962a7.785 7.785 0 0 0-1.392 2.015h-1.92c-.047-.743-.253-1.375-.518-2.015.737-.46 1.567-.771 2.438-.962zm1.782.595c-.299-.27-.65-.55-.992-.779a7.719 7.719 0 0 1 1.286-.052c.256.011.512.022.781.052-.296.177-.543.388-.781.586v-.018l-.294.211zm0 .73.294.335v-.027c.363.421.704.863.944 1.344h-2.407a7.173 7.173 0 0 1 1.169-1.653zm.413-.363a7.22 7.22 0 0 1 1.527-1c.922.178 1.832.494 2.616 1-.255.64-.486 1.272-.518 2.015h-2.231a7.268 7.268 0 0 0-1.394-2.015zm2.309-1.418a10.4 10.4 0 0 1 3.225-.775c-.474.548-.873 1.094-1.169 1.687-.652-.367-1.308-.682-2.056-.912zm2.272 1.688c.652.454 1.224 1.002 1.653 1.648l-.047.097h-2.044c.04-.598.222-1.195.438-1.745zm.224-.504a8.009 8.009 0 0 1 1.518-2.006h.09l.429.047c.607.595 1.135 1.231 1.478 1.959-.647.465-1.262 1.008-1.74 1.65a8.203 8.203 0 0 0-1.775-1.65zm2.825-1.915a9.25 9.25 0 0 1 3.044.78c-.649.223-1.304.495-1.914.863a8.246 8.246 0 0 0-1.13-1.643zm.918 2.419c.212.55.387 1.147.472 1.745h-2.043l-.091-.097c.475-.646 1-1.194 1.662-1.648zm.427-.27c.744-.46 1.575-.771 2.445-.962a8.347 8.347 0 0 1 1.441.962c-.614.593-1.101 1.272-1.394 2.015h-1.923a6.084 6.084 0 0 0-.569-2.015zm3.223-1.146a8.064 8.064 0 0 1 2.095 0c-.39.23-.745.51-1.049.78-.344-.27-.647-.55-1.046-.78zm1.046 1.508a7.143 7.143 0 0 1 1.183 1.653h-2.404c.317-.598.745-1.145 1.221-1.653zm.395-.362a8.032 8.032 0 0 1 1.48-1 7.622 7.622 0 0 1 2.658 1c-.306.64-.475 1.272-.568 2.015h-2.174a7.899 7.899 0 0 0-1.396-2.015zm2.264-1.418a10.82 10.82 0 0 1 3.269-.775 8.554 8.554 0 0 0-1.185 1.687 10.4 10.4 0 0 0-2.084-.912zm2.301 1.688c.659.454 1.185 1.002 1.666 1.648l-.085.097h-2.056a8.226 8.226 0 0 1 .475-1.745zm.229-.504a8.42 8.42 0 0 1 1.515-2.006h.096l.393.047c.606.595 1.131 1.231 1.519 1.959a8.17 8.17 0 0 0-1.787 1.65c-.471-.643-1.085-1.185-1.736-1.65zm3.742.504c.219.504.351 1.002.439 1.556-.696.092-1.35.133-2.052.189l-.044-.097a6.493 6.493 0 0 1 1.657-1.648zm.219-.776a6.943 6.943 0 0 0-1.176-1.643 9.511 9.511 0 0 1 3.094.78 8.917 8.917 0 0 0-1.918.863zm2.664-.456c.525.278.996.595 1.393.962-.263.322-.524.593-.74.906a12.6 12.6 0 0 1-2.577.824c-.124-.633-.261-1.186-.52-1.73.738-.46 1.569-.771 2.444-.962zm.78-.184a7.663 7.663 0 0 1 2.042 0c-.343.23-.689.51-1.044.78a9.32 9.32 0 0 0-.998-.78zm4.395-3.284-.04.23c-2.098 1.097-4.578 1.051-6.664-.137 2.182-.727 4.532-.727 6.704-.093zm-.214.917a6.112 6.112 0 0 1-.735 1.601c-.221.086-.439.178-.616.314-1.229-.228-2.351-.19-3.57.045-1.263-.687-2.795-1.1-4.443-1.186l-.045-.052c.654-.54 1.438-.95 2.263-1.321a7.553 7.553 0 0 0 7.146.599zm-9.85-3.604a7.628 7.628 0 0 0 2.186 2.652c-.787.353-1.527.818-2.186 1.316a9.518 9.518 0 0 0-2.132-1.316 6.95 6.95 0 0 0 2.132-2.652zm-3.317 2.78a7.002 7.002 0 0 1-6.959 0 11.387 11.387 0 0 1 6.959 0zm.663.225c.823.37 1.613.781 2.27 1.32h-.04c-1.707.053-3.32.509-4.71 1.194-1.184-.228-2.356-.19-3.534.045-1.301-.687-2.831-1.1-4.482-1.186l-.042-.052c.696-.54 1.44-.95 2.264-1.321a7.545 7.545 0 0 0 8.274 0zm-10.935-3.005a7.038 7.038 0 0 0 2.137 2.652 9.762 9.762 0 0 0-2.137 1.316 11.068 11.068 0 0 0-2.174-1.316 7.706 7.706 0 0 0 2.174-2.652zm-6.84 2.25a11.223 11.223 0 0 1 3.495.53 6.883 6.883 0 0 1-3.48.896 6.826 6.826 0 0 1-3.474-.896 11.156 11.156 0 0 1 3.459-.53zm-.109 1.965v.015h.25v-.015a7.484 7.484 0 0 0 4.007-1.21c.826.37 1.599.781 2.262 1.32a11.185 11.185 0 0 0-4.707 1.194 8.466 8.466 0 0 0-1.562-.127v-.003h-.039l-.211-.02v.023c-.59.016-1.177.05-1.779.172-1.271-.687-2.792-1.1-4.442-1.186l-.043-.052c.651-.54 1.431-.95 2.265-1.321a7.446 7.446 0 0 0 3.999 1.21zm-6.71-4.215a7.547 7.547 0 0 0 2.188 2.652c-.789.353-1.529.818-2.188 1.316a9.604 9.604 0 0 0-2.128-1.316 6.95 6.95 0 0 0 2.128-2.652zm-3.303 2.78a7.025 7.025 0 0 1-6.971 0 11.425 11.425 0 0 1 6.971 0zm.651.225c.829.37 1.614.781 2.266 1.32h-.043a11.163 11.163 0 0 0-4.663 1.194c-1.218-.228-2.393-.19-3.574.045-1.308-.687-2.83-1.1-4.487-1.186l-.048-.052c.707-.54 1.448-.95 2.265-1.321a7.562 7.562 0 0 0 8.284 0zM254.98 6.659a7.004 7.004 0 0 0 2.131 2.652 9.4 9.4 0 0 0-2.131 1.316 11.48 11.48 0 0 0-2.184-1.316 7.7 7.7 0 0 0 2.184-2.652zm-3.363 2.78c-2.173 1.234-4.743 1.234-6.922 0a11.269 11.269 0 0 1 6.922 0zm.663.225c.813.37 1.604.781 2.256 1.32-1.74.053-3.351.509-4.699 1.194-1.221-.228-2.35-.19-3.571.045-1.302-.687-2.831-1.1-4.449-1.186l-.035-.052c.649-.54 1.393-.95 2.265-1.321 2.521 1.647 5.7 1.647 8.233 0zm-10.935-3.005a7.528 7.528 0 0 0 2.177 2.652c-.838.353-1.524.818-2.177 1.316-.656-.498-1.358-.963-2.143-1.316a7.035 7.035 0 0 0 2.143-2.652zm-6.801 2.237c1.221 0 2.398.175 3.482.543a7.059 7.059 0 0 1-3.482.91 6.938 6.938 0 0 1-3.482-.91c1.092-.368 2.269-.543 3.482-.543zm0 2.002a7.686 7.686 0 0 0 4.14-1.234c.831.37 1.565.781 2.269 1.32h-.048c-1.741.053-3.312.509-4.705 1.194-.522-.09-1.091-.19-1.656-.19-.654 0-1.266.1-1.915.235-1.269-.687-2.79-1.1-4.441-1.186l-.046-.052c.655-.54 1.438-.95 2.264-1.321 1.221.781 2.618 1.234 4.138 1.234zm-6.835-4.239a7.593 7.593 0 0 0 2.177 2.652 9.77 9.77 0 0 0-2.138 1.316 11.172 11.172 0 0 0-2.176-1.316 7.086 7.086 0 0 0 2.137-2.652zm-3.313 2.78c-2.181 1.234-4.742 1.234-6.972 0a11.428 11.428 0 0 1 6.972 0zm.658.225c.825.37 1.611.781 2.26 1.32h-.043a11.133 11.133 0 0 0-4.659 1.194c-1.223-.228-2.357-.19-3.575.045-1.308-.687-2.832-1.1-4.489-1.186l-.037-.052c.695-.54 1.439-.95 2.263-1.321a7.555 7.555 0 0 0 8.28 0zm-10.936-3.005a7.054 7.054 0 0 0 2.132 2.652c-.778.353-1.487.818-2.132 1.316-.653-.498-1.357-.963-2.176-1.316a7.634 7.634 0 0 0 2.176-2.652zm-3.357 2.78a6.94 6.94 0 0 1-6.926 0 11.282 11.282 0 0 1 6.926 0zm.655.225c.869.37 1.607.781 2.263 1.32a11.185 11.185 0 0 0-4.701 1.194c-.575-.09-1.089-.19-1.658-.19-.652 0-1.307.1-1.918.235-1.308-.687-2.79-1.1-4.441-1.186l-.036-.052c.644-.54 1.431-.95 2.249-1.321 2.536 1.647 5.718 1.647 8.242 0zm-10.93-3.005a7.512 7.512 0 0 0 2.179 2.652c-.79.353-1.523.818-2.179 1.316-.659-.498-1.358-.963-2.135-1.316a7.13 7.13 0 0 0 2.135-2.652zm-3.312 2.78a7.015 7.015 0 0 1-6.966 0 11.41 11.41 0 0 1 6.966 0zm-7.625.225a7.55 7.55 0 0 0 8.277 0c.83.37 1.57.781 2.26 1.32h-.043c-1.692.053-3.302.509-4.702 1.194-1.178-.228-2.35-.19-3.532.045l-.345-.135c-.702-.827-1.434-1.548-2.225-2.28l.31-.144zm-2.65-3.005a6.956 6.956 0 0 0 2.127 2.652l-.216.128a54.692 54.692 0 0 0-2.398-1.962c.177-.23.298-.503.487-.818zm-47.841 0c.172.315.305.587.484.818a51.25 51.25 0 0 0-2.394 1.962l-.227-.128a6.944 6.944 0 0 0 2.137-2.652zm-3.31 2.78a7.017 7.017 0 0 1-6.967 0 11.412 11.412 0 0 1 6.967 0zm.656.225.302.143c-.782.733-1.522 1.454-2.217 2.28l-.347.136c-1.177-.235-2.358-.273-3.532-.045-1.391-.685-2.964-1.14-4.701-1.193h-.047c.693-.54 1.436-.95 2.266-1.321a7.548 7.548 0 0 0 8.276 0zm-4.008 3.745a9.762 9.762 0 0 0-1-.779 7.723 7.723 0 0 1 2.05 0c-.397.23-.694.51-1.05.78zm1.003-.094c-.176.184-.306.413-.479.595l-.135-.134c.219-.136.401-.317.614-.46zm-108.1-.501c.87.19 1.704.501 2.445.962-.263.544-.394 1.097-.526 1.73a12.766 12.766 0 0 1-2.573-.824c-.214-.313-.475-.584-.735-.906a6.445 6.445 0 0 1 1.39-.962zm-1.78.595c-.353-.27-.697-.55-1.046-.779a7.717 7.717 0 0 1 2.05 0c-.353.23-.692.51-1.004.78zm2.525-1.002a9.541 9.541 0 0 1 3.095-.78 6.969 6.969 0 0 0-1.174 1.643 8.849 8.849 0 0 0-1.921-.863zm2.139 1.639a6.425 6.425 0 0 1 1.656 1.648l-.048.097c-.695-.056-1.353-.097-2.047-.19.089-.553.221-1.052.439-1.555zm.213-.504c.393-.728.915-1.364 1.526-1.96l.39-.046h.095a8.29 8.29 0 0 1 1.517 2.006c-.653.465-1.265 1.007-1.738 1.65-.527-.643-1.09-1.185-1.79-1.65zm2.791-1.96c1.18.093 2.264.368 3.265.776-.74.23-1.435.544-2.085.912a8.62 8.62 0 0 0-1.18-1.687zm.962 2.464c.218.55.387 1.147.475 1.745h-2.046l-.092-.097c.482-.646 1.01-1.194 1.663-1.648zm.429-.27a7.695 7.695 0 0 1 2.652-1c.53.266 1.052.633 1.489 1a7.742 7.742 0 0 0-1.396 2.015h-2.18a6.217 6.217 0 0 0-.565-2.015zm3.486-1.146a8.042 8.042 0 0 1 2.092 0c-.397.23-.697.51-1.05.78-.299-.27-.654-.55-1.042-.78zm1.042 1.508c.483.508.914 1.055 1.225 1.653h-2.4a7.46 7.46 0 0 1 1.175-1.653zm.396-.362a7.924 7.924 0 0 1 1.44-.962c.865.19 1.695.501 2.44.962a6.188 6.188 0 0 0-.569 2.015h-1.922c-.3-.743-.782-1.422-1.39-2.015zm2.177-1.37a9.335 9.335 0 0 1 3.05-.78 8.701 8.701 0 0 0-1.137 1.644 9.838 9.838 0 0 0-1.913-.863zm2.133 1.64c.657.454 1.179 1.002 1.657 1.648l-.088.097h-2.043a7.593 7.593 0 0 1 .474-1.745zm.22-.504c.35-.728.872-1.364 1.484-1.96l.426-.046h.09a8.057 8.057 0 0 1 1.52 2.006 8.068 8.068 0 0 0-1.774 1.65c-.48-.643-1.093-1.185-1.746-1.65zm3.748.504c.216.55.392 1.147.43 1.745h-2.042l-.046-.097c.432-.646 1.006-1.194 1.658-1.648zm.216-.776a8.494 8.494 0 0 0-1.176-1.687c1.176.092 2.261.367 3.226.775-.749.23-1.4.544-2.05.912zm2.835-.495a7.064 7.064 0 0 1 1.52 1.001 7.288 7.288 0 0 0-1.39 2.015h-2.23c-.03-.743-.256-1.375-.52-2.015.787-.506 1.701-.822 2.62-1zm.869-.145a8.208 8.208 0 0 1 2.024 0c-.344.23-.685.506-.996.776-.3-.274-.647-.55-1.028-.776zm1.028 1.527v-.008c.477.503.868 1.05 1.17 1.642h-2.365c.297-.591.722-1.137 1.195-1.634zm.388-.38c.386-.368.908-.685 1.39-.963.87.19 1.703.501 2.439.962-.266.64-.481 1.272-.525 2.015h-1.915a7.718 7.718 0 0 0-1.389-2.015zm2.132-1.37a9.538 9.538 0 0 1 3.09-.78 7.067 7.067 0 0 0-1.169 1.643c-.577-.368-1.229-.64-1.92-.863zm2.132 1.639a6.357 6.357 0 0 1 1.655 1.648l-.042.097h-2.048c.044-.598.224-1.195.435-1.745zm.218-.504c.398-.728.915-1.364 1.526-1.96l.396-.046h.082c.657.595 1.133 1.278 1.53 2.006-.657.465-1.268 1.008-1.742 1.65a8.126 8.126 0 0 0-1.792-1.65zm2.79-1.96c1.175.093 2.264.368 3.261.776-.731.23-1.433.544-2.086.912a8.656 8.656 0 0 0-1.176-1.687zm.961 2.464c.214.55.385 1.147.476 1.745h-2.047l-.09-.097c.479-.646 1.004-1.194 1.661-1.648zm.436-.27c.816-.506 1.696-.822 2.654-1 .52.266 1.042.633 1.48 1a7.579 7.579 0 0 0-1.394 2.015h-2.183a6.144 6.144 0 0 0-.557-2.015zm3.485-1.146a7.946 7.946 0 0 1 2.08 0c-.382.23-.69.51-1.043.78a7.166 7.166 0 0 0-1.037-.78zm1.036 1.508a6.2 6.2 0 0 1 1.222 1.653h-2.394a7.398 7.398 0 0 1 1.172-1.653zm.399-.362a8.12 8.12 0 0 1 1.434-.962c.873.19 1.7.501 2.433.962a6.36 6.36 0 0 0-.563 2.015H66.1a6.138 6.138 0 0 0-1.394-2.015zm2.177-1.37a9.267 9.267 0 0 1 3.049-.78 8.633 8.633 0 0 0-1.137 1.644c-.605-.368-1.26-.64-1.912-.863zm2.135 1.64c.646.454 1.173 1.002 1.652 1.648l-.081.097h-2.056a7.697 7.697 0 0 1 .485-1.745zm.219-.504c.345-.728.867-1.364 1.479-1.96l.437-.046h.081a8.457 8.457 0 0 1 1.531 2.006c-.701.465-1.262 1.008-1.79 1.65-.48-.643-1.096-1.185-1.738-1.65zm3.739.504c.223.55.395 1.147.446 1.745h-2.046l-.051-.097c.428-.646.996-1.194 1.65-1.648zm.223-.776c-.302-.593-.697-1.14-1.178-1.687 1.178.092 2.268.367 3.228.775-.74.23-1.392.544-2.05.912zm2.832-.495a7.26 7.26 0 0 1 1.523 1.001 7.49 7.49 0 0 0-1.396 2.015h-2.23c-.036-.743-.252-1.375-.506-2.015.783-.506 1.691-.822 2.61-1zm.873-.145a7.697 7.697 0 0 1 2.046 0c-.346.23-.7.51-1.002.78a6.95 6.95 0 0 0-1.044-.78zm1.044 1.508a8.57 8.57 0 0 1 1.216 1.653h-2.44a9.114 9.114 0 0 1 1.224-1.653zm.388-.362c.44-.367.922-.684 1.437-.962.872.19 1.66.501 2.4.962a7.425 7.425 0 0 0-.526 2.015h-1.914a7.554 7.554 0 0 0-1.397-2.015zm2.133-1.37a9.888 9.888 0 0 1 3.09-.78 7.154 7.154 0 0 0-1.17 1.644c-.57-.368-1.22-.64-1.92-.863zm2.137 1.64a7.198 7.198 0 0 1 1.701 1.648l-.091.097h-2.044c.088-.598.217-1.195.434-1.745zm.26-.504c.35-.728.87-1.364 1.48-1.96l.394-.046h.08c.662.595 1.186 1.278 1.534 2.006-.658.465-1.266 1.008-1.741 1.65-.475-.643-1.093-1.185-1.746-1.65zm3.752.504c.212.55.345 1.147.429 1.745h-2.041l-.09-.097a7.311 7.311 0 0 1 1.702-1.648zm.212-.776a10.58 10.58 0 0 0-1.215-1.687c1.173.092 2.26.367 3.271.775-.75.23-1.437.544-2.056.912zm2.83-.495c.569.267 1.051.634 1.525 1.001a6.121 6.121 0 0 0-1.396 2.015H87.57a6.908 6.908 0 0 0-.523-2.015c.79-.506 1.662-.822 2.613-1zm.873-.145c.27-.042.564-.09.873-.09.39 0 .787.048 1.182.09-.395.23-.701.51-1.006.78-.354-.27-.7-.55-1.049-.78zm1.05 1.508c.479.508.869 1.055 1.173 1.653h-2.392a6.13 6.13 0 0 1 1.218-1.653zm.388-.362c.391-.367.874-.684 1.396-.962.872.19 1.692.501 2.44.962-.265.64-.478 1.272-.525 2.015h-1.915a7.425 7.425 0 0 0-1.396-2.015zm2.135-1.37a9.271 9.271 0 0 1 3.093-.78 6.985 6.985 0 0 0-1.17 1.644 8.848 8.848 0 0 0-1.924-.863zm2.138 1.64a6.344 6.344 0 0 1 1.658 1.648l-.042.097h-2.052c.046-.598.221-1.195.436-1.745zm.214-.504a7.305 7.305 0 0 1 1.528-1.96l.383-.046h.096a8.231 8.231 0 0 1 1.52 2.006 7.046 7.046 0 0 0-1.735 1.65 8.124 8.124 0 0 0-1.792-1.65zm2.784-1.96a10.93 10.93 0 0 1 3.276.776c-.745.23-1.44.544-2.098.912a8.1 8.1 0 0 0-1.178-1.687zm.956 2.464c.222.55.401 1.147.489 1.745h-2.094l-.046-.097a6.47 6.47 0 0 1 1.651-1.648zm.443-.27c.782-.506 1.699-.822 2.659-1a8.185 8.185 0 0 1 1.482 1 7.468 7.468 0 0 0-1.395 2.015h-2.176a6.333 6.333 0 0 0-.57-2.015zm3.486-1.146a7.67 7.67 0 0 1 2.043 0 8.55 8.55 0 0 0-.995.78 6.923 6.923 0 0 0-1.048-.78zm1.048 1.508c.477.508.918 1.055 1.218 1.653h-2.401a7.114 7.114 0 0 1 1.183-1.653zm.387-.362a8.032 8.032 0 0 1 1.443-.962c.865.19 1.696.501 2.394.962a7.311 7.311 0 0 0-.52 2.015h-1.913c-.354-.743-.796-1.422-1.404-2.015zm2.177-1.37a9.279 9.279 0 0 1 3.049-.78 8.19 8.19 0 0 0-1.127 1.644 10.1 10.1 0 0 0-1.922-.863zm2.138 1.64a8.283 8.283 0 0 1 1.661 1.648l-.097.097h-2.042c.084-.598.22-1.195.478-1.745zm.22-.504c.348-.728.87-1.364 1.476-1.96l.441-.046h.087a8.27 8.27 0 0 1 1.516 2.006c-.685.465-1.299 1.008-1.782 1.65-.479-.643-1.09-1.185-1.738-1.65zm3.743.504c.22.55.395 1.147.436 1.745h-2.044l-.048-.097a6.334 6.334 0 0 1 1.656-1.648zm.22-.776c-.309-.593-.743-1.14-1.18-1.687a10.62 10.62 0 0 1 3.23.775 9.317 9.317 0 0 0-2.05.912zm2.827-.495a6.955 6.955 0 0 1 1.525 1.001 7.81 7.81 0 0 0-1.392 2.015h-2.222c-.038-.743-.26-1.375-.522-2.015.78-.506 1.655-.822 2.611-1zm.873-.145c.303-.042.61-.09.915-.09.386 0 .746.048 1.131.09-.344.23-.694.51-1 .78-.347-.27-.653-.55-1.046-.78zm1.046 1.508a6.928 6.928 0 0 1 1.173 1.653h-2.389c.301-.598.738-1.145 1.216-1.653zm.394-.362a8.152 8.152 0 0 1 1.435-.962 7.45 7.45 0 0 1 2.395.962 7.53 7.53 0 0 0-.521 2.015h-1.918a7.856 7.856 0 0 0-1.391-2.015zm2.136-1.37a9.807 9.807 0 0 1 3.091-.78 7.205 7.205 0 0 0-1.182 1.644c-.556-.367-1.212-.64-1.909-.863zm2.127 1.64a6.274 6.274 0 0 1 1.66 1.648l-.045.097h-2.048c.047-.598.215-1.194.433-1.745zm.215-.504c.399-.728.92-1.364 1.528-1.96l.398-.046h.086a6.53 6.53 0 0 1 1.521 2.006c-.655.465-1.259 1.008-1.746 1.65-.474-.643-1.082-1.185-1.787-1.65zm3.759.504c.255.55.385 1.147.478 1.745h-2.052l-.084-.097a7.993 7.993 0 0 1 1.658-1.648zm.21-.776c-.302-.593-.695-1.14-1.173-1.687a10.9 10.9 0 0 1 3.267.775c-.74.23-1.445.544-2.094.912zm2.879-.495c.563.267 1.043.634 1.521 1.001-.599.593-1.087 1.272-1.39 2.015h-2.225a7.239 7.239 0 0 0-.517-2.015c.779-.506 1.654-.822 2.611-1zm1.871 1.363.219.182c-.35.508-.7.96-1.047 1.47h-.346a7.163 7.163 0 0 1 1.174-1.652zm-6.932-7.479a7.109 7.109 0 0 0 2.142 2.653c-.78.352-1.489.817-2.142 1.315a11.064 11.064 0 0 0-2.173-1.315 7.528 7.528 0 0 0 2.173-2.653zm-3.35 2.78c-2.179 1.234-4.741 1.234-6.927 0a11.285 11.285 0 0 1 6.927 0zm.656.225c.869.37 1.612.781 2.268 1.32l-.048.053c-1.61.086-3.138.499-4.447 1.186-.608-.135-1.26-.235-1.869-.235-.612 0-1.134.1-1.701.19a11.139 11.139 0 0 0-4.698-1.193c.656-.54 1.388-.95 2.262-1.321 2.526 1.647 5.698 1.647 8.233 0zm-10.936-3.005a7.617 7.617 0 0 0 2.186 2.653c-.791.352-1.53.817-2.186 1.315-.656-.498-1.35-.963-2.13-1.315a7.107 7.107 0 0 0 2.13-2.653zm-3.31 2.78a7.021 7.021 0 0 1-6.969 0 11.419 11.419 0 0 1 6.969 0zm.649.225c.834.37 1.571.781 2.267 1.32l-.04.053c-1.655.086-3.181.499-4.483 1.186-1.178-.235-2.357-.273-3.578-.045a11.151 11.151 0 0 0-4.658-1.193h-.04c.65-.54 1.434-.95 2.26-1.321a7.542 7.542 0 0 0 8.272 0zM98.249 6.659a7.051 7.051 0 0 0 2.13 2.653 9.604 9.604 0 0 0-2.13 1.315 11.392 11.392 0 0 0-2.183-1.315 7.612 7.612 0 0 0 2.183-2.653zm-6.844 2.237c1.218 0 2.398.175 3.492.543a7.002 7.002 0 0 1-3.492.91 7.045 7.045 0 0 1-3.481-.91c1.087-.368 2.261-.543 3.48-.543zm0 2.002c1.53 0 2.915-.453 4.136-1.234.832.37 1.612.781 2.263 1.32l-.042.053c-1.652.086-3.182.499-4.44 1.186a8.926 8.926 0 0 0-1.917-.235c-.568 0-1.129.1-1.654.19-1.393-.685-2.964-1.14-4.71-1.193h-.036c.69-.54 1.437-.95 2.263-1.321a7.697 7.697 0 0 0 4.137 1.234zm-6.793-4.239a7.944 7.944 0 0 0 2.13 2.653c-.784.352-1.478.817-2.13 1.315-.653-.498-1.348-.963-2.177-1.315a7.566 7.566 0 0 0 2.177-2.653zM81.25 9.44a6.931 6.931 0 0 1-6.921 0c2.22-.727 4.709-.727 6.92 0zm.704.225c.82.37 1.564.781 2.224 1.32l-.043.053c-1.613.086-3.14.499-4.447 1.186-1.222-.235-2.352-.273-3.576-.045a11.193 11.193 0 0 0-4.7-1.193c.65-.54 1.432-.95 2.262-1.321 2.525 1.647 5.71 1.647 8.28 0zM70.974 6.659a7.73 7.73 0 0 0 2.176 2.653c-.78.352-1.523.817-2.176 1.315a9.752 9.752 0 0 0-2.13-1.315 7.06 7.06 0 0 0 2.13-2.653zm-3.306 2.78a7.019 7.019 0 0 1-6.968 0c2.259-.727 4.7-.727 6.968 0zm.652.225c.825.37 1.61.781 2.268 1.32l-.044.053c-1.654.086-3.188.499-4.491 1.186-1.176-.235-2.354-.273-3.528-.045-1.4-.685-3.014-1.14-4.708-1.193h-.039c.65-.54 1.44-.95 2.26-1.321a7.557 7.557 0 0 0 8.282 0zM57.39 6.659a7.05 7.05 0 0 0 2.12 2.653 9.656 9.656 0 0 0-2.12 1.315 11.339 11.339 0 0 0-2.182-1.315 7.654 7.654 0 0 0 2.182-2.653zm-6.684 2.248c1.133.01 2.261.185 3.325.532a6.986 6.986 0 0 1-3.327.91 7.077 7.077 0 0 1-3.582-.91 11.148 11.148 0 0 1 3.584-.532zm-.082 1.981v.01l.078-.01.026.002v-.002a7.506 7.506 0 0 0 3.95-1.224c.833.37 1.615.781 2.27 1.32l-.046.053c-1.65.086-3.133.499-4.442 1.186a9.932 9.932 0 0 0-1.732-.182v-.012l-.06.008-.044-.008v.012a8.562 8.562 0 0 0-1.711.137 11.192 11.192 0 0 0-4.703-1.193c.658-.54 1.438-.95 2.265-1.321a7.532 7.532 0 0 0 4.15 1.224zM43.778 6.66a7.673 7.673 0 0 0 2.172 2.653c-.783.352-1.525.817-2.172 1.315a9.8 9.8 0 0 0-2.136-1.315 7.024 7.024 0 0 0 2.136-2.653zm-3.31 2.78a7.02 7.02 0 0 1-6.967 0 11.415 11.415 0 0 1 6.968 0zm.648.225c.825.37 1.569.781 2.265 1.32l-.043.053c-1.655.086-3.183.499-4.479 1.186-1.18-.235-2.355-.273-3.536-.045a11.525 11.525 0 0 0-4.71-1.193h-.035c.65-.54 1.439-.95 2.264-1.321a7.546 7.546 0 0 0 8.275 0zm-10.93-3.005a7.013 7.013 0 0 0 2.133 2.653 9.607 9.607 0 0 0-2.132 1.315 11.542 11.542 0 0 0-2.18-1.315 7.698 7.698 0 0 0 2.18-2.653zm-2.705 3.005c.828.37 1.615.781 2.264 1.32l-.042.053c-1.648.086-3.181.499-4.443 1.186-1.22-.235-2.35-.273-3.571-.045-.175-.136-.391-.228-.613-.314a6.309 6.309 0 0 1-.74-1.601 7.552 7.552 0 0 0 7.145-.6zm-.656-.225c-2.088 1.188-4.57 1.234-6.663.136l-.039-.229c2.178-.634 4.522-.634 6.702.093zM8.751 45.499c-.917 0-1.66-.78-1.66-1.733 0-.962.743-1.737 1.66-1.737.915 0 1.65.775 1.65 1.737 0 .954-.735 1.733-1.65 1.733zm-.3-4.43c.388-.686.733-1.37.993-2.1.222.87.478 1.737.828 2.605-.522-.37-1.172-.598-1.822-.505zm1.471 5.843c0-.817.656-1.458 1.4-1.458.783 0 1.394.64 1.394 1.458 0 1.92-2.794 1.92-2.794 0zm1.263-2.283c.096-.272.137-.591.137-.863.176.317.344.639.568.904-.308-.084-.393-.084-.705-.041zm-2.046-8.443c-.432 1.69-4.222 9.402-5.835 8.17-.128-.095-.037-.45.22-.956 2.396-4.064.738-4.838.653-8.857-.036-1.786.918-1.65 1.266-2.966.167-.685-.267-1.186-.873-.775-.743.543-1.221 2.009-2.663 2.738-1.211.592-1.086-.37-.82-1.237 1-3.369 2.217-4.38 5.183-5.929.997-.503 1.828-.87 2.303-1.237.918-.814 0-1.73-.955-1.818-1.306-.098-2.79.637-3.917-.556-.919-.953-1.134-3.053-.397-4.157 1.09-1.595 4.185-2.048 4.53-.13.045.504-.12 1.828-.78 1.738-.26 0-.653-.828-1.533-.642a.781.781 0 0 0-.563.642c-.166 1.55 2.53 2.603 4.226 1.366a23.521 23.521 0 0 0 1.263-1.001c.615-.459-.125.135-.303.91-.082.37 0 .778.128.818.128 0 .396-.359.7-.817 1.657-2.464 4.227-3.656 6.927-4.43.954-.277 1.564-.277 1.789-.226.253.097.172.226-.616.636-.739.41-2.175 1.006-3.308 1.598-3.612 1.875-6.32 4.745-7.706 8.67-.791 2.241-1.398 5.53-1.614 7.494-.029.277.044.186.216-.273.217-.689.699-2.013 1.174-3.383 2.05-6.252 5.058-10.407 11.15-12.865 1.31-.551 2.836-1.054 3.926-1.462.477.502-.784 1.04-1.09 1.181-7.238 3.15-12.938 9.123-12.68 17.756zm21.398 14.14-.515-.13.509-.13c2.216-.593 5.025-1.38 6.987.133-1.962 1.504-4.771.725-6.982.127zm11.322 3.931-.048.073c-.349.329-.755.657-1.218.979-.425-.195-.972-.279-1.212-.367-.308-.096-.221-.182.079-.456.201-.167.413-.346.626-.53 1.126-.695 2.002-1.77 2.23-3.083l.021-.088.013-.195.023-.39-.025-.415-.01-.18-.023-.08c-.221-1.315-1.1-2.392-2.227-3.086a53.595 53.595 0 0 0-.628-.535c-.303-.27-.387-.361-.084-.45.245-.088.787-.176 1.214-.374.455.318.857.638 1.202.962l.064.094c.993 1.489 1.588 2.833 1.708 4.085-.13 1.235-.725 2.567-1.705 4.036zm244.771.685c-.248.09-.796.172-1.221.368a11.11 11.11 0 0 1-1.197-.96l-.064-.093c-.998-1.491-1.593-2.838-1.71-4.09.131-1.235.725-2.563 1.703-4.03l.051-.078c.35-.329.757-.657 1.219-.979.423.199.97.286 1.21.374.308.089.23.18-.08.45-.202.169-.411.348-.623.53-1.128.694-2.005 1.769-2.231 3.089l-.022.083-.013.192-.023.389.025.436.011.162.016.073c.225 1.325 1.111 2.41 2.249 3.108.208.18.415.356.612.52.309.274.387.36.088.456zm8.841-4.616c-2.216.598-5.026 1.38-6.986-.13 1.96-1.507 4.77-.72 6.982-.13l.513.13-.509.13zm5.314-15.824c.522.315.784.682.958.861.087.121.042.152-.135.093-5.047-1.506-5.356 4.561-2.789 6.44 1.966 1.406 4.834 1.18 6.408-.781 1.355-1.643 1.871-4.553 1.211-6.667-1.733-5.473-9.228-6.435-13.109-2.325-3.045 3.24-2.486 6.845-.735 10.55.304.679.349 1.182.085 1.138-1.358-.095-2.53-2.922-6.181-1.097-.467.228-1.403.772-1.672 1.339a9.029 9.029 0 0 0-1.614 1.345c-.429-.108-.835-.272-.807-.583.295-2.288 4.482-4.198 6.659-3.61.216.043 1.304.639 1.566.5.089-.042.089-.227 0-.54-.523-1.417-.786-2.102-.695-3.699.085-2.195.956-4.477 2.482-6.257 3.394-3.966 8.84-4.333 12.851-1.05 5.968 4.8 2.62 16.111-5.093 13.697-.135-.045-1.789-.415-.965.36.304.279 1.131.599 2.097.734 5.006.82 9.1-3.651 9.496-8.677.828-9.899-8.02-14.188-16.166-14.554-.255 0-3.004 0-3.182-.05h-97.048c.133.437.249.88.353 1.328h96.131c9.013 0 20.262 2.193 18.604 14.788.22-9.55-9.495-13.876-16.382-8.718-3.269 2.416-5.05 7.028-4.049 11.131-2.839-1.085-6.232 1.28-7.577 3.791-.442.87-.697 1.51-.697 1.826-.051.455 1.002.5 1.432.602l.144.063a6.46 6.46 0 0 0-1.035 3.671 6.46 6.46 0 0 0 1.034 3.766l-.143.06c-.43.103-1.475.14-1.431.599 0 .315.259.957.7 1.825 1.345 2.517 4.734 4.882 7.573 3.793-.995 4.101.786 8.715 4.057 11.131 6.881 5.16 16.595.826 16.374-8.715 1.659 12.593-9.589 14.783-18.602 14.783H35.108c-9.012 0-20.256-2.19-18.597-14.783-.222 9.54 9.493 13.875 16.377 8.715 3.27-2.416 5.05-7.03 4.05-11.131 2.839 1.089 6.228-1.276 7.574-3.793.445-.868.7-1.51.7-1.825.048-.46-.995-.496-1.434-.6l-.142-.061a6.44 6.44 0 0 0 1.033-3.678l.002-.058v-.004a6.444 6.444 0 0 0-1.034-3.698l.14-.06c.433-.101 1.482-.147 1.433-.602 0-.316-.257-.956-.7-1.825-1.344-2.512-4.733-4.877-7.575-3.792.998-4.103-.784-8.715-4.054-11.131-6.88-5.158-16.597-.832-16.375 8.718-1.654-12.595 9.587-14.787 18.602-14.787h96.085c.127-.45.285-.892.474-1.329H34.546c-.182.05-2.93.05-3.187.05-8.143.366-16.99 4.655-16.16 14.554.393 5.026 4.489 9.496 9.498 8.677.954-.135 1.792-.455 2.087-.734.83-.775-.827-.405-.958-.36-7.713 2.414-11.058-8.897-5.096-13.697 4.007-3.283 9.456-2.916 12.847 1.05 1.53 1.78 2.399 4.062 2.487 6.257.087 1.597-.178 2.282-.699 3.699-.082.313-.082.498 0 .54.268.139 1.354-.457 1.57-.5 2.178-.588 6.363 1.322 6.662 3.61.026.31-.375.472-.803.58a9.041 9.041 0 0 0-1.628-1.35c-.278-.568-1.203-1.106-1.663-1.331-3.652-1.825-4.83 1.002-6.179 1.097-.268.044-.22-.46.08-1.137 1.748-3.706 2.313-7.31-.737-10.55-3.878-4.11-11.37-3.149-13.107 2.324-.658 2.114-.14 5.024 1.216 6.667 1.567 1.96 4.437 2.187 6.402.78 2.567-1.878 2.261-7.945-2.79-6.439-.173.059-.216.028-.129-.093.172-.179.438-.546.954-.861 6.194-3.434 9.417 11.814-1.606 12.091-2.224.049-4.754-.824-6.572-2.51-1.8-1.692-2.925-4.157-3.317-6.386-1.31-7.034 3.745-13.884 9.669-16.44 2.176-.909 5.05-1.224 7.666-1.32h99.602c12.129-24.78 52.506-24.78 64.647 0h99.648c2.61.096 5.478.411 7.664 1.32 5.925 2.556 10.98 9.406 9.665 16.44-.386 2.23-1.523 4.694-3.313 6.386-1.823 1.686-4.351 2.559-6.571 2.51-11.023-.277-7.8-15.525-1.61-12.091zm16.468 20.389c.912 0 1.655.78 1.655 1.735 0 .962-.743 1.737-1.655 1.737-.916 0-1.651-.775-1.651-1.737 0-.955.735-1.735 1.651-1.735zm.3 4.429c-.39.688-.736 1.367-.995 2.1-.221-.869-.48-1.733-.83-2.604.521.371 1.172.596 1.825.504zm-1.475-5.844c0 .821-.657 1.466-1.398 1.466-.785 0-1.392-.645-1.392-1.466 0-1.918 2.79-1.918 2.79 0zm-1.261 2.289c-.096.269-.137.592-.137.861-.176-.312-.344-.642-.563-.906.305.083.387.083.7.045zM303.529 87.76a7.386 7.386 0 0 1-2.049 0c.35-.226.69-.508 1-.779.353.271.699.553 1.049.779zm-2.176-2.056c.216.32.477.595.743.913-.4.364-.871.683-1.395.963-.868-.191-1.702-.503-2.445-.963.259-.547.396-1.095.528-1.734.874.18 1.743.457 2.569.821zm-1.398 2.284a9.485 9.485 0 0 1-3.093.773c.482-.5.872-1.044 1.174-1.642.616.368 1.217.641 1.919.869zm-3.743-3.385c.694.052 1.35.095 2.044.182a6.163 6.163 0 0 1-.438 1.56 6.561 6.561 0 0 1-1.658-1.647l.052-.095zm1.39 2.244c-.389.734-.909 1.369-1.52 1.965l-.392.046h-.092a8.268 8.268 0 0 1-1.523-2.01c.656-.456 1.268-1.004 1.738-1.652.525.648 1.093 1.196 1.789 1.651zm-2.78 1.965a10.855 10.855 0 0 1-3.272-.775c.743-.233 1.438-.55 2.085-.918.308.598.7 1.142 1.187 1.693zm.606-4.21.084.096c-.478.642-1.003 1.195-1.658 1.647a8.299 8.299 0 0 1-.483-1.742h2.057zm-2.571 0c.087.738.264 1.376.567 2.015a7.819 7.819 0 0 1-2.655 1 8.447 8.447 0 0 1-1.486-1 7.887 7.887 0 0 0 1.394-2.014h2.18zm-2.922 3.158a7.698 7.698 0 0 1-2.092 0c.398-.226.699-.508 1.052-.779.299.271.654.553 1.04.779zm.135-3.157a7.182 7.182 0 0 1-1.175 1.655c-.484-.508-.913-1.062-1.227-1.655h2.402zm-2.962 0c.3.737.782 1.42 1.395 2.014a8.356 8.356 0 0 1-1.439.963c-.872-.191-1.703-.503-2.443-.963.304-.64.478-1.277.565-2.014h1.922zm-.788 3.385a9.291 9.291 0 0 1-3.047.773c.437-.5.827-1.044 1.134-1.642.611.368 1.26.641 1.913.869zm-3.699-3.385h2.047a8.17 8.17 0 0 1-.478 1.742c-.656-.452-1.181-1.005-1.66-1.647l.091-.095zm1.349 2.244c-.35.734-.877 1.369-1.482 1.965l-.43.046h-.093a8.123 8.123 0 0 1-1.518-2.01 7.652 7.652 0 0 0 1.775-1.652c.481.648 1.094 1.196 1.748 1.651zm-2.789 1.965a10.393 10.393 0 0 1-3.225-.775c.747-.233 1.399-.55 2.051-.918a8.444 8.444 0 0 0 1.174 1.693zm.652-4.21.048.096c-.43.642-1.006 1.195-1.658 1.647-.216-.548-.391-1.149-.43-1.742h2.04zm-2.559 0c.034.738.256 1.376.519 2.015-.789.502-1.702.82-2.624 1a7.35 7.35 0 0 1-1.518-1 7.368 7.368 0 0 0 1.387-2.014h2.236zm-2.967 3.158a7.01 7.01 0 0 1-.944.062 7.134 7.134 0 0 1-1.086-.062c.343-.226.694-.5 1-.775.296.275.641.551 1.03.775zm.166-3.157c-.3.59-.727 1.132-1.196 1.634v.004a6.938 6.938 0 0 1-1.173-1.638h2.369zm-2.974 0c.348.737.819 1.42 1.388 2.014-.387.364-.911.683-1.388.963-.873-.191-1.707-.503-2.446-.963.261-.64.485-1.277.527-2.014h1.919zm-.747 3.385a9.514 9.514 0 0 1-3.088.773c.478-.5.864-1.044 1.17-1.642.575.368 1.229.641 1.918.869zm-3.743-3.385h2.044c-.037.593-.219 1.194-.433 1.742a6.239 6.239 0 0 1-1.651-1.647l.04-.095zm1.394 2.244c-.393.734-.917 1.369-1.525 1.965l-.395.046h-.084c-.662-.597-1.132-1.278-1.529-2.01.659-.456 1.268-1.004 1.741-1.652.531.648 1.093 1.196 1.792 1.651zm-2.788 1.965a10.854 10.854 0 0 1-3.264-.775c.734-.233 1.434-.55 2.084-.918a8.733 8.733 0 0 0 1.18 1.693zm.609-4.21.091.096c-.481.642-1.003 1.195-1.662 1.647a8.17 8.17 0 0 1-.478-1.742h2.049zm-2.563 0c.082.738.256 1.376.559 2.015-.82.502-1.699.82-2.658 1a8.687 8.687 0 0 1-1.478-1 7.656 7.656 0 0 0 1.391-2.014h2.186zm-2.928 3.158a7.617 7.617 0 0 1-2.081 0c.382-.226.688-.508 1.041-.779.306.271.65.553 1.04.779zm.134-3.157a7.331 7.331 0 0 1-1.174 1.655 6.27 6.27 0 0 1-1.22-1.655h2.394zm-2.96 0c.306.737.785 1.42 1.39 2.014a8.158 8.158 0 0 1-1.438.963 7.662 7.662 0 0 1-2.43-.963c.299-.64.478-1.277.564-2.014h1.914zm-.786 3.385a9.283 9.283 0 0 1-3.051.773c.442-.5.828-1.044 1.138-1.642.605.368 1.259.641 1.913.869zm-3.706-3.385h2.054a7.637 7.637 0 0 1-.485 1.742c-.644-.452-1.169-1.005-1.653-1.647l.084-.095zm1.35 2.244c-.342.734-.867 1.369-1.482 1.965l-.433.046h-.084a8.26 8.26 0 0 1-1.527-2.01c.7-.456 1.261-1.004 1.789-1.652.477.648 1.09 1.196 1.737 1.651zm-2.786 1.965a10.305 10.305 0 0 1-3.223-.775c.74-.233 1.393-.55 2.045-.918.307.598.699 1.142 1.178 1.693zm.648-4.21.055.096a6.372 6.372 0 0 1-1.658 1.647 6.08 6.08 0 0 1-.439-1.742h2.042zm-2.56 0c.041.738.256 1.376.518 2.015-.789.502-1.697.82-2.615 1a7.698 7.698 0 0 1-1.527-1 7.474 7.474 0 0 0 1.398-2.014h2.226zm-2.969 3.158a7.357 7.357 0 0 1-2.045 0c.35-.226.701-.508 1.002-.779.307.271.66.553 1.043.779zm.182-3.157a9.369 9.369 0 0 1-1.225 1.655 8.676 8.676 0 0 1-1.216-1.655h2.441zm-3.008 0c.344.737.829 1.42 1.393 2.014-.44.364-.918.683-1.433.963a7.57 7.57 0 0 1-2.403-.963c.268-.64.433-1.277.526-2.014h1.917zm-.742 3.385a9.79 9.79 0 0 1-3.09.773 6.96 6.96 0 0 0 1.174-1.642c.566.368 1.219.641 1.916.869zm-3.748-3.385h2.047c-.085.593-.215 1.194-.435 1.742a7.152 7.152 0 0 1-1.695-1.647l.083-.095zm-2.396 1.742c-.213-.548-.344-1.149-.43-1.742h2.041l.087.095a7.24 7.24 0 0 1-1.698 1.647zm1.877 2.513h-.084a6.42 6.42 0 0 1-1.529-2.01c.658-.456 1.265-1.004 1.74-1.652.477.648 1.094 1.196 1.745 1.651-.347.734-.871 1.369-1.482 1.965l-.39.046zm3.483 2.094c2.181-1.23 4.753-1.23 6.929 0a11.253 11.253 0 0 1-6.929 0zm-.697-.224c-.822-.367-1.565-.778-2.225-1.324l.043-.045c1.614-.094 3.139-.501 4.45-1.188 1.221.232 2.35.274 3.572.045a11.044 11.044 0 0 0 4.7 1.188c-.65.546-1.432.957-2.266 1.324-2.522-1.641-5.707-1.641-8.274 0zm10.979 3.007a7.639 7.639 0 0 0-2.177-2.655 11.586 11.586 0 0 0 2.177-1.311c.605.495 1.351.96 2.129 1.311a7.022 7.022 0 0 0-2.129 2.655zm3.306-2.783a7.04 7.04 0 0 1 6.968 0 11.377 11.377 0 0 1-6.968 0zm-.657-.224c-.819-.367-1.607-.778-2.262-1.324l.043-.045c1.653-.094 3.188-.501 4.49-1.188 1.177.232 2.354.274 3.527.045 1.4.687 3.015 1.143 4.708 1.188h.041c-.653.546-1.44.957-2.263 1.324a7.583 7.583 0 0 0-8.284 0zm10.934 3.007a7.01 7.01 0 0 0-2.121-2.655 9.718 9.718 0 0 0 2.121-1.311c.662.495 1.399.96 2.183 1.311a7.655 7.655 0 0 0-2.183 2.655zm6.684-2.246a11.23 11.23 0 0 1-3.327-.537 6.983 6.983 0 0 1 3.327-.903 7.003 7.003 0 0 1 3.583.903c-1.15.377-2.376.55-3.583.537zm.083-1.981v-.01l-.077.007-.024-.004v.004a7.589 7.589 0 0 0-3.963 1.223c-.822-.367-1.61-.778-2.26-1.324l.046-.045c1.653-.094 3.136-.501 4.441-1.188.588.115 1.167.172 1.736.183v.008l.057-.008.044.008v-.008a8.855 8.855 0 0 0 1.711-.138 11.024 11.024 0 0 0 4.703 1.188c-.66.546-1.436.957-2.262 1.324a7.527 7.527 0 0 0-4.152-1.22zm6.844 4.227a7.511 7.511 0 0 0-2.174-2.655 11.19 11.19 0 0 0 2.174-1.311c.614.495 1.36.96 2.137 1.311a7.051 7.051 0 0 0-2.137 2.655zm3.313-2.783a7.04 7.04 0 0 1 6.968 0 11.377 11.377 0 0 1-6.968 0zm-.652-.224c-.822-.367-1.567-.778-2.262-1.324l.04-.045c1.657-.094 3.187-.501 4.483-1.188 1.181.232 2.351.274 3.533.045a11.389 11.389 0 0 0 4.716 1.188h.035c-.656.546-1.443.957-2.268 1.324a7.571 7.571 0 0 0-8.277 0zm10.93 3.007a6.897 6.897 0 0 0-2.128-2.655 9.582 9.582 0 0 0 2.128-1.311c.663.495 1.4.96 2.184 1.311a7.581 7.581 0 0 0-2.184 2.655zm2.702-3.007c-.82-.367-1.609-.778-2.26-1.324l.047-.045c1.646-.094 3.178-.501 4.442-1.188 1.215.232 2.348.274 3.566.045.178.132.395.229.616.312.295.465.561 1.009.738 1.6a7.565 7.565 0 0 0-7.149.6zm.659.224c2.094-1.183 4.571-1.23 6.662-.134l.041.23c-2.174.633-4.524.633-6.703-.096zm25.737-22.863c-.992 3.37-2.215 4.38-5.181 5.931-.997.499-1.824.87-2.302 1.237-.917.813-.001 1.729.953 1.819 1.308.092 2.791-.642 3.929.552.91.957 1.123 3.052.386 4.153-1.09 1.597-4.181 2.05-4.531.136-.042-.505.123-1.825.784-1.74.259 0 .653.83 1.527.645a.78.78 0 0 0 .569-.646c.17-1.546-2.53-2.595-4.228-1.362-.434.319-1.01.771-1.265 1-.613.456.131-.14.303-.913.083-.366 0-.773-.127-.815-.126 0-.394.358-.698.815-1.656 2.47-4.227 3.653-6.924 4.426-.961.279-1.567.279-1.792.232-.255-.093-.175-.232.618-.637.731-.404 2.172-1.005 3.304-1.6 3.611-1.866 6.322-4.746 7.711-8.671.786-2.236 1.392-5.521 1.61-7.489.03-.276-.043-.185-.218.272-.215.693-.696 2.013-1.174 3.379-2.049 6.257-5.058 10.408-11.147 12.872-1.314.548-2.833 1.05-3.926 1.46-.478-.503.782-1.044 1.093-1.18 7.234-3.151 12.934-9.128 12.679-17.757.434-1.695 4.224-9.408 5.832-8.174.134.094.043.454-.22.96-2.397 4.06-.739 4.841-.654 8.855.039 1.783-.913 1.65-1.263 2.964-.17.688.271 1.195.871.777.745-.543 1.223-2.009 2.664-2.736 1.215-.591 1.087.37.817 1.235z"/>
        <path d="m139.68 22.677.882.484c.066-.12 6.741-12 22.028-12h.669c15.264 0 21.962 11.88 22.028 12l.882-.484c-.069-.125-7.034-12.524-22.91-12.524h-.669c-15.876 0-22.841 12.4-22.91 12.524zM226.165 49.247l-2.269 2.273-.003.67 2.358-2.361a2.375 2.375 0 0 1-.086-.582zM226.166 47.565v-.669l-2.268 2.273v.668l2.268-2.273zM226.153 58.652l-2.743 2.747h.665l2.09-2.116-.012-.631zM224.429 37.56h-.664l-.439.435.186.485.917-.92zM226.165 39.851l-2.322 2.324.011.658 2.311-2.315v-.667zM223.807 40.53l2.966-2.97h-.664l-2.328 2.328c.01.174.018.392.026.642zM226.165 42.866V42.2l-2.291 2.297.006.66 2.285-2.29zM226.154 53.952l-2.65 2.657.205.46 2.437-2.439c.003-.262.007-.488.008-.678zM226.165 45.215v-.667l-2.275 2.28.003.663 2.272-2.276zM239.456 38.944l-.417-.247-1.042 1.044.271.395 1.188-1.192zM236.029 37.68a10.61 10.61 0 0 0-.587-.075l-.013.014.451.212.149-.15zM237.054 50.747l5.302-5.273a8.95 8.95 0 0 0 .089-.795l-6.17 6.184c.298-.042.564-.083.779-.116zM238.989 41.762l1.771-1.772-.343-.325-1.595 1.597.167.5zM241.209 48.269l-1.128 1.129c.432-.329.81-.707 1.128-1.13zM223.783 53.992c-.104.344-.224.68-.363 1.02l3.818-3.826-.364-.303-3.091 3.11zM225.755 61.4h.665l.157-.157-.173-.494-.649.65zM226.137 56.988a14.758 14.758 0 0 1 0-.665l-2.327 2.326a22.53 22.53 0 0 1-.033.701l2.36-2.362zM239.339 43.76l2.43-2.434-.25-.416-2.234 2.238c.026.204.043.408.054.613zM239.099 46.35l3.276-3.284a5.407 5.407 0 0 0-.127-.542l-2.975 2.943c-.037.29-.095.583-.174.882zM237.891 38.167l-.498-.167-.508.508.341.324.665-.665zM92.168 56.657l-1.409 1.414.303.361 1.26-1.261-.154-.514zM91.488 45.596l-3.609 3.617-.01.287.007.384 3.517-3.477c.025-.274.06-.543.095-.811zM92.05 42.683l-3.919 3.892c-.05.273-.092.55-.127.83l3.825-3.799c.067-.315.14-.622.22-.923zM91.258 50.525l-2.862 2.866.151.515 2.733-2.737c-.012-.214-.018-.43-.022-.644zM91.713 54.767l-1.921 1.922.257.411 1.781-1.786-.117-.547zM91.413 52.718l-2.41 2.415.204.461 2.279-2.284a26.9 26.9 0 0 1-.073-.592zM93.675 38.706l-4.433 4.435c-.182.373-.346.765-.496 1.173l4.163-4.158c.234-.526.49-1.012.766-1.45zM91.266 48.166 88 51.44c.024.193.054.386.087.58l3.164-3.169.015-.685zM106.288 43.178l1.699-1.7-.286-.38-1.544 1.547.131.533zM105.769 41.35l1.153-1.154-.336-.328-1.002 1.002.185.48zM104.468 38.16c-.235-.124-.476-.24-.721-.35l-.025.025c.163.19.303.409.451.62l.295-.295zM106.662 45.153l2.206-2.21-.232-.436-2.057 2.064c.032.194.058.387.083.582zM108.288 56.951l-3.455 3.46c1.372-.842 2.545-2.017 3.455-3.46zM106.892 47.275l2.672-2.679-.178-.49-2.547 2.55c.02.204.036.41.053.619zM105.673 39.099l-.391-.275-.437.438.235.433.593-.596zM131.435 53.218l1.123-1.127-.256-.41-1.127 1.131.26.406zM130.524 51.782l1.131-1.135-.256-.408-1.134 1.136.259.407zM132.343 54.655l1.119-1.12-.258-.41-1.119 1.123.258.407zM133.253 56.094l1.352-1.355-.408-.26-1.202 1.206.258.409zM128.705 48.905l1.145-1.143-.259-.41-1.143 1.146.257.407zM129.614 50.345l1.137-1.14-.256-.41-1.138 1.14.257.41zM135.072 58.968l2.846-2.85v-.668l-3.105 3.11.259.408zM137.333 61.4l.585-.586v-.665l-1.25 1.25h.665zM94.516 61.148l.047.026-.03-.042-.017.016zM93.228 60.295l.414.25.17-.169-.258-.41-.326.329zM91.899 59.275l.355.312.716-.717-.195-.47-.876.875zM134.162 57.53l2.693-2.698c-.267.117-.562.189-.868.204l-2.084 2.088.259.407zM135.981 60.404l1.937-1.938v-.667l-2.196 2.2.259.405zM127.797 47.468l1.148-1.152-.257-.408-1.15 1.152.259.408zM61.646 61.4h.405l-.166-.238-.239.237zM106.966 49.074l.01.462 3.081-3.084c-.037-.187-.075-.37-.118-.551l-2.978 2.986.005.187zM59.108 43.472l2.387-2.39v-.669l-2.387 2.391v.668zM59.108 45.82l2.387-2.392v-.667l-2.387 2.392v.668zM75.496 50.055l-.013.5 3.204-3.213c-.026-.19-.06-.38-.098-.567l-3.095 3.103.002.177zM75.444 48.246l2.82-2.824-.164-.507-2.704 2.718c.016.2.034.404.048.613zM75.327 53.06l3.527-3.534c-.002-.222-.009-.439-.017-.651l-3.425 3.382c-.02.279-.052.544-.085.802zM59.041 59.982l2.454-2.46v-.669l-2.392 2.397a5.7 5.7 0 0 1-.062.732zM59.095 57.577l2.4-2.403v-.67l-2.521 2.527c.062.185.103.367.121.546zM59.968 61.4l1.527-1.538v-.66L59.302 61.4h.666zM59.108 52.334l-.056.526-.02.082 2.463-2.467v-.669L59.108 52.2v.135zM59.108 50.516l2.387-2.39v-.666l-2.387 2.39v.666zM59.108 48.17l2.387-2.394v-.665l-2.387 2.39v.668zM74.745 55.993l3.967-3.933c.033-.268.062-.532.082-.794l-3.803 3.781c-.073.325-.155.642-.246.946zM58.32 56.005l3.174-3.18v-.67l-3.31 3.304-.135.332.262.208.008.006zM105.614 57.95l4.078-4.067c.097-.3.181-.62.258-.948l-3.982 3.968c-.113.373-.231.72-.354 1.046zM60.32 37.56h-.664l-.892.891.166.501 1.39-1.393zM106.87 51.99l3.445-3.45a17.833 17.833 0 0 0-.047-.62l-3.34 3.347c-.016.24-.036.483-.058.722zM59.108 41.124l2.534-2.52c.142-.408.383-.769.695-1.045H62l-2.892 2.898v.667zM106.5 54.716l3.772-3.736c.024-.258.04-.513.054-.772l-3.677 3.647c-.044.292-.093.577-.149.861zM71.726 60.697l-.152.151c.354-.096.681-.198.96-.295l5.44-5.431c.123-.32.23-.656.331-1.014l-5.178 5.183c-.457.59-.923 1.055-1.401 1.406zM74.257 42.389l1.467-1.47-.332-.335-1.333 1.338.198.467zM74.486 39.808l-.382-.283-.893.896.26.403 1.015-1.016zM74.835 44.16l1.943-1.947-.284-.385-1.802 1.806.143.526zM73.053 38.897l-.45-.214-.47.47.327.336.593-.592zM71.395 38.21l-.511-.158-.083.086.405.262.189-.19zM75.225 46.116l2.394-2.4-.215-.45-2.271 2.276c.031.189.063.378.092.574zM123.77 42.107l1.563-1.563-.257-.41-1.838 1.84a2.5 2.5 0 0 1 .532.133zM177.242 37.861a9.522 9.522 0 0 0-.546-.12l-.23.231.398.267.378-.377zM178.977 40.822l1.437-1.442-.386-.281-1.279 1.278.228.445zM178.968 38.48l-.461-.204-.751.75.314.353.898-.899zM179.294 46.859a7.018 7.018 0 0 1-.514 1.205l4.032-4.04a5.368 5.368 0 0 0-.048-.622l-3.47 3.457zM179.536 42.608l2.055-2.061-.305-.359-1.87 1.873c.047.183.087.366.12.547zM178.933 50.255l3.386-3.374c.12-.306.219-.635.296-.976l-4.682 4.688c.36-.1.702-.218 1-.338zM163.962 60.559l2.549-2.553v-.672l-2.435 2.392a6.73 6.73 0 0 1-.114.833zM268.008 61.143l-.398.4h.608l-.21-.4zM166.511 55.656v-.665l-2.424 2.424.036.378v.256l2.388-2.393zM164.797 61.4h.67l1.17-1.174a4.356 4.356 0 0 1-.097-.568l-1.743 1.741zM126.886 46.03l1.155-1.156-.255-.409-1.158 1.156.258.41zM166.801 61.543h.501l-.162-.338-.339.338zM179.67 44.82l2.769-2.771-.197-.467-2.543 2.63c0 .209-.012.41-.029.608zM262.172 53.233l.287.247 2.393-2.398-.146-.519-2.325 2.318-.209.352zM261.1 45.445l1.725-1.73-.138-.526-1.724 1.726.137.53zM261.575 47.32l1.749-1.752-.143-.524-1.741 1.743.135.533zM260.621 43.577l1.72-1.72-.135-.534-1.718 1.723.133.531zM261.789 39.393l-1.777 1.78.134.532 1.742-1.746-.061-.304-.038-.262zM259.622 39.648l.047.185 2.238-2.274h-.634l-1.761 1.763.11.326zM262.051 49.19l1.779-1.782-.145-.52-1.769 1.771.135.532zM263.258 55.028l2.107-2.114-.144-.517-2.126 2.128.163.503zM264.294 58.684l2.113-2.111-.15-.52-2.095 2.1.132.53zM263.802 56.831l2.083-2.086-.148-.52-2.085 2.09.15.516zM264.464 60.865l2.461-2.466-.146-.519-2.261 2.264c.001.24-.016.48-.054.721zM163.818 37.416h-.447l.137.313.31-.313zM262.523 51.067l1.815-1.82-.144-.52-1.803 1.803.132.537zM266.276 61.4l1.183-1.178-.042-.113-.114-.405-1.694 1.695h.667zM163.314 55.985l.256.269 2.952-2.96c.018-.31.093-.609.218-.884l-3.503 3.51.077.065zM203.498 51.205l.044.232 1.825-1.825-.145-.525-1.804 1.807.08.311zM207.664 61.4l.856-.856-.004-.01-.133-.32-.047-.154L207 61.4h.664zM205.214 61.4h.106l2.624-2.63-.15-.517-2.397 2.365a5.009 5.009 0 0 1-.183.781zM205.317 59.055l2.1-2.101-.149-.52-2.093 2.095.142.526zM203.604 53.725l2.271-2.274-.145-.52-2.449 2.451.323.343zM204.282 55.395l2.1-2.105-.144-.523-2.108 2.113.152.515zM204.809 57.215l2.09-2.092-.147-.52-2.092 2.094.149.518zM125.024 43.086l.044.07 1.167-1.17-.257-.41-1.197 1.2.243.31zM259.595 37.56h-.666l-.539.54.401.264.804-.805zM125.978 44.592l1.161-1.164-.257-.408-1.163 1.163.259.409zM120.705 39.862l.015.215v.388l2.806-2.81-.061-.096h-.511l-2.252 2.258.003.045zM120.72 42.814l3.709-3.715-.257-.41-3.452 3.46v.665zM121.275 37.56h-.665l-.375.378.19.473.85-.852zM165.82 37.56h-.666l-1.162 1.164c.037.184.068.375.09.576l1.738-1.74zM166.511 43.245l-2.388 2.392v.668l2.388-2.392v-.668zM166.511 40.898l-2.388 2.39v.67l2.388-2.394v-.666zM166.511 45.593l-2.388 2.392v.669l2.388-2.393v-.668zM203.077 49.555l1.785-1.788-.14-.523-1.78 1.78.135.531zM166.714 38.347l-2.591 2.593v.67l2.394-2.4c.011-.3.078-.59.197-.863zM166.692 50.108l-2.643 2.617a21.31 21.31 0 0 1-.226.928l3.103-3.112-.234-.433zM164.123 51.004l2.388-2.393v-.668l-2.388 2.394v.666zM202.126 45.811l1.74-1.745-.14-.526-1.735 1.74.135.531zM200.987 37.56h-.667l-.71.712.356.309 1.021-1.022zM202.601 47.683l1.757-1.777-.137-.51-1.754 1.756.134.531zM201.651 43.939l1.728-1.733-.136-.53-1.727 1.731.135.532zM202.787 39.785l-1.746 1.752.135.531 1.733-1.74c-.051-.219-.092-.402-.122-.543zM200.7 40.195l2.125-2.1c.047-.193.101-.371.167-.536h-.328l-2.104 2.09.14.546z"/>
    </g>
    <defs>
        <clipPath id="e1v387kxca">
            <path fill="#fff" d="M0 0h326v118H0z"/>
        </clipPath>
    </defs>
</svg>
